<mxfile host="app.diagrams.net" agent="Mozilla/5.0 (Windows NT 10.0; Win64; x64) AppleWebKit/537.36 (KHTML, like Gecko) Chrome/133.0.0.0 Safari/537.36" version="26.0.16" pages="2">
  <diagram name="Page-1" id="6S4AbP4xLzQnwj3wwC0h">
    <mxGraphModel grid="1" page="1" gridSize="10" guides="1" tooltips="1" connect="1" arrows="1" fold="1" pageScale="1" pageWidth="827" pageHeight="1169" math="0" shadow="0">
      <root>
        <mxCell id="0" />
        <mxCell id="1" parent="0" />
        <mxCell id="-6w1Tqqme-HWN3l_G5Sm-75" value="Cliente" style="whiteSpace=wrap;html=1;align=center;" vertex="1" parent="1">
          <mxGeometry x="-240" y="-741.5" width="100" height="40" as="geometry" />
        </mxCell>
        <mxCell id="-6w1Tqqme-HWN3l_G5Sm-76" value="Físico" style="whiteSpace=wrap;html=1;align=center;" vertex="1" parent="1">
          <mxGeometry x="-360" y="-531.75" width="100" height="40" as="geometry" />
        </mxCell>
        <mxCell id="-6w1Tqqme-HWN3l_G5Sm-77" value="Virtual" style="whiteSpace=wrap;html=1;align=center;" vertex="1" parent="1">
          <mxGeometry x="-130" y="-531.75" width="100" height="40" as="geometry" />
        </mxCell>
        <mxCell id="-6w1Tqqme-HWN3l_G5Sm-78" value="Nombre Completo" style="ellipse;whiteSpace=wrap;html=1;align=center;" vertex="1" parent="1">
          <mxGeometry x="-410" y="-741.5" width="100" height="40" as="geometry" />
        </mxCell>
        <mxCell id="-6w1Tqqme-HWN3l_G5Sm-79" value="Nombre" style="ellipse;whiteSpace=wrap;html=1;align=center;" vertex="1" parent="1">
          <mxGeometry x="-600" y="-741.5" width="100" height="40" as="geometry" />
        </mxCell>
        <mxCell id="-6w1Tqqme-HWN3l_G5Sm-80" value="Apellido Paterno" style="ellipse;whiteSpace=wrap;html=1;align=center;" vertex="1" parent="1">
          <mxGeometry x="-600" y="-671.5" width="100" height="40" as="geometry" />
        </mxCell>
        <mxCell id="-6w1Tqqme-HWN3l_G5Sm-81" value="Apellido Materno" style="ellipse;whiteSpace=wrap;html=1;align=center;" vertex="1" parent="1">
          <mxGeometry x="-490" y="-621.5" width="100" height="40" as="geometry" />
        </mxCell>
        <mxCell id="-6w1Tqqme-HWN3l_G5Sm-82" value="Domicilio de Entrega" style="ellipse;whiteSpace=wrap;html=1;align=center;" vertex="1" parent="1">
          <mxGeometry x="-210" y="-441.75" width="100" height="40" as="geometry" />
        </mxCell>
        <mxCell id="-6w1Tqqme-HWN3l_G5Sm-83" value="Calle" style="ellipse;whiteSpace=wrap;html=1;align=center;" vertex="1" parent="1">
          <mxGeometry x="-330" y="-311.75" width="100" height="40" as="geometry" />
        </mxCell>
        <mxCell id="-6w1Tqqme-HWN3l_G5Sm-84" value="Número Interior" style="ellipse;whiteSpace=wrap;html=1;align=center;" vertex="1" parent="1">
          <mxGeometry x="-239" y="-247.75" width="100" height="40" as="geometry" />
        </mxCell>
        <mxCell id="-6w1Tqqme-HWN3l_G5Sm-85" value="Número Exterior" style="ellipse;whiteSpace=wrap;html=1;align=center;" vertex="1" parent="1">
          <mxGeometry x="-140" y="-211.75" width="100" height="40" as="geometry" />
        </mxCell>
        <mxCell id="-6w1Tqqme-HWN3l_G5Sm-86" value="Colonia" style="ellipse;whiteSpace=wrap;html=1;align=center;" vertex="1" parent="1">
          <mxGeometry x="-20" y="-207.75" width="100" height="40" as="geometry" />
        </mxCell>
        <mxCell id="-6w1Tqqme-HWN3l_G5Sm-87" value="Estado" style="ellipse;whiteSpace=wrap;html=1;align=center;" vertex="1" parent="1">
          <mxGeometry y="-287.75" width="100" height="40" as="geometry" />
        </mxCell>
        <mxCell id="-6w1Tqqme-HWN3l_G5Sm-91" value="" style="endArrow=none;html=1;rounded=0;exitX=1;exitY=0.5;exitDx=0;exitDy=0;entryX=0;entryY=0.5;entryDx=0;entryDy=0;" edge="1" parent="1" source="-6w1Tqqme-HWN3l_G5Sm-79" target="-6w1Tqqme-HWN3l_G5Sm-78">
          <mxGeometry relative="1" as="geometry">
            <mxPoint x="-200" y="-481.5" as="sourcePoint" />
            <mxPoint x="-40" y="-481.5" as="targetPoint" />
          </mxGeometry>
        </mxCell>
        <mxCell id="-6w1Tqqme-HWN3l_G5Sm-92" value="" style="endArrow=none;html=1;rounded=0;exitX=1;exitY=0.5;exitDx=0;exitDy=0;entryX=0;entryY=0.5;entryDx=0;entryDy=0;" edge="1" parent="1" source="-6w1Tqqme-HWN3l_G5Sm-80" target="-6w1Tqqme-HWN3l_G5Sm-78">
          <mxGeometry relative="1" as="geometry">
            <mxPoint x="-200" y="-481.5" as="sourcePoint" />
            <mxPoint x="-40" y="-481.5" as="targetPoint" />
          </mxGeometry>
        </mxCell>
        <mxCell id="-6w1Tqqme-HWN3l_G5Sm-93" value="" style="endArrow=none;html=1;rounded=0;exitX=0;exitY=0.5;exitDx=0;exitDy=0;entryX=0.5;entryY=0;entryDx=0;entryDy=0;" edge="1" parent="1" source="-6w1Tqqme-HWN3l_G5Sm-78" target="-6w1Tqqme-HWN3l_G5Sm-81">
          <mxGeometry relative="1" as="geometry">
            <mxPoint x="-200" y="-481.5" as="sourcePoint" />
            <mxPoint x="-40" y="-481.5" as="targetPoint" />
          </mxGeometry>
        </mxCell>
        <mxCell id="-6w1Tqqme-HWN3l_G5Sm-94" value="" style="endArrow=none;html=1;rounded=0;exitX=0.5;exitY=0;exitDx=0;exitDy=0;entryX=0.5;entryY=1;entryDx=0;entryDy=0;" edge="1" parent="1" source="-6w1Tqqme-HWN3l_G5Sm-85" target="-6w1Tqqme-HWN3l_G5Sm-82">
          <mxGeometry relative="1" as="geometry">
            <mxPoint x="-190" y="-291.75" as="sourcePoint" />
            <mxPoint x="-30" y="-291.75" as="targetPoint" />
          </mxGeometry>
        </mxCell>
        <mxCell id="-6w1Tqqme-HWN3l_G5Sm-95" value="" style="endArrow=none;html=1;rounded=0;exitX=0.5;exitY=0;exitDx=0;exitDy=0;entryX=0.5;entryY=1;entryDx=0;entryDy=0;" edge="1" parent="1" source="-6w1Tqqme-HWN3l_G5Sm-83" target="-6w1Tqqme-HWN3l_G5Sm-82">
          <mxGeometry relative="1" as="geometry">
            <mxPoint x="-190" y="-291.75" as="sourcePoint" />
            <mxPoint x="-30" y="-291.75" as="targetPoint" />
          </mxGeometry>
        </mxCell>
        <mxCell id="-6w1Tqqme-HWN3l_G5Sm-96" value="" style="endArrow=none;html=1;rounded=0;exitX=0.5;exitY=0;exitDx=0;exitDy=0;entryX=0.5;entryY=1;entryDx=0;entryDy=0;" edge="1" parent="1" source="-6w1Tqqme-HWN3l_G5Sm-84" target="-6w1Tqqme-HWN3l_G5Sm-82">
          <mxGeometry relative="1" as="geometry">
            <mxPoint x="-190" y="-291.75" as="sourcePoint" />
            <mxPoint x="-30" y="-291.75" as="targetPoint" />
          </mxGeometry>
        </mxCell>
        <mxCell id="-6w1Tqqme-HWN3l_G5Sm-97" value="" style="endArrow=none;html=1;rounded=0;exitX=0.5;exitY=1;exitDx=0;exitDy=0;entryX=0.5;entryY=0;entryDx=0;entryDy=0;" edge="1" parent="1" source="-6w1Tqqme-HWN3l_G5Sm-82" target="-6w1Tqqme-HWN3l_G5Sm-86">
          <mxGeometry relative="1" as="geometry">
            <mxPoint x="-190" y="-291.75" as="sourcePoint" />
            <mxPoint x="-30" y="-291.75" as="targetPoint" />
          </mxGeometry>
        </mxCell>
        <mxCell id="-6w1Tqqme-HWN3l_G5Sm-98" value="" style="endArrow=none;html=1;rounded=0;exitX=0.5;exitY=1;exitDx=0;exitDy=0;entryX=0.5;entryY=0;entryDx=0;entryDy=0;" edge="1" parent="1" source="-6w1Tqqme-HWN3l_G5Sm-82" target="-6w1Tqqme-HWN3l_G5Sm-87">
          <mxGeometry relative="1" as="geometry">
            <mxPoint x="-190" y="-291.75" as="sourcePoint" />
            <mxPoint x="-30" y="-291.75" as="targetPoint" />
          </mxGeometry>
        </mxCell>
        <mxCell id="-6w1Tqqme-HWN3l_G5Sm-102" value="" style="endArrow=none;html=1;rounded=0;exitX=0.5;exitY=1;exitDx=0;exitDy=0;shape=link;" edge="1" parent="1" source="-6w1Tqqme-HWN3l_G5Sm-75" target="-6w1Tqqme-HWN3l_G5Sm-104">
          <mxGeometry relative="1" as="geometry">
            <mxPoint x="-250" y="-611.5" as="sourcePoint" />
            <mxPoint x="-80" y="-631.5" as="targetPoint" />
          </mxGeometry>
        </mxCell>
        <mxCell id="-6w1Tqqme-HWN3l_G5Sm-103" value="" style="endArrow=none;html=1;rounded=0;exitX=0.5;exitY=1;exitDx=0;exitDy=0;entryX=0.5;entryY=0;entryDx=0;entryDy=0;" edge="1" parent="1" source="-6w1Tqqme-HWN3l_G5Sm-77" target="-6w1Tqqme-HWN3l_G5Sm-82">
          <mxGeometry relative="1" as="geometry">
            <mxPoint x="-190" y="-291.75" as="sourcePoint" />
            <mxPoint x="-30" y="-291.75" as="targetPoint" />
          </mxGeometry>
        </mxCell>
        <mxCell id="-6w1Tqqme-HWN3l_G5Sm-104" value="O" style="triangle;whiteSpace=wrap;html=1;direction=south;" vertex="1" parent="1">
          <mxGeometry x="-240" y="-641.75" width="80" height="60" as="geometry" />
        </mxCell>
        <mxCell id="-6w1Tqqme-HWN3l_G5Sm-105" value="" style="endArrow=none;html=1;rounded=0;exitX=1;exitY=0.5;exitDx=0;exitDy=0;entryX=0;entryY=0.5;entryDx=0;entryDy=0;" edge="1" parent="1" source="-6w1Tqqme-HWN3l_G5Sm-78" target="-6w1Tqqme-HWN3l_G5Sm-75">
          <mxGeometry relative="1" as="geometry">
            <mxPoint x="-400" y="-541.5" as="sourcePoint" />
            <mxPoint x="-240" y="-541.5" as="targetPoint" />
          </mxGeometry>
        </mxCell>
        <mxCell id="-6w1Tqqme-HWN3l_G5Sm-107" value="" style="endArrow=none;html=1;rounded=0;exitX=0.5;exitY=0;exitDx=0;exitDy=0;entryX=1;entryY=0.5;entryDx=0;entryDy=0;" edge="1" parent="1" source="-6w1Tqqme-HWN3l_G5Sm-76" target="-6w1Tqqme-HWN3l_G5Sm-104">
          <mxGeometry relative="1" as="geometry">
            <mxPoint x="-300" y="-391.75" as="sourcePoint" />
            <mxPoint x="-310" y="-581.75" as="targetPoint" />
          </mxGeometry>
        </mxCell>
        <mxCell id="-6w1Tqqme-HWN3l_G5Sm-108" value="" style="endArrow=none;html=1;rounded=0;entryX=0.5;entryY=0;entryDx=0;entryDy=0;exitX=1;exitY=0.5;exitDx=0;exitDy=0;" edge="1" parent="1" source="-6w1Tqqme-HWN3l_G5Sm-104" target="-6w1Tqqme-HWN3l_G5Sm-77">
          <mxGeometry relative="1" as="geometry">
            <mxPoint x="-10" y="-631.75" as="sourcePoint" />
            <mxPoint x="90" y="-581.75" as="targetPoint" />
          </mxGeometry>
        </mxCell>
        <mxCell id="-6w1Tqqme-HWN3l_G5Sm-109" style="edgeStyle=orthogonalEdgeStyle;rounded=0;orthogonalLoop=1;jettySize=auto;html=1;exitX=0.5;exitY=1;exitDx=0;exitDy=0;" edge="1" parent="1" source="-6w1Tqqme-HWN3l_G5Sm-86" target="-6w1Tqqme-HWN3l_G5Sm-86">
          <mxGeometry relative="1" as="geometry" />
        </mxCell>
        <mxCell id="-6w1Tqqme-HWN3l_G5Sm-112" value="" style="endArrow=none;html=1;rounded=0;exitX=0.5;exitY=0;exitDx=0;exitDy=0;entryX=0.5;entryY=1;entryDx=0;entryDy=0;" edge="1" parent="1" source="-6w1Tqqme-HWN3l_G5Sm-122" target="-6w1Tqqme-HWN3l_G5Sm-76">
          <mxGeometry relative="1" as="geometry">
            <mxPoint x="-360" y="-401.5" as="sourcePoint" />
            <mxPoint x="-350" y="-431.5" as="targetPoint" />
          </mxGeometry>
        </mxCell>
        <mxCell id="-6w1Tqqme-HWN3l_G5Sm-113" value="Comprar" style="shape=rhombus;double=1;perimeter=rhombusPerimeter;whiteSpace=wrap;html=1;align=center;" vertex="1" parent="1">
          <mxGeometry x="130" y="-750" width="120" height="60" as="geometry" />
        </mxCell>
        <mxCell id="-6w1Tqqme-HWN3l_G5Sm-114" value="" style="endArrow=none;html=1;rounded=0;exitX=1;exitY=0.5;exitDx=0;exitDy=0;endFill=1;startFill=1;startArrow=classic;" edge="1" parent="1" source="-6w1Tqqme-HWN3l_G5Sm-75" target="-6w1Tqqme-HWN3l_G5Sm-113">
          <mxGeometry relative="1" as="geometry">
            <mxPoint x="40" y="-600" as="sourcePoint" />
            <mxPoint x="200" y="-600" as="targetPoint" />
          </mxGeometry>
        </mxCell>
        <mxCell id="-6w1Tqqme-HWN3l_G5Sm-118" value="&lt;u&gt;IdCliente&lt;/u&gt;" style="ellipse;whiteSpace=wrap;html=1;align=center;" vertex="1" parent="1">
          <mxGeometry x="-380" y="-840" width="100" height="40" as="geometry" />
        </mxCell>
        <mxCell id="-6w1Tqqme-HWN3l_G5Sm-119" value="" style="endArrow=none;html=1;rounded=0;exitX=1;exitY=0.5;exitDx=0;exitDy=0;entryX=0.431;entryY=-0.012;entryDx=0;entryDy=0;entryPerimeter=0;" edge="1" parent="1" source="-6w1Tqqme-HWN3l_G5Sm-118" target="-6w1Tqqme-HWN3l_G5Sm-75">
          <mxGeometry relative="1" as="geometry">
            <mxPoint x="-380" y="-780" as="sourcePoint" />
            <mxPoint x="-290" y="-780" as="targetPoint" />
          </mxGeometry>
        </mxCell>
        <mxCell id="-6w1Tqqme-HWN3l_G5Sm-122" value="Método Pago" style="ellipse;shape=doubleEllipse;whiteSpace=wrap;html=1;" vertex="1" parent="1">
          <mxGeometry x="-420" y="-431.5" width="100" height="60" as="geometry" />
        </mxCell>
        <mxCell id="-6w1Tqqme-HWN3l_G5Sm-149" value="Poseer" style="html=1;whiteSpace=wrap;aspect=fixed;shape=isoRectangle;" vertex="1" parent="1">
          <mxGeometry x="20" y="-531.75" width="116.67" height="70" as="geometry" />
        </mxCell>
        <mxCell id="-6w1Tqqme-HWN3l_G5Sm-152" value="Tarjeta" style="whiteSpace=wrap;html=1;align=center;" vertex="1" parent="1">
          <mxGeometry x="38.329999999999984" y="-421.75" width="100" height="40" as="geometry" />
        </mxCell>
        <mxCell id="-6w1Tqqme-HWN3l_G5Sm-153" value="&lt;u&gt;NúmeroTarjeta&lt;/u&gt;" style="ellipse;whiteSpace=wrap;html=1;align=center;" vertex="1" parent="1">
          <mxGeometry x="-80" y="-421.75" width="100" height="40" as="geometry" />
        </mxCell>
        <mxCell id="-6w1Tqqme-HWN3l_G5Sm-154" value="CVV" style="ellipse;whiteSpace=wrap;html=1;align=center;" vertex="1" parent="1">
          <mxGeometry x="30" y="-340.25" width="100" height="40" as="geometry" />
        </mxCell>
        <mxCell id="-6w1Tqqme-HWN3l_G5Sm-155" value="vencimiento" style="ellipse;whiteSpace=wrap;html=1;align=center;" vertex="1" parent="1">
          <mxGeometry x="170" y="-421.75" width="100" height="40" as="geometry" />
        </mxCell>
        <mxCell id="-6w1Tqqme-HWN3l_G5Sm-157" value="" style="endArrow=none;html=1;rounded=0;entryX=0;entryY=0.5;entryDx=0;entryDy=0;exitX=1;exitY=0.5;exitDx=0;exitDy=0;" edge="1" parent="1" source="-6w1Tqqme-HWN3l_G5Sm-152" target="-6w1Tqqme-HWN3l_G5Sm-155">
          <mxGeometry width="50" height="50" relative="1" as="geometry">
            <mxPoint x="130" y="-395.25" as="sourcePoint" />
            <mxPoint x="180" y="-445.25" as="targetPoint" />
          </mxGeometry>
        </mxCell>
        <mxCell id="-6w1Tqqme-HWN3l_G5Sm-160" value="" style="endArrow=none;html=1;rounded=0;" edge="1" parent="1" source="-6w1Tqqme-HWN3l_G5Sm-154">
          <mxGeometry width="50" height="50" relative="1" as="geometry">
            <mxPoint x="90" y="-370.25" as="sourcePoint" />
            <mxPoint x="80" y="-380.25" as="targetPoint" />
          </mxGeometry>
        </mxCell>
        <mxCell id="-6w1Tqqme-HWN3l_G5Sm-161" value="" style="endArrow=none;html=1;rounded=0;exitX=1;exitY=0.5;exitDx=0;exitDy=0;entryX=0;entryY=0.5;entryDx=0;entryDy=0;" edge="1" parent="1" source="-6w1Tqqme-HWN3l_G5Sm-153" target="-6w1Tqqme-HWN3l_G5Sm-152">
          <mxGeometry width="50" height="50" relative="1" as="geometry">
            <mxPoint x="90" y="-370.25" as="sourcePoint" />
            <mxPoint x="140" y="-420.25" as="targetPoint" />
          </mxGeometry>
        </mxCell>
        <mxCell id="-6w1Tqqme-HWN3l_G5Sm-170" value="" style="endArrow=classic;html=1;rounded=0;entryX=1;entryY=0.5;entryDx=0;entryDy=0;exitX=-0.022;exitY=0.493;exitDx=0;exitDy=0;exitPerimeter=0;shape=link;" edge="1" parent="1" source="-6w1Tqqme-HWN3l_G5Sm-149" target="-6w1Tqqme-HWN3l_G5Sm-169">
          <mxGeometry width="50" height="50" relative="1" as="geometry">
            <mxPoint x="17" y="-497.25" as="sourcePoint" />
            <mxPoint x="-30" y="-511.25" as="targetPoint" />
          </mxGeometry>
        </mxCell>
        <mxCell id="-6w1Tqqme-HWN3l_G5Sm-169" value="" style="triangle;whiteSpace=wrap;html=1;rotation=-178;fillStyle=solid;fillColor=#000000;" vertex="1" parent="1">
          <mxGeometry x="-30.230000000000004" y="-520" width="10.23" height="16.5" as="geometry" />
        </mxCell>
        <mxCell id="-6w1Tqqme-HWN3l_G5Sm-171" value="" style="endArrow=none;html=1;rounded=0;entryX=0.495;entryY=0.993;entryDx=0;entryDy=0;entryPerimeter=0;exitX=0.403;exitY=0.004;exitDx=0;exitDy=0;exitPerimeter=0;shape=link;" edge="1" parent="1" source="-6w1Tqqme-HWN3l_G5Sm-152" target="-6w1Tqqme-HWN3l_G5Sm-149">
          <mxGeometry width="50" height="50" relative="1" as="geometry">
            <mxPoint x="50" y="-450.25" as="sourcePoint" />
            <mxPoint x="100" y="-500.25" as="targetPoint" />
          </mxGeometry>
        </mxCell>
        <mxCell id="-6w1Tqqme-HWN3l_G5Sm-172" value="Ticket" style="shape=ext;margin=3;double=1;whiteSpace=wrap;html=1;align=center;" vertex="1" parent="1">
          <mxGeometry x="413" y="-740" width="100" height="40" as="geometry" />
        </mxCell>
        <mxCell id="-6w1Tqqme-HWN3l_G5Sm-173" value="Comprar" style="shape=rhombus;double=1;perimeter=rhombusPerimeter;whiteSpace=wrap;html=1;align=center;" vertex="1" parent="1">
          <mxGeometry x="130" y="-750" width="120" height="60" as="geometry" />
        </mxCell>
        <mxCell id="-6w1Tqqme-HWN3l_G5Sm-174" value="" style="endArrow=none;html=1;rounded=0;exitX=1;exitY=0.5;exitDx=0;exitDy=0;entryX=0;entryY=0.5;entryDx=0;entryDy=0;shape=link;" edge="1" parent="1" source="-6w1Tqqme-HWN3l_G5Sm-173" target="-6w1Tqqme-HWN3l_G5Sm-172">
          <mxGeometry relative="1" as="geometry">
            <mxPoint x="330" y="-610" as="sourcePoint" />
            <mxPoint x="490" y="-610" as="targetPoint" />
          </mxGeometry>
        </mxCell>
        <mxCell id="-6w1Tqqme-HWN3l_G5Sm-180" style="rounded=0;orthogonalLoop=1;jettySize=auto;html=1;exitX=0.5;exitY=1;exitDx=0;exitDy=0;strokeWidth=1;endArrow=none;startFill=0;entryX=0.25;entryY=0;entryDx=0;entryDy=0;" edge="1" parent="1" source="-6w1Tqqme-HWN3l_G5Sm-186" target="-6w1Tqqme-HWN3l_G5Sm-172">
          <mxGeometry relative="1" as="geometry">
            <mxPoint x="690" y="-749" as="sourcePoint" />
            <mxPoint x="890" y="-671.5" as="targetPoint" />
          </mxGeometry>
        </mxCell>
        <mxCell id="-6w1Tqqme-HWN3l_G5Sm-181" style="rounded=0;orthogonalLoop=1;jettySize=auto;html=1;exitX=0.5;exitY=0;exitDx=0;exitDy=0;entryX=0.478;entryY=0.925;entryDx=0;entryDy=0;endArrow=none;startFill=0;strokeWidth=1;entryPerimeter=0;" edge="1" parent="1" source="-6w1Tqqme-HWN3l_G5Sm-172" target="tVumx_9Os7SfNA7vHTWG-1">
          <mxGeometry relative="1" as="geometry">
            <mxPoint x="459.9999999999998" y="-820" as="targetPoint" />
          </mxGeometry>
        </mxCell>
        <mxCell id="-6w1Tqqme-HWN3l_G5Sm-186" value="&lt;font&gt;PrecioTotal&lt;/font&gt;" style="ellipse;whiteSpace=wrap;html=1;strokeWidth=1;dashed=1;" vertex="1" parent="1">
          <mxGeometry x="310" y="-820" width="80" height="32.5" as="geometry" />
        </mxCell>
        <mxCell id="-6w1Tqqme-HWN3l_G5Sm-235" value="Nombre" style="ellipse;whiteSpace=wrap;html=1;align=center;" vertex="1" parent="1">
          <mxGeometry x="1154" y="-492.25" width="100" height="40" as="geometry" />
        </mxCell>
        <mxCell id="-6w1Tqqme-HWN3l_G5Sm-236" value="Tipo" style="ellipse;whiteSpace=wrap;html=1;align=center;" vertex="1" parent="1">
          <mxGeometry x="1094" y="-542.25" width="100" height="40" as="geometry" />
        </mxCell>
        <mxCell id="-6w1Tqqme-HWN3l_G5Sm-238" value="Precio" style="ellipse;whiteSpace=wrap;html=1;align=center;" vertex="1" parent="1">
          <mxGeometry x="904" y="-572.25" width="100" height="40" as="geometry" />
        </mxCell>
        <mxCell id="-6w1Tqqme-HWN3l_G5Sm-239" value="Presentación" style="ellipse;whiteSpace=wrap;html=1;align=center;" vertex="1" parent="1">
          <mxGeometry x="814" y="-512.25" width="100" height="40" as="geometry" />
        </mxCell>
        <mxCell id="-6w1Tqqme-HWN3l_G5Sm-240" value="Descripción" style="ellipse;whiteSpace=wrap;html=1;align=center;" vertex="1" parent="1">
          <mxGeometry x="1014" y="-612.25" width="100" height="40" as="geometry" />
        </mxCell>
        <mxCell id="-6w1Tqqme-HWN3l_G5Sm-245" value="" style="endArrow=none;html=1;rounded=0;exitX=0;exitY=0.5;exitDx=0;exitDy=0;entryX=1;entryY=0.5;entryDx=0;entryDy=0;" edge="1" parent="1" source="-6w1Tqqme-HWN3l_G5Sm-235" target="ct3lFuq79epGu6hmztz1-1">
          <mxGeometry relative="1" as="geometry">
            <mxPoint x="964" y="-402.25" as="sourcePoint" />
            <mxPoint x="1114" y="-442.2500000000002" as="targetPoint" />
          </mxGeometry>
        </mxCell>
        <mxCell id="-6w1Tqqme-HWN3l_G5Sm-247" value="" style="endArrow=none;html=1;rounded=0;exitX=0.418;exitY=1.01;exitDx=0;exitDy=0;entryX=0.5;entryY=0;entryDx=0;entryDy=0;exitPerimeter=0;" edge="1" parent="1" source="-6w1Tqqme-HWN3l_G5Sm-236" target="ct3lFuq79epGu6hmztz1-1">
          <mxGeometry relative="1" as="geometry">
            <mxPoint x="1104" y="-422.25" as="sourcePoint" />
            <mxPoint x="1064" y="-462.2500000000002" as="targetPoint" />
          </mxGeometry>
        </mxCell>
        <mxCell id="-6w1Tqqme-HWN3l_G5Sm-248" value="" style="endArrow=none;html=1;rounded=0;exitX=0.5;exitY=1;exitDx=0;exitDy=0;entryX=0.5;entryY=0;entryDx=0;entryDy=0;" edge="1" parent="1" source="-6w1Tqqme-HWN3l_G5Sm-238" target="ct3lFuq79epGu6hmztz1-1">
          <mxGeometry relative="1" as="geometry">
            <mxPoint x="1104" y="-422.25" as="sourcePoint" />
            <mxPoint x="1064" y="-462.2500000000002" as="targetPoint" />
          </mxGeometry>
        </mxCell>
        <mxCell id="-6w1Tqqme-HWN3l_G5Sm-249" value="" style="endArrow=none;html=1;rounded=0;exitX=1;exitY=0.5;exitDx=0;exitDy=0;entryX=0.5;entryY=0;entryDx=0;entryDy=0;" edge="1" parent="1" source="-6w1Tqqme-HWN3l_G5Sm-239" target="ct3lFuq79epGu6hmztz1-1">
          <mxGeometry relative="1" as="geometry">
            <mxPoint x="1104" y="-422.25" as="sourcePoint" />
            <mxPoint x="1064" y="-462.2500000000002" as="targetPoint" />
          </mxGeometry>
        </mxCell>
        <mxCell id="-6w1Tqqme-HWN3l_G5Sm-250" value="" style="endArrow=none;html=1;rounded=0;exitX=0.5;exitY=1;exitDx=0;exitDy=0;entryX=0.5;entryY=0;entryDx=0;entryDy=0;" edge="1" parent="1" source="-6w1Tqqme-HWN3l_G5Sm-240" target="ct3lFuq79epGu6hmztz1-1">
          <mxGeometry relative="1" as="geometry">
            <mxPoint x="1104" y="-422.25" as="sourcePoint" />
            <mxPoint x="1064" y="-462.2500000000002" as="targetPoint" />
          </mxGeometry>
        </mxCell>
        <mxCell id="-6w1Tqqme-HWN3l_G5Sm-253" value="Nombre" style="ellipse;whiteSpace=wrap;html=1;align=center;" vertex="1" parent="1">
          <mxGeometry x="1454" y="-580.75" width="100" height="40" as="geometry" />
        </mxCell>
        <mxCell id="-6w1Tqqme-HWN3l_G5Sm-254" value="Tipo" style="ellipse;whiteSpace=wrap;html=1;align=center;" vertex="1" parent="1">
          <mxGeometry x="1554" y="-545.75" width="100" height="40" as="geometry" />
        </mxCell>
        <mxCell id="-6w1Tqqme-HWN3l_G5Sm-255" value="Precio" style="ellipse;whiteSpace=wrap;html=1;align=center;" vertex="1" parent="1">
          <mxGeometry x="1498" y="-414.75" width="100" height="40" as="geometry" />
        </mxCell>
        <mxCell id="-6w1Tqqme-HWN3l_G5Sm-256" value="Duración" style="ellipse;whiteSpace=wrap;html=1;align=center;" vertex="1" parent="1">
          <mxGeometry x="1374" y="-414.75" width="100" height="40" as="geometry" />
        </mxCell>
        <mxCell id="-6w1Tqqme-HWN3l_G5Sm-257" value="Descripción" style="ellipse;whiteSpace=wrap;html=1;align=center;" vertex="1" parent="1">
          <mxGeometry x="1554" y="-494.75" width="100" height="40" as="geometry" />
        </mxCell>
        <mxCell id="-6w1Tqqme-HWN3l_G5Sm-258" value="" style="endArrow=none;html=1;rounded=0;entryX=0.5;entryY=0;entryDx=0;entryDy=0;exitX=0.5;exitY=1;exitDx=0;exitDy=0;" edge="1" parent="1" source="-6w1Tqqme-HWN3l_G5Sm-253" target="ct3lFuq79epGu6hmztz1-2">
          <mxGeometry relative="1" as="geometry">
            <mxPoint x="1218" y="-475.75" as="sourcePoint" />
            <mxPoint x="1448" y="-505.75" as="targetPoint" />
          </mxGeometry>
        </mxCell>
        <mxCell id="-6w1Tqqme-HWN3l_G5Sm-259" value="" style="endArrow=none;html=1;rounded=0;entryX=1;entryY=0.5;entryDx=0;entryDy=0;exitX=0;exitY=0.5;exitDx=0;exitDy=0;" edge="1" parent="1" source="-6w1Tqqme-HWN3l_G5Sm-254" target="ct3lFuq79epGu6hmztz1-2">
          <mxGeometry relative="1" as="geometry">
            <mxPoint x="1574" y="-514.75" as="sourcePoint" />
            <mxPoint x="1498" y="-485.75" as="targetPoint" />
          </mxGeometry>
        </mxCell>
        <mxCell id="-6w1Tqqme-HWN3l_G5Sm-260" value="" style="endArrow=none;html=1;rounded=0;exitX=0.5;exitY=0;exitDx=0;exitDy=0;entryX=0.5;entryY=1;entryDx=0;entryDy=0;" edge="1" parent="1" source="-6w1Tqqme-HWN3l_G5Sm-256" target="ct3lFuq79epGu6hmztz1-2">
          <mxGeometry relative="1" as="geometry">
            <mxPoint x="1218" y="-475.75" as="sourcePoint" />
            <mxPoint x="1438.6999999999998" y="-466.06999999999994" as="targetPoint" />
          </mxGeometry>
        </mxCell>
        <mxCell id="-6w1Tqqme-HWN3l_G5Sm-261" value="" style="endArrow=none;html=1;rounded=0;exitX=0.5;exitY=0;exitDx=0;exitDy=0;entryX=0.5;entryY=1;entryDx=0;entryDy=0;" edge="1" parent="1" source="-6w1Tqqme-HWN3l_G5Sm-255" target="ct3lFuq79epGu6hmztz1-2">
          <mxGeometry relative="1" as="geometry">
            <mxPoint x="1218" y="-475.75" as="sourcePoint" />
            <mxPoint x="1448" y="-465.75" as="targetPoint" />
          </mxGeometry>
        </mxCell>
        <mxCell id="-6w1Tqqme-HWN3l_G5Sm-262" value="" style="endArrow=none;html=1;rounded=0;entryX=0;entryY=0.5;entryDx=0;entryDy=0;exitX=1;exitY=0.5;exitDx=0;exitDy=0;" edge="1" parent="1" source="ct3lFuq79epGu6hmztz1-2" target="-6w1Tqqme-HWN3l_G5Sm-257">
          <mxGeometry relative="1" as="geometry">
            <mxPoint x="1498" y="-485.75" as="sourcePoint" />
            <mxPoint x="1378" y="-325.75" as="targetPoint" />
          </mxGeometry>
        </mxCell>
        <mxCell id="-6w1Tqqme-HWN3l_G5Sm-263" value="Tener" style="shape=rhombus;perimeter=rhombusPerimeter;whiteSpace=wrap;html=1;align=center;" vertex="1" parent="1">
          <mxGeometry x="1004" y="-330.75" width="120" height="60" as="geometry" />
        </mxCell>
        <mxCell id="-6w1Tqqme-HWN3l_G5Sm-264" value="Stock" style="ellipse;whiteSpace=wrap;html=1;align=center;" vertex="1" parent="1">
          <mxGeometry x="1164" y="-320.75" width="100" height="40" as="geometry" />
        </mxCell>
        <mxCell id="-6w1Tqqme-HWN3l_G5Sm-265" value="" style="endArrow=none;html=1;rounded=0;exitX=1;exitY=0.5;exitDx=0;exitDy=0;entryX=0;entryY=0.5;entryDx=0;entryDy=0;" edge="1" parent="1" target="-6w1Tqqme-HWN3l_G5Sm-264">
          <mxGeometry relative="1" as="geometry">
            <mxPoint x="1123.9999999999995" y="-300.75" as="sourcePoint" />
            <mxPoint x="1954" y="78.25" as="targetPoint" />
          </mxGeometry>
        </mxCell>
        <mxCell id="-6w1Tqqme-HWN3l_G5Sm-267" value="" style="endArrow=none;html=1;rounded=0;exitX=1;exitY=0.5;exitDx=0;exitDy=0;entryX=0;entryY=0.5;entryDx=0;entryDy=0;" edge="1" parent="1" source="ct3lFuq79epGu6hmztz1-1" target="tVumx_9Os7SfNA7vHTWG-6">
          <mxGeometry relative="1" as="geometry">
            <mxPoint x="1114" y="-442.2500000000002" as="sourcePoint" />
            <mxPoint x="1164" y="-417.25" as="targetPoint" />
          </mxGeometry>
        </mxCell>
        <mxCell id="GuFHKISCWo-LDFKZwZ8M-18" style="edgeStyle=orthogonalEdgeStyle;rounded=0;orthogonalLoop=1;jettySize=auto;html=1;exitX=0.5;exitY=0;exitDx=0;exitDy=0;entryX=0;entryY=0.5;entryDx=0;entryDy=0;endArrow=none;startFill=0;shape=link;" edge="1" parent="1" source="-6w1Tqqme-HWN3l_G5Sm-269" target="ct3lFuq79epGu6hmztz1-2">
          <mxGeometry relative="1" as="geometry" />
        </mxCell>
        <mxCell id="-6w1Tqqme-HWN3l_G5Sm-269" value="Tener" style="shape=rhombus;perimeter=rhombusPerimeter;whiteSpace=wrap;html=1;align=center;" vertex="1" parent="1">
          <mxGeometry x="1304" y="-340.75" width="120" height="60" as="geometry" />
        </mxCell>
        <mxCell id="-6w1Tqqme-HWN3l_G5Sm-271" value="" style="endArrow=none;html=1;rounded=0;entryX=0.5;entryY=0;entryDx=0;entryDy=0;exitX=0.5;exitY=1;exitDx=0;exitDy=0;" edge="1" parent="1" source="tVumx_9Os7SfNA7vHTWG-5" target="ct3lFuq79epGu6hmztz1-2">
          <mxGeometry relative="1" as="geometry">
            <mxPoint x="1384" y="-555.75" as="sourcePoint" />
            <mxPoint x="1448" y="-505.75" as="targetPoint" />
          </mxGeometry>
        </mxCell>
        <mxCell id="-6w1Tqqme-HWN3l_G5Sm-273" value="Negocio" style="rounded=0;arcSize=10;whiteSpace=wrap;html=1;align=center;" vertex="1" parent="1">
          <mxGeometry x="1670" y="-60.25" width="100" height="40" as="geometry" />
        </mxCell>
        <mxCell id="-6w1Tqqme-HWN3l_G5Sm-274" value="Nombre" style="ellipse;whiteSpace=wrap;html=1;align=center;" vertex="1" parent="1">
          <mxGeometry x="1880" y="-200" width="100" height="40" as="geometry" />
        </mxCell>
        <mxCell id="-6w1Tqqme-HWN3l_G5Sm-275" value="Telefono" style="ellipse;shape=doubleEllipse;margin=3;whiteSpace=wrap;html=1;align=center;" vertex="1" parent="1">
          <mxGeometry x="1860" y="-109.25" width="100" height="40" as="geometry" />
        </mxCell>
        <mxCell id="-6w1Tqqme-HWN3l_G5Sm-276" value="Correo" style="ellipse;shape=doubleEllipse;margin=3;whiteSpace=wrap;html=1;align=center;" vertex="1" parent="1">
          <mxGeometry x="1860" y="-39.25" width="100" height="40" as="geometry" />
        </mxCell>
        <mxCell id="-6w1Tqqme-HWN3l_G5Sm-277" value="Red Social" style="ellipse;shape=doubleEllipse;margin=3;whiteSpace=wrap;html=1;align=center;" vertex="1" parent="1">
          <mxGeometry x="1860" y="30.75" width="100" height="40" as="geometry" />
        </mxCell>
        <mxCell id="-6w1Tqqme-HWN3l_G5Sm-278" value="Descripción" style="ellipse;whiteSpace=wrap;html=1;align=center;" vertex="1" parent="1">
          <mxGeometry x="1610" y="51.75" width="100" height="40" as="geometry" />
        </mxCell>
        <mxCell id="-6w1Tqqme-HWN3l_G5Sm-279" value="Rango Precio" style="ellipse;whiteSpace=wrap;html=1;align=center;" vertex="1" parent="1">
          <mxGeometry x="1730" y="51.75" width="100" height="40" as="geometry" />
        </mxCell>
        <mxCell id="-6w1Tqqme-HWN3l_G5Sm-280" value="" style="endArrow=none;html=1;rounded=0;exitX=1;exitY=0.5;exitDx=0;exitDy=0;entryX=0;entryY=0.5;entryDx=0;entryDy=0;" edge="1" parent="1" source="-6w1Tqqme-HWN3l_G5Sm-273" target="-6w1Tqqme-HWN3l_G5Sm-275">
          <mxGeometry relative="1" as="geometry">
            <mxPoint x="1560" y="101.75" as="sourcePoint" />
            <mxPoint x="1720" y="101.75" as="targetPoint" />
          </mxGeometry>
        </mxCell>
        <mxCell id="-6w1Tqqme-HWN3l_G5Sm-281" value="" style="endArrow=none;html=1;rounded=0;exitX=1;exitY=0.5;exitDx=0;exitDy=0;entryX=0;entryY=0.5;entryDx=0;entryDy=0;" edge="1" parent="1" source="-6w1Tqqme-HWN3l_G5Sm-273" target="-6w1Tqqme-HWN3l_G5Sm-277">
          <mxGeometry relative="1" as="geometry">
            <mxPoint x="1570" y="141.75" as="sourcePoint" />
            <mxPoint x="1730" y="141.75" as="targetPoint" />
          </mxGeometry>
        </mxCell>
        <mxCell id="-6w1Tqqme-HWN3l_G5Sm-282" value="" style="endArrow=none;html=1;rounded=0;exitX=0.5;exitY=0;exitDx=0;exitDy=0;entryX=0.5;entryY=1;entryDx=0;entryDy=0;" edge="1" parent="1" source="-6w1Tqqme-HWN3l_G5Sm-278" target="-6w1Tqqme-HWN3l_G5Sm-273">
          <mxGeometry relative="1" as="geometry">
            <mxPoint x="1640" y="191.75" as="sourcePoint" />
            <mxPoint x="1800" y="191.75" as="targetPoint" />
          </mxGeometry>
        </mxCell>
        <mxCell id="-6w1Tqqme-HWN3l_G5Sm-283" value="" style="endArrow=none;html=1;rounded=0;exitX=1;exitY=0.5;exitDx=0;exitDy=0;entryX=0;entryY=0.5;entryDx=0;entryDy=0;" edge="1" parent="1" source="-6w1Tqqme-HWN3l_G5Sm-273" target="-6w1Tqqme-HWN3l_G5Sm-276">
          <mxGeometry relative="1" as="geometry">
            <mxPoint x="1980" y="121.75" as="sourcePoint" />
            <mxPoint x="1850" y="-29.25" as="targetPoint" />
          </mxGeometry>
        </mxCell>
        <mxCell id="-6w1Tqqme-HWN3l_G5Sm-284" value="" style="endArrow=none;html=1;rounded=0;entryX=0.5;entryY=1;entryDx=0;entryDy=0;exitX=0.5;exitY=0;exitDx=0;exitDy=0;" edge="1" parent="1" source="-6w1Tqqme-HWN3l_G5Sm-279" target="-6w1Tqqme-HWN3l_G5Sm-273">
          <mxGeometry relative="1" as="geometry">
            <mxPoint x="1670" y="61.75" as="sourcePoint" />
            <mxPoint x="1730" y="-8.25" as="targetPoint" />
          </mxGeometry>
        </mxCell>
        <mxCell id="-6w1Tqqme-HWN3l_G5Sm-285" value="" style="endArrow=none;html=1;rounded=0;entryX=0.5;entryY=1;entryDx=0;entryDy=0;exitX=0.5;exitY=0;exitDx=0;exitDy=0;" edge="1" parent="1" source="-6w1Tqqme-HWN3l_G5Sm-287" target="-6w1Tqqme-HWN3l_G5Sm-279">
          <mxGeometry relative="1" as="geometry">
            <mxPoint x="1520" y="141.75" as="sourcePoint" />
            <mxPoint x="1680" y="130.88" as="targetPoint" />
          </mxGeometry>
        </mxCell>
        <mxCell id="-6w1Tqqme-HWN3l_G5Sm-286" value="" style="endArrow=none;html=1;rounded=0;entryX=0.5;entryY=1;entryDx=0;entryDy=0;exitX=0.5;exitY=0;exitDx=0;exitDy=0;" edge="1" parent="1" source="-6w1Tqqme-HWN3l_G5Sm-288" target="-6w1Tqqme-HWN3l_G5Sm-279">
          <mxGeometry relative="1" as="geometry">
            <mxPoint x="1600" y="111.75" as="sourcePoint" />
            <mxPoint x="1760" y="111.75" as="targetPoint" />
          </mxGeometry>
        </mxCell>
        <mxCell id="-6w1Tqqme-HWN3l_G5Sm-287" value="Precio Mínimo" style="ellipse;whiteSpace=wrap;html=1;align=center;" vertex="1" parent="1">
          <mxGeometry x="1710" y="141.75" width="100" height="40" as="geometry" />
        </mxCell>
        <mxCell id="-6w1Tqqme-HWN3l_G5Sm-288" value="Precio Máximo" style="ellipse;whiteSpace=wrap;html=1;align=center;" vertex="1" parent="1">
          <mxGeometry x="1830" y="141.75" width="100" height="40" as="geometry" />
        </mxCell>
        <mxCell id="-6w1Tqqme-HWN3l_G5Sm-289" value="" style="endArrow=none;html=1;rounded=0;exitX=0.217;exitY=0.961;exitDx=0;exitDy=0;entryX=1;entryY=0.5;entryDx=0;entryDy=0;exitPerimeter=0;" edge="1" parent="1" source="-6w1Tqqme-HWN3l_G5Sm-274" target="-6w1Tqqme-HWN3l_G5Sm-273">
          <mxGeometry relative="1" as="geometry">
            <mxPoint x="1520" y="-48.25" as="sourcePoint" />
            <mxPoint x="1680" y="-48.25" as="targetPoint" />
          </mxGeometry>
        </mxCell>
        <mxCell id="-6w1Tqqme-HWN3l_G5Sm-290" value="Id Negocio" style="ellipse;whiteSpace=wrap;html=1;align=center;fontStyle=4;" vertex="1" parent="1">
          <mxGeometry x="1760" y="-200" width="100" height="40" as="geometry" />
        </mxCell>
        <mxCell id="-6w1Tqqme-HWN3l_G5Sm-291" value="" style="endArrow=none;html=1;rounded=0;exitX=0.461;exitY=0.969;exitDx=0;exitDy=0;exitPerimeter=0;entryX=1;entryY=0.5;entryDx=0;entryDy=0;" edge="1" parent="1" source="-6w1Tqqme-HWN3l_G5Sm-290" target="-6w1Tqqme-HWN3l_G5Sm-273">
          <mxGeometry relative="1" as="geometry">
            <mxPoint x="1520" y="-68.25" as="sourcePoint" />
            <mxPoint x="1680" y="-68.25" as="targetPoint" />
          </mxGeometry>
        </mxCell>
        <mxCell id="-6w1Tqqme-HWN3l_G5Sm-310" value="" style="endArrow=none;html=1;rounded=0;entryX=0.5;entryY=1;entryDx=0;entryDy=0;exitX=0.5;exitY=0;exitDx=0;exitDy=0;fillColor=#dae8fc;strokeColor=#000000;strokeWidth=1;" edge="1" parent="1" source="-6w1Tqqme-HWN3l_G5Sm-273" target="-6w1Tqqme-HWN3l_G5Sm-269">
          <mxGeometry width="50" height="50" relative="1" as="geometry">
            <mxPoint x="1170" y="-180" as="sourcePoint" />
            <mxPoint x="1220" y="-230" as="targetPoint" />
          </mxGeometry>
        </mxCell>
        <mxCell id="-6w1Tqqme-HWN3l_G5Sm-311" style="rounded=0;orthogonalLoop=1;jettySize=auto;html=1;entryX=0.5;entryY=0;entryDx=0;entryDy=0;strokeWidth=1;endArrow=none;startFill=0;exitX=1;exitY=0.5;exitDx=0;exitDy=0;" edge="1" parent="1" source="-6w1Tqqme-HWN3l_G5Sm-313" target="-6w1Tqqme-HWN3l_G5Sm-316">
          <mxGeometry relative="1" as="geometry">
            <mxPoint x="808.9099999999999" y="65.5" as="targetPoint" />
            <mxPoint x="719" y="-42" as="sourcePoint" />
          </mxGeometry>
        </mxCell>
        <mxCell id="-6w1Tqqme-HWN3l_G5Sm-313" value="&lt;font&gt;d&lt;/font&gt;" style="triangle;whiteSpace=wrap;html=1;direction=south;strokeWidth=1;" vertex="1" parent="1">
          <mxGeometry x="950" y="-431" width="34" height="27.5" as="geometry" />
        </mxCell>
        <mxCell id="-6w1Tqqme-HWN3l_G5Sm-315" style="rounded=0;orthogonalLoop=1;jettySize=auto;html=1;exitX=0.5;exitY=1;exitDx=0;exitDy=0;entryX=0.5;entryY=0;entryDx=0;entryDy=0;strokeWidth=1;endArrow=none;startFill=0;" edge="1" parent="1" source="-6w1Tqqme-HWN3l_G5Sm-316" target="-6w1Tqqme-HWN3l_G5Sm-320">
          <mxGeometry relative="1" as="geometry" />
        </mxCell>
        <mxCell id="-6w1Tqqme-HWN3l_G5Sm-316" value="&lt;font&gt;Perecedero&lt;/font&gt;" style="rounded=0;whiteSpace=wrap;html=1;strokeWidth=1;" vertex="1" parent="1">
          <mxGeometry x="909" y="-386.5" width="116" height="35" as="geometry" />
        </mxCell>
        <mxCell id="-6w1Tqqme-HWN3l_G5Sm-318" style="rounded=0;orthogonalLoop=1;jettySize=auto;html=1;exitX=0.5;exitY=0;exitDx=0;exitDy=0;entryX=0.5;entryY=1;entryDx=0;entryDy=0;endArrow=none;startFill=0;strokeWidth=1;" edge="1" parent="1" source="-6w1Tqqme-HWN3l_G5Sm-319" target="-6w1Tqqme-HWN3l_G5Sm-316">
          <mxGeometry relative="1" as="geometry" />
        </mxCell>
        <mxCell id="-6w1Tqqme-HWN3l_G5Sm-319" value="&lt;font&gt;FechaPreparacion&lt;/font&gt;" style="ellipse;whiteSpace=wrap;html=1;strokeWidth=1;" vertex="1" parent="1">
          <mxGeometry x="802" y="-320.75" width="124" height="35" as="geometry" />
        </mxCell>
        <mxCell id="-6w1Tqqme-HWN3l_G5Sm-320" value="&lt;font&gt;FechaCaducidad&lt;/font&gt;" style="ellipse;whiteSpace=wrap;html=1;strokeWidth=1;" vertex="1" parent="1">
          <mxGeometry x="730" y="-370" width="120" height="48.5" as="geometry" />
        </mxCell>
        <mxCell id="-6w1Tqqme-HWN3l_G5Sm-323" value="" style="endArrow=none;html=1;rounded=0;entryX=0;entryY=0.25;entryDx=0;entryDy=0;exitX=0;exitY=0.5;exitDx=0;exitDy=0;" edge="1" parent="1" source="-6w1Tqqme-HWN3l_G5Sm-313" target="ct3lFuq79epGu6hmztz1-1">
          <mxGeometry width="50" height="50" relative="1" as="geometry">
            <mxPoint x="1040" y="-180" as="sourcePoint" />
            <mxPoint x="1014" y="-442.2500000000002" as="targetPoint" />
          </mxGeometry>
        </mxCell>
        <mxCell id="-6w1Tqqme-HWN3l_G5Sm-325" value="" style="endArrow=none;html=1;rounded=0;exitX=0.5;exitY=0;exitDx=0;exitDy=0;entryX=0.5;entryY=1;entryDx=0;entryDy=0;fillColor=#dae8fc;strokeColor=#000000;strokeWidth=1;" edge="1" parent="1" source="-6w1Tqqme-HWN3l_G5Sm-273" target="-6w1Tqqme-HWN3l_G5Sm-263">
          <mxGeometry width="50" height="50" relative="1" as="geometry">
            <mxPoint x="1040" y="-250" as="sourcePoint" />
            <mxPoint x="1090" y="-300" as="targetPoint" />
          </mxGeometry>
        </mxCell>
        <mxCell id="-6w1Tqqme-HWN3l_G5Sm-337" value="PrecioTotal" style="ellipse;whiteSpace=wrap;html=1;align=center;dashed=1;" vertex="1" parent="1">
          <mxGeometry x="613" y="118.5" width="100" height="40" as="geometry" />
        </mxCell>
        <mxCell id="-6w1Tqqme-HWN3l_G5Sm-339" value="" style="endArrow=none;html=1;rounded=0;entryX=-0.002;entryY=0.608;entryDx=0;entryDy=0;exitX=1;exitY=0.5;exitDx=0;exitDy=0;entryPerimeter=0;" edge="1" parent="1" source="-6w1Tqqme-HWN3l_G5Sm-337" target="-6w1Tqqme-HWN3l_G5Sm-340">
          <mxGeometry relative="1" as="geometry">
            <mxPoint x="500" y="234.5" as="sourcePoint" />
            <mxPoint x="660" y="234.5" as="targetPoint" />
          </mxGeometry>
        </mxCell>
        <mxCell id="oT9fkCrLm6WojQFZwirf-4" style="rounded=0;orthogonalLoop=1;jettySize=auto;html=1;exitX=0.25;exitY=1;exitDx=0;exitDy=0;endArrow=none;startFill=0;" edge="1" parent="1" source="-6w1Tqqme-HWN3l_G5Sm-340" target="oT9fkCrLm6WojQFZwirf-3">
          <mxGeometry relative="1" as="geometry" />
        </mxCell>
        <mxCell id="-6w1Tqqme-HWN3l_G5Sm-340" value="Estand" style="whiteSpace=wrap;html=1;align=center;" vertex="1" parent="1">
          <mxGeometry x="730" y="104.5" width="100" height="40" as="geometry" />
        </mxCell>
        <mxCell id="-6w1Tqqme-HWN3l_G5Sm-341" value="" style="endArrow=none;html=1;rounded=0;exitX=1;exitY=0.5;exitDx=0;exitDy=0;entryX=0.5;entryY=1;entryDx=0;entryDy=0;" edge="1" parent="1" source="-6w1Tqqme-HWN3l_G5Sm-340" target="-6w1Tqqme-HWN3l_G5Sm-343">
          <mxGeometry relative="1" as="geometry">
            <mxPoint x="990" y="204.5" as="sourcePoint" />
            <mxPoint x="930" y="74.5" as="targetPoint" />
          </mxGeometry>
        </mxCell>
        <mxCell id="-6w1Tqqme-HWN3l_G5Sm-343" value="Número" style="ellipse;whiteSpace=wrap;html=1;align=center;fontStyle=4;" vertex="1" parent="1">
          <mxGeometry x="840" y="50" width="100" height="40" as="geometry" />
        </mxCell>
        <mxCell id="-6w1Tqqme-HWN3l_G5Sm-358" value="&lt;font&gt;Precio&lt;/font&gt;" style="ellipse;whiteSpace=wrap;html=1;strokeWidth=1;fontSize=12;" vertex="1" parent="1">
          <mxGeometry x="613" y="61.75000000000003" width="90" height="20" as="geometry" />
        </mxCell>
        <mxCell id="-6w1Tqqme-HWN3l_G5Sm-380" value="" style="endArrow=none;html=1;rounded=0;entryX=0;entryY=0.388;entryDx=0;entryDy=0;entryPerimeter=0;exitX=0.5;exitY=1;exitDx=0;exitDy=0;" edge="1" parent="1" source="-6w1Tqqme-HWN3l_G5Sm-358" target="-6w1Tqqme-HWN3l_G5Sm-340">
          <mxGeometry width="50" height="50" relative="1" as="geometry">
            <mxPoint x="705" y="209.67000000000002" as="sourcePoint" />
            <mxPoint x="729.1500000000001" y="138.5000000000004" as="targetPoint" />
          </mxGeometry>
        </mxCell>
        <mxCell id="-6w1Tqqme-HWN3l_G5Sm-390" value="Bazar" style="whiteSpace=wrap;html=1;align=center;" vertex="1" parent="1">
          <mxGeometry x="513" y="-61.5" width="100" height="40" as="geometry" />
        </mxCell>
        <mxCell id="-6w1Tqqme-HWN3l_G5Sm-391" value="Ubicación" style="ellipse;whiteSpace=wrap;html=1;align=center;" vertex="1" parent="1">
          <mxGeometry x="280" y="-51.5" width="100" height="40" as="geometry" />
        </mxCell>
        <mxCell id="-6w1Tqqme-HWN3l_G5Sm-392" value="Calle" style="ellipse;whiteSpace=wrap;html=1;align=center;" vertex="1" parent="1">
          <mxGeometry x="102.90999999999998" y="-81.5" width="100" height="40" as="geometry" />
        </mxCell>
        <mxCell id="-6w1Tqqme-HWN3l_G5Sm-393" value="Colonia" style="ellipse;whiteSpace=wrap;html=1;align=center;" vertex="1" parent="1">
          <mxGeometry x="110" y="50" width="100" height="40" as="geometry" />
        </mxCell>
        <mxCell id="-6w1Tqqme-HWN3l_G5Sm-394" value="Estado" style="ellipse;whiteSpace=wrap;html=1;align=center;" vertex="1" parent="1">
          <mxGeometry x="110" y="98.5" width="100" height="40" as="geometry" />
        </mxCell>
        <mxCell id="-6w1Tqqme-HWN3l_G5Sm-396" value="" style="endArrow=none;html=1;rounded=0;exitX=1;exitY=0.5;exitDx=0;exitDy=0;entryX=0;entryY=0.5;entryDx=0;entryDy=0;" edge="1" parent="1" source="-6w1Tqqme-HWN3l_G5Sm-395" target="-6w1Tqqme-HWN3l_G5Sm-391">
          <mxGeometry relative="1" as="geometry">
            <mxPoint x="-20" y="98.5" as="sourcePoint" />
            <mxPoint x="140" y="98.5" as="targetPoint" />
          </mxGeometry>
        </mxCell>
        <mxCell id="-6w1Tqqme-HWN3l_G5Sm-397" value="" style="endArrow=none;html=1;rounded=0;exitX=1;exitY=0.5;exitDx=0;exitDy=0;entryX=0;entryY=0.5;entryDx=0;entryDy=0;" edge="1" parent="1" source="-6w1Tqqme-HWN3l_G5Sm-398" target="-6w1Tqqme-HWN3l_G5Sm-391">
          <mxGeometry relative="1" as="geometry">
            <mxPoint x="90" y="78.5" as="sourcePoint" />
            <mxPoint x="240" y="138.5" as="targetPoint" />
          </mxGeometry>
        </mxCell>
        <mxCell id="-6w1Tqqme-HWN3l_G5Sm-398" value="Número Exterior" style="ellipse;whiteSpace=wrap;html=1;align=center;" vertex="1" parent="1">
          <mxGeometry x="102.91" width="100" height="40" as="geometry" />
        </mxCell>
        <mxCell id="-6w1Tqqme-HWN3l_G5Sm-399" value="" style="endArrow=none;html=1;rounded=0;exitX=1;exitY=0.5;exitDx=0;exitDy=0;entryX=0;entryY=0.5;entryDx=0;entryDy=0;" edge="1" parent="1" source="-6w1Tqqme-HWN3l_G5Sm-395" target="-6w1Tqqme-HWN3l_G5Sm-391">
          <mxGeometry relative="1" as="geometry">
            <mxPoint x="90" y="148.5" as="sourcePoint" />
            <mxPoint x="250" y="148.5" as="targetPoint" />
          </mxGeometry>
        </mxCell>
        <mxCell id="-6w1Tqqme-HWN3l_G5Sm-400" value="" style="endArrow=none;html=1;rounded=0;entryX=0;entryY=0.5;entryDx=0;entryDy=0;exitX=1;exitY=0.5;exitDx=0;exitDy=0;" edge="1" parent="1" source="-6w1Tqqme-HWN3l_G5Sm-393" target="-6w1Tqqme-HWN3l_G5Sm-391">
          <mxGeometry relative="1" as="geometry">
            <mxPoint x="110" y="188.5" as="sourcePoint" />
            <mxPoint x="270" y="188.5" as="targetPoint" />
          </mxGeometry>
        </mxCell>
        <mxCell id="-6w1Tqqme-HWN3l_G5Sm-401" value="" style="endArrow=none;html=1;rounded=0;exitX=1;exitY=0.5;exitDx=0;exitDy=0;entryX=0;entryY=0.5;entryDx=0;entryDy=0;" edge="1" parent="1" source="-6w1Tqqme-HWN3l_G5Sm-394" target="-6w1Tqqme-HWN3l_G5Sm-391">
          <mxGeometry relative="1" as="geometry">
            <mxPoint x="30" y="138.5" as="sourcePoint" />
            <mxPoint x="120" y="78.5" as="targetPoint" />
          </mxGeometry>
        </mxCell>
        <mxCell id="-6w1Tqqme-HWN3l_G5Sm-402" value="Amenidades" style="ellipse;shape=doubleEllipse;margin=3;whiteSpace=wrap;html=1;align=center;" vertex="1" parent="1">
          <mxGeometry x="263.5" y="-0.5" width="100" height="40" as="geometry" />
        </mxCell>
        <mxCell id="-6w1Tqqme-HWN3l_G5Sm-403" value="" style="endArrow=none;html=1;rounded=0;entryX=0;entryY=0.5;entryDx=0;entryDy=0;exitX=1;exitY=0.5;exitDx=0;exitDy=0;" edge="1" parent="1" source="-6w1Tqqme-HWN3l_G5Sm-402" target="-6w1Tqqme-HWN3l_G5Sm-390">
          <mxGeometry relative="1" as="geometry">
            <mxPoint x="160" y="198.5" as="sourcePoint" />
            <mxPoint x="320" y="198.5" as="targetPoint" />
          </mxGeometry>
        </mxCell>
        <mxCell id="-6w1Tqqme-HWN3l_G5Sm-404" value="" style="endArrow=none;html=1;rounded=0;exitX=1;exitY=0.5;exitDx=0;exitDy=0;entryX=0;entryY=0.5;entryDx=0;entryDy=0;" edge="1" parent="1" source="-6w1Tqqme-HWN3l_G5Sm-391" target="-6w1Tqqme-HWN3l_G5Sm-390">
          <mxGeometry relative="1" as="geometry">
            <mxPoint x="330" y="158.5" as="sourcePoint" />
            <mxPoint x="490" y="158.5" as="targetPoint" />
          </mxGeometry>
        </mxCell>
        <mxCell id="-6w1Tqqme-HWN3l_G5Sm-405" value="Fecha Inicio" style="ellipse;whiteSpace=wrap;html=1;align=center;" vertex="1" parent="1">
          <mxGeometry x="370" y="-207.75" width="100" height="40" as="geometry" />
        </mxCell>
        <mxCell id="-6w1Tqqme-HWN3l_G5Sm-406" value="Fecha Termino" style="ellipse;whiteSpace=wrap;html=1;align=center;" vertex="1" parent="1">
          <mxGeometry x="270" y="-160" width="100" height="40" as="geometry" />
        </mxCell>
        <mxCell id="-6w1Tqqme-HWN3l_G5Sm-407" value="" style="endArrow=none;html=1;rounded=0;exitX=0.5;exitY=1;exitDx=0;exitDy=0;entryX=0;entryY=0.5;entryDx=0;entryDy=0;" edge="1" parent="1" source="-6w1Tqqme-HWN3l_G5Sm-405" target="-6w1Tqqme-HWN3l_G5Sm-390">
          <mxGeometry relative="1" as="geometry">
            <mxPoint x="280" y="148.5" as="sourcePoint" />
            <mxPoint x="440" y="148.5" as="targetPoint" />
          </mxGeometry>
        </mxCell>
        <mxCell id="-6w1Tqqme-HWN3l_G5Sm-408" value="" style="endArrow=none;html=1;rounded=0;exitX=0;exitY=0.5;exitDx=0;exitDy=0;entryX=0.5;entryY=1;entryDx=0;entryDy=0;" edge="1" parent="1" source="-6w1Tqqme-HWN3l_G5Sm-390" target="-6w1Tqqme-HWN3l_G5Sm-406">
          <mxGeometry relative="1" as="geometry">
            <mxPoint x="290" y="268.5" as="sourcePoint" />
            <mxPoint x="450" y="268.5" as="targetPoint" />
          </mxGeometry>
        </mxCell>
        <mxCell id="-6w1Tqqme-HWN3l_G5Sm-409" value="Id Bazar" style="ellipse;whiteSpace=wrap;html=1;align=center;fontStyle=4;" vertex="1" parent="1">
          <mxGeometry x="390" y="78.5" width="100" height="40" as="geometry" />
        </mxCell>
        <mxCell id="-6w1Tqqme-HWN3l_G5Sm-410" value="" style="endArrow=none;html=1;rounded=0;exitX=0;exitY=0.5;exitDx=0;exitDy=0;" edge="1" parent="1" source="-6w1Tqqme-HWN3l_G5Sm-390" target="-6w1Tqqme-HWN3l_G5Sm-409">
          <mxGeometry relative="1" as="geometry">
            <mxPoint x="220" y="188.5" as="sourcePoint" />
            <mxPoint x="380" y="188.5" as="targetPoint" />
          </mxGeometry>
        </mxCell>
        <mxCell id="-6w1Tqqme-HWN3l_G5Sm-411" value="" style="endArrow=none;html=1;rounded=0;exitX=1;exitY=0.5;exitDx=0;exitDy=0;entryX=0;entryY=0.5;entryDx=0;entryDy=0;" edge="1" parent="1" source="-6w1Tqqme-HWN3l_G5Sm-412" target="-6w1Tqqme-HWN3l_G5Sm-390">
          <mxGeometry relative="1" as="geometry">
            <mxPoint x="170" y="188.5" as="sourcePoint" />
            <mxPoint x="330" y="188.5" as="targetPoint" />
          </mxGeometry>
        </mxCell>
        <mxCell id="-6w1Tqqme-HWN3l_G5Sm-412" value="Nombre" style="ellipse;whiteSpace=wrap;html=1;align=center;" vertex="1" parent="1">
          <mxGeometry x="313" y="38.5" width="100" height="40" as="geometry" />
        </mxCell>
        <mxCell id="-6w1Tqqme-HWN3l_G5Sm-413" value="Personal Organizador" style="whiteSpace=wrap;html=1;align=center;" vertex="1" parent="1">
          <mxGeometry x="513" y="328" width="100" height="40" as="geometry" />
        </mxCell>
        <mxCell id="-6w1Tqqme-HWN3l_G5Sm-414" value="Limpieza" style="whiteSpace=wrap;html=1;align=center;" vertex="1" parent="1">
          <mxGeometry x="513.0000000000001" y="565" width="100" height="40" as="geometry" />
        </mxCell>
        <mxCell id="-6w1Tqqme-HWN3l_G5Sm-415" value="Seguridad" style="whiteSpace=wrap;html=1;align=center;" vertex="1" parent="1">
          <mxGeometry x="364.00000000000006" y="568" width="100" height="40" as="geometry" />
        </mxCell>
        <mxCell id="-6w1Tqqme-HWN3l_G5Sm-416" value="Médico" style="whiteSpace=wrap;html=1;align=center;" vertex="1" parent="1">
          <mxGeometry x="630" y="568" width="100" height="40" as="geometry" />
        </mxCell>
        <mxCell id="-6w1Tqqme-HWN3l_G5Sm-417" value="RFC" style="ellipse;whiteSpace=wrap;html=1;align=center;fontStyle=4;" vertex="1" parent="1">
          <mxGeometry x="1088" y="118" width="100" height="40" as="geometry" />
        </mxCell>
        <mxCell id="hpBmHjgDCOJwJHqy9zQM-3" value="" style="edgeStyle=orthogonalEdgeStyle;rounded=0;orthogonalLoop=1;jettySize=auto;html=1;endArrow=none;startFill=0;" edge="1" parent="1" source="-6w1Tqqme-HWN3l_G5Sm-418">
          <mxGeometry relative="1" as="geometry">
            <mxPoint x="1201" y="208.5" as="targetPoint" />
          </mxGeometry>
        </mxCell>
        <mxCell id="-6w1Tqqme-HWN3l_G5Sm-418" value="Nombre Completo" style="ellipse;whiteSpace=wrap;html=1;align=center;" vertex="1" parent="1">
          <mxGeometry x="1047" y="188.5" width="100" height="40" as="geometry" />
        </mxCell>
        <mxCell id="-6w1Tqqme-HWN3l_G5Sm-419" value="Nombre" style="ellipse;whiteSpace=wrap;html=1;align=center;" vertex="1" parent="1">
          <mxGeometry x="940" y="253.5" width="100" height="40" as="geometry" />
        </mxCell>
        <mxCell id="hpBmHjgDCOJwJHqy9zQM-6" style="rounded=0;orthogonalLoop=1;jettySize=auto;html=1;exitX=0.5;exitY=0;exitDx=0;exitDy=0;entryX=0.5;entryY=1;entryDx=0;entryDy=0;endArrow=none;startFill=0;" edge="1" parent="1" source="-6w1Tqqme-HWN3l_G5Sm-420" target="-6w1Tqqme-HWN3l_G5Sm-418">
          <mxGeometry relative="1" as="geometry" />
        </mxCell>
        <mxCell id="-6w1Tqqme-HWN3l_G5Sm-420" value="Apellido Paterno" style="ellipse;whiteSpace=wrap;html=1;align=center;" vertex="1" parent="1">
          <mxGeometry x="1004" y="293.5" width="100" height="40" as="geometry" />
        </mxCell>
        <mxCell id="-6w1Tqqme-HWN3l_G5Sm-421" value="Apellido Materno" style="ellipse;whiteSpace=wrap;html=1;align=center;" vertex="1" parent="1">
          <mxGeometry x="1094" y="260" width="100" height="40" as="geometry" />
        </mxCell>
        <mxCell id="-6w1Tqqme-HWN3l_G5Sm-422" value="" style="endArrow=none;html=1;rounded=0;exitX=0.5;exitY=0;exitDx=0;exitDy=0;entryX=0;entryY=1;entryDx=0;entryDy=0;" edge="1" parent="1" source="-6w1Tqqme-HWN3l_G5Sm-419" target="-6w1Tqqme-HWN3l_G5Sm-418">
          <mxGeometry relative="1" as="geometry">
            <mxPoint x="1303.5499999999997" y="421.00000000000006" as="sourcePoint" />
            <mxPoint x="809.9053390593274" y="166.85786437626848" as="targetPoint" />
          </mxGeometry>
        </mxCell>
        <mxCell id="-6w1Tqqme-HWN3l_G5Sm-424" value="" style="endArrow=none;html=1;rounded=0;entryX=0.5;entryY=0;entryDx=0;entryDy=0;exitX=1;exitY=1;exitDx=0;exitDy=0;" edge="1" parent="1" source="-6w1Tqqme-HWN3l_G5Sm-418" target="-6w1Tqqme-HWN3l_G5Sm-421">
          <mxGeometry relative="1" as="geometry">
            <mxPoint x="1117" y="233.5" as="sourcePoint" />
            <mxPoint x="1563.5499999999997" y="411.00000000000006" as="targetPoint" />
          </mxGeometry>
        </mxCell>
        <mxCell id="-6w1Tqqme-HWN3l_G5Sm-425" value="Domicilio" style="ellipse;whiteSpace=wrap;html=1;align=center;" vertex="1" parent="1">
          <mxGeometry x="1434.0000000000002" y="188.5" width="100" height="40" as="geometry" />
        </mxCell>
        <mxCell id="-6w1Tqqme-HWN3l_G5Sm-426" value="Calle" style="ellipse;whiteSpace=wrap;html=1;align=center;" vertex="1" parent="1">
          <mxGeometry x="1354.0000000000005" y="276.62" width="100" height="40" as="geometry" />
        </mxCell>
        <mxCell id="oT9fkCrLm6WojQFZwirf-11" style="rounded=0;orthogonalLoop=1;jettySize=auto;html=1;exitX=0.5;exitY=0;exitDx=0;exitDy=0;endArrow=none;startFill=0;" edge="1" parent="1" source="-6w1Tqqme-HWN3l_G5Sm-427" target="-6w1Tqqme-HWN3l_G5Sm-425">
          <mxGeometry relative="1" as="geometry" />
        </mxCell>
        <mxCell id="-6w1Tqqme-HWN3l_G5Sm-427" value="Colonia" style="ellipse;whiteSpace=wrap;html=1;align=center;" vertex="1" parent="1">
          <mxGeometry x="1397.0000000000005" y="326.62" width="100" height="40" as="geometry" />
        </mxCell>
        <mxCell id="-6w1Tqqme-HWN3l_G5Sm-428" value="Estado" style="ellipse;whiteSpace=wrap;html=1;align=center;" vertex="1" parent="1">
          <mxGeometry x="1487.0000000000005" y="376.61999999999995" width="100" height="40" as="geometry" />
        </mxCell>
        <mxCell id="-6w1Tqqme-HWN3l_G5Sm-429" value="Número Interior" style="ellipse;whiteSpace=wrap;html=1;align=center;" vertex="1" parent="1">
          <mxGeometry x="1597.0000000000005" y="406.61999999999995" width="100" height="40" as="geometry" />
        </mxCell>
        <mxCell id="-6w1Tqqme-HWN3l_G5Sm-430" value="" style="endArrow=none;html=1;rounded=0;exitX=0.5;exitY=0;exitDx=0;exitDy=0;entryX=0;entryY=1;entryDx=0;entryDy=0;" edge="1" parent="1" source="-6w1Tqqme-HWN3l_G5Sm-426" target="-6w1Tqqme-HWN3l_G5Sm-425">
          <mxGeometry relative="1" as="geometry">
            <mxPoint x="1896.9099999999999" y="384.11999999999995" as="sourcePoint" />
            <mxPoint x="1356.91" y="414.11999999999995" as="targetPoint" />
          </mxGeometry>
        </mxCell>
        <mxCell id="-6w1Tqqme-HWN3l_G5Sm-431" value="" style="endArrow=none;html=1;rounded=0;exitX=0.5;exitY=0;exitDx=0;exitDy=0;entryX=1;entryY=0.5;entryDx=0;entryDy=0;" edge="1" parent="1" source="-6w1Tqqme-HWN3l_G5Sm-432" target="-6w1Tqqme-HWN3l_G5Sm-425">
          <mxGeometry relative="1" as="geometry">
            <mxPoint x="2006.9099999999999" y="364.12" as="sourcePoint" />
            <mxPoint x="2006.9099999999999" y="334.12" as="targetPoint" />
          </mxGeometry>
        </mxCell>
        <mxCell id="-6w1Tqqme-HWN3l_G5Sm-432" value="Número Exterior" style="ellipse;whiteSpace=wrap;html=1;align=center;" vertex="1" parent="1">
          <mxGeometry x="1544.0000000000002" y="246.62" width="100" height="40" as="geometry" />
        </mxCell>
        <mxCell id="-6w1Tqqme-HWN3l_G5Sm-433" value="" style="endArrow=none;html=1;rounded=0;exitX=0.415;exitY=0.025;exitDx=0;exitDy=0;entryX=0.616;entryY=1.004;entryDx=0;entryDy=0;entryPerimeter=0;exitPerimeter=0;" edge="1" parent="1" source="-6w1Tqqme-HWN3l_G5Sm-429" target="-6w1Tqqme-HWN3l_G5Sm-425">
          <mxGeometry relative="1" as="geometry">
            <mxPoint x="2006.9099999999999" y="434.11999999999995" as="sourcePoint" />
            <mxPoint x="2016.9099999999999" y="304.12" as="targetPoint" />
          </mxGeometry>
        </mxCell>
        <mxCell id="-6w1Tqqme-HWN3l_G5Sm-435" value="" style="endArrow=none;html=1;rounded=0;exitX=0.5;exitY=0;exitDx=0;exitDy=0;entryX=0.5;entryY=1;entryDx=0;entryDy=0;" edge="1" parent="1" source="-6w1Tqqme-HWN3l_G5Sm-428" target="-6w1Tqqme-HWN3l_G5Sm-425">
          <mxGeometry relative="1" as="geometry">
            <mxPoint x="1521.0899999999997" y="538.1200000000003" as="sourcePoint" />
            <mxPoint x="1634.00000000001" y="246.62" as="targetPoint" />
          </mxGeometry>
        </mxCell>
        <mxCell id="-6w1Tqqme-HWN3l_G5Sm-436" value="Teléfono" style="ellipse;shape=doubleEllipse;margin=3;whiteSpace=wrap;html=1;align=center;" vertex="1" parent="1">
          <mxGeometry x="1304" y="80" width="100" height="40" as="geometry" />
        </mxCell>
        <mxCell id="-6w1Tqqme-HWN3l_G5Sm-437" value="Correo" style="ellipse;shape=doubleEllipse;margin=3;whiteSpace=wrap;html=1;align=center;" vertex="1" parent="1">
          <mxGeometry x="1344" y="135" width="100" height="40" as="geometry" />
        </mxCell>
        <mxCell id="-6w1Tqqme-HWN3l_G5Sm-438" value="Salario" style="ellipse;whiteSpace=wrap;html=1;align=center;" vertex="1" parent="1">
          <mxGeometry x="190.00000000000006" y="373" width="100" height="40" as="geometry" />
        </mxCell>
        <mxCell id="-6w1Tqqme-HWN3l_G5Sm-441" value="" style="endArrow=none;html=1;rounded=0;exitX=0.25;exitY=0;exitDx=0;exitDy=0;entryX=0.5;entryY=1;entryDx=0;entryDy=0;" edge="1" parent="1" source="hpBmHjgDCOJwJHqy9zQM-1" target="-6w1Tqqme-HWN3l_G5Sm-417">
          <mxGeometry relative="1" as="geometry">
            <mxPoint x="1041" y="188.5" as="sourcePoint" />
            <mxPoint x="670.9100000000001" y="606" as="targetPoint" />
          </mxGeometry>
        </mxCell>
        <mxCell id="-6w1Tqqme-HWN3l_G5Sm-444" value="" style="endArrow=none;html=1;rounded=0;exitX=1;exitY=0.5;exitDx=0;exitDy=0;entryX=0;entryY=0.5;entryDx=0;entryDy=0;" edge="1" parent="1" source="-6w1Tqqme-HWN3l_G5Sm-453" target="-6w1Tqqme-HWN3l_G5Sm-413">
          <mxGeometry relative="1" as="geometry">
            <mxPoint x="-37.090000000000614" y="795.5000000000005" as="sourcePoint" />
            <mxPoint x="72.91000000000007" y="805.5" as="targetPoint" />
          </mxGeometry>
        </mxCell>
        <mxCell id="-6w1Tqqme-HWN3l_G5Sm-445" value="" style="endArrow=none;html=1;rounded=0;exitX=1;exitY=0.5;exitDx=0;exitDy=0;entryX=0;entryY=0.75;entryDx=0;entryDy=0;" edge="1" parent="1" source="-6w1Tqqme-HWN3l_G5Sm-438" target="-6w1Tqqme-HWN3l_G5Sm-413">
          <mxGeometry relative="1" as="geometry">
            <mxPoint x="-87.08999999999993" y="805.5" as="sourcePoint" />
            <mxPoint x="72.91000000000007" y="805.5" as="targetPoint" />
          </mxGeometry>
        </mxCell>
        <mxCell id="oT9fkCrLm6WojQFZwirf-16" value="" style="rounded=0;orthogonalLoop=1;jettySize=auto;html=1;shape=link;entryX=0.5;entryY=1;entryDx=0;entryDy=0;exitX=0;exitY=0.5;exitDx=0;exitDy=0;" edge="1" parent="1" source="-6w1Tqqme-HWN3l_G5Sm-446" target="-6w1Tqqme-HWN3l_G5Sm-413">
          <mxGeometry relative="1" as="geometry" />
        </mxCell>
        <mxCell id="-6w1Tqqme-HWN3l_G5Sm-446" value="d" style="triangle;whiteSpace=wrap;html=1;direction=south;" vertex="1" parent="1">
          <mxGeometry x="523.0000000000001" y="430" width="80" height="60" as="geometry" />
        </mxCell>
        <mxCell id="-6w1Tqqme-HWN3l_G5Sm-448" value="" style="endArrow=none;html=1;rounded=0;exitX=0.5;exitY=0;exitDx=0;exitDy=0;entryX=1;entryY=0.5;entryDx=0;entryDy=0;" edge="1" parent="1" source="-6w1Tqqme-HWN3l_G5Sm-414" target="-6w1Tqqme-HWN3l_G5Sm-446">
          <mxGeometry relative="1" as="geometry">
            <mxPoint x="391.4500000000001" y="965.5" as="sourcePoint" />
            <mxPoint x="551.45" y="965.5" as="targetPoint" />
          </mxGeometry>
        </mxCell>
        <mxCell id="-6w1Tqqme-HWN3l_G5Sm-449" value="" style="endArrow=none;html=1;rounded=0;entryX=0.5;entryY=0;entryDx=0;entryDy=0;exitX=1;exitY=0.5;exitDx=0;exitDy=0;" edge="1" parent="1" source="-6w1Tqqme-HWN3l_G5Sm-446" target="-6w1Tqqme-HWN3l_G5Sm-415">
          <mxGeometry relative="1" as="geometry">
            <mxPoint x="561.45" y="945.5" as="sourcePoint" />
            <mxPoint x="781.45" y="975.5" as="targetPoint" />
          </mxGeometry>
        </mxCell>
        <mxCell id="-6w1Tqqme-HWN3l_G5Sm-450" value="" style="endArrow=none;html=1;rounded=0;entryX=0.5;entryY=0;entryDx=0;entryDy=0;exitX=1;exitY=0.5;exitDx=0;exitDy=0;" edge="1" parent="1" source="-6w1Tqqme-HWN3l_G5Sm-446" target="-6w1Tqqme-HWN3l_G5Sm-416">
          <mxGeometry relative="1" as="geometry">
            <mxPoint x="668.54" y="648" as="sourcePoint" />
            <mxPoint x="801.45" y="965.5" as="targetPoint" />
          </mxGeometry>
        </mxCell>
        <mxCell id="-6w1Tqqme-HWN3l_G5Sm-452" value="Horario" style="ellipse;shape=doubleEllipse;margin=3;whiteSpace=wrap;html=1;align=center;" vertex="1" parent="1">
          <mxGeometry x="1195" y="50" width="100" height="40" as="geometry" />
        </mxCell>
        <mxCell id="-6w1Tqqme-HWN3l_G5Sm-453" value="Fecha de Asistencia" style="ellipse;shape=doubleEllipse;margin=3;whiteSpace=wrap;html=1;align=center;" vertex="1" parent="1">
          <mxGeometry x="210" y="318" width="100" height="40" as="geometry" />
        </mxCell>
        <mxCell id="-6w1Tqqme-HWN3l_G5Sm-454" value="" style="endArrow=block;html=1;rounded=0;entryX=0.5;entryY=1;entryDx=0;entryDy=0;exitX=0.5;exitY=0;exitDx=0;exitDy=0;fillColor=#dae8fc;strokeColor=#000000;endFill=1;" edge="1" parent="1" source="-6w1Tqqme-HWN3l_G5Sm-456" target="-6w1Tqqme-HWN3l_G5Sm-390">
          <mxGeometry relative="1" as="geometry">
            <mxPoint x="-110" y="357.5" as="sourcePoint" />
            <mxPoint x="50" y="357.5" as="targetPoint" />
          </mxGeometry>
        </mxCell>
        <mxCell id="-6w1Tqqme-HWN3l_G5Sm-456" value="Trabajar" style="shape=rhombus;perimeter=rhombusPerimeter;whiteSpace=wrap;html=1;align=center;" vertex="1" parent="1">
          <mxGeometry x="503" y="78.5" width="120" height="60" as="geometry" />
        </mxCell>
        <mxCell id="-6w1Tqqme-HWN3l_G5Sm-498" value="Modalidad" style="ellipse;whiteSpace=wrap;html=1;strokeWidth=1;gradientColor=default;fillColor=none;" vertex="1" parent="1">
          <mxGeometry x="122.91" y="-140" width="117.09" height="42.5" as="geometry" />
        </mxCell>
        <mxCell id="-6w1Tqqme-HWN3l_G5Sm-508" value="" style="endArrow=none;html=1;rounded=0;exitX=1;exitY=0.5;exitDx=0;exitDy=0;entryX=0;entryY=0.5;entryDx=0;entryDy=0;" edge="1" parent="1" source="-6w1Tqqme-HWN3l_G5Sm-392" target="-6w1Tqqme-HWN3l_G5Sm-391">
          <mxGeometry relative="1" as="geometry">
            <mxPoint x="-40" y="-31" as="sourcePoint" />
            <mxPoint x="280" y="-31" as="targetPoint" />
          </mxGeometry>
        </mxCell>
        <mxCell id="-6w1Tqqme-HWN3l_G5Sm-395" value="Número Interior" style="ellipse;whiteSpace=wrap;html=1;align=center;" vertex="1" parent="1">
          <mxGeometry x="102.91" y="-41.5" width="100" height="40" as="geometry" />
        </mxCell>
        <mxCell id="-6w1Tqqme-HWN3l_G5Sm-509" value="" style="endArrow=none;html=1;rounded=0;entryX=1;entryY=0.5;entryDx=0;entryDy=0;exitX=0;exitY=0.5;exitDx=0;exitDy=0;" edge="1" parent="1" source="-6w1Tqqme-HWN3l_G5Sm-391" target="-6w1Tqqme-HWN3l_G5Sm-498">
          <mxGeometry width="50" height="50" relative="1" as="geometry">
            <mxPoint x="170" y="110" as="sourcePoint" />
            <mxPoint x="220" y="60" as="targetPoint" />
          </mxGeometry>
        </mxCell>
        <mxCell id="-6w1Tqqme-HWN3l_G5Sm-510" value="" style="endArrow=none;html=1;rounded=0;entryX=0.5;entryY=1;entryDx=0;entryDy=0;exitX=0.5;exitY=0;exitDx=0;exitDy=0;shape=link;" edge="1" parent="1" source="-6w1Tqqme-HWN3l_G5Sm-413" target="-6w1Tqqme-HWN3l_G5Sm-456">
          <mxGeometry width="50" height="50" relative="1" as="geometry">
            <mxPoint x="370.00000000000006" y="338" as="sourcePoint" />
            <mxPoint x="543" y="266.5" as="targetPoint" />
          </mxGeometry>
        </mxCell>
        <mxCell id="oT9fkCrLm6WojQFZwirf-31" style="edgeStyle=orthogonalEdgeStyle;rounded=0;orthogonalLoop=1;jettySize=auto;html=1;exitX=1;exitY=0.5;exitDx=0;exitDy=0;entryX=0.5;entryY=0;entryDx=0;entryDy=0;endArrow=none;startFill=0;" edge="1" parent="1" source="-6w1Tqqme-HWN3l_G5Sm-525" target="oT9fkCrLm6WojQFZwirf-20">
          <mxGeometry relative="1" as="geometry">
            <mxPoint x="2050" y="500" as="targetPoint" />
            <Array as="points">
              <mxPoint x="2080" y="-730" />
              <mxPoint x="2080" y="500" />
              <mxPoint x="1265" y="500" />
            </Array>
          </mxGeometry>
        </mxCell>
        <mxCell id="-6w1Tqqme-HWN3l_G5Sm-525" value="Emprendedor" style="whiteSpace=wrap;html=1;align=center;" vertex="1" parent="1">
          <mxGeometry x="1904" y="-745" width="100" height="40" as="geometry" />
        </mxCell>
        <mxCell id="oT9fkCrLm6WojQFZwirf-26" style="rounded=0;orthogonalLoop=1;jettySize=auto;html=1;exitX=0.5;exitY=1;exitDx=0;exitDy=0;entryX=0.75;entryY=0;entryDx=0;entryDy=0;endArrow=none;startFill=0;" edge="1" parent="1" source="-6w1Tqqme-HWN3l_G5Sm-534" target="-6w1Tqqme-HWN3l_G5Sm-525">
          <mxGeometry relative="1" as="geometry" />
        </mxCell>
        <mxCell id="-6w1Tqqme-HWN3l_G5Sm-534" value="Fecha Nacimiento" style="ellipse;whiteSpace=wrap;html=1;align=center;" vertex="1" parent="1">
          <mxGeometry x="2014" y="-860" width="100" height="40" as="geometry" />
        </mxCell>
        <mxCell id="oT9fkCrLm6WojQFZwirf-25" style="rounded=0;orthogonalLoop=1;jettySize=auto;html=1;exitX=1;exitY=0.5;exitDx=0;exitDy=0;entryX=0.25;entryY=0;entryDx=0;entryDy=0;endArrow=none;startFill=0;" edge="1" parent="1" source="-6w1Tqqme-HWN3l_G5Sm-540" target="-6w1Tqqme-HWN3l_G5Sm-525">
          <mxGeometry relative="1" as="geometry" />
        </mxCell>
        <mxCell id="-6w1Tqqme-HWN3l_G5Sm-540" value="Genero" style="ellipse;whiteSpace=wrap;html=1;align=center;" vertex="1" parent="1">
          <mxGeometry x="1750" y="-830" width="100" height="40" as="geometry" />
        </mxCell>
        <mxCell id="Il4dN9PcGxDLoYz_9VDb-1" value="Tener" style="shape=rhombus;perimeter=rhombusPerimeter;whiteSpace=wrap;html=1;align=center;" vertex="1" parent="1">
          <mxGeometry x="1894" y="-491" width="120" height="60" as="geometry" />
        </mxCell>
        <mxCell id="Il4dN9PcGxDLoYz_9VDb-2" value="" style="endArrow=none;html=1;rounded=0;exitX=0.5;exitY=0;exitDx=0;exitDy=0;entryX=0.5;entryY=1;entryDx=0;entryDy=0;shape=link;" edge="1" parent="1" source="Il4dN9PcGxDLoYz_9VDb-1" target="-6w1Tqqme-HWN3l_G5Sm-525">
          <mxGeometry width="50" height="50" relative="1" as="geometry">
            <mxPoint x="1180" y="-450" as="sourcePoint" />
            <mxPoint x="1230" y="-500" as="targetPoint" />
          </mxGeometry>
        </mxCell>
        <mxCell id="oT9fkCrLm6WojQFZwirf-24" value="" style="rounded=0;orthogonalLoop=1;jettySize=auto;html=1;endArrow=none;startFill=0;" edge="1" parent="1" source="Il4dN9PcGxDLoYz_9VDb-4" target="Il4dN9PcGxDLoYz_9VDb-1">
          <mxGeometry relative="1" as="geometry" />
        </mxCell>
        <mxCell id="Il4dN9PcGxDLoYz_9VDb-4" value="&lt;br&gt;&lt;div&gt;num&amp;nbsp; emprendedores&lt;/div&gt;" style="ellipse;whiteSpace=wrap;html=1;strokeWidth=2;dashed=1;" vertex="1" parent="1">
          <mxGeometry x="1740" y="-572.25" width="190" height="35" as="geometry" />
        </mxCell>
        <mxCell id="GuFHKISCWo-LDFKZwZ8M-19" style="edgeStyle=orthogonalEdgeStyle;rounded=0;orthogonalLoop=1;jettySize=auto;html=1;exitX=0.5;exitY=1;exitDx=0;exitDy=0;entryX=0.5;entryY=0;entryDx=0;entryDy=0;endArrow=none;startFill=0;shape=link;" edge="1" parent="1" source="ct3lFuq79epGu6hmztz1-1" target="-6w1Tqqme-HWN3l_G5Sm-263">
          <mxGeometry relative="1" as="geometry" />
        </mxCell>
        <mxCell id="ct3lFuq79epGu6hmztz1-1" value="Producto" style="shape=ext;margin=3;double=1;whiteSpace=wrap;html=1;align=center;" vertex="1" parent="1">
          <mxGeometry x="1014" y="-461.75" width="100" height="40" as="geometry" />
        </mxCell>
        <mxCell id="ct3lFuq79epGu6hmztz1-2" value="Servicio" style="shape=ext;margin=3;double=1;whiteSpace=wrap;html=1;align=center;" vertex="1" parent="1">
          <mxGeometry x="1398" y="-505.75" width="100" height="40" as="geometry" />
        </mxCell>
        <mxCell id="ct3lFuq79epGu6hmztz1-4" value="Cobrar" style="shape=rhombus;perimeter=rhombusPerimeter;whiteSpace=wrap;html=1;align=center;" vertex="1" parent="1">
          <mxGeometry x="870" y="-751.5" width="120" height="60" as="geometry" />
        </mxCell>
        <mxCell id="ct3lFuq79epGu6hmztz1-5" value="" style="endArrow=none;html=1;rounded=0;exitX=1;exitY=0.5;exitDx=0;exitDy=0;entryX=0;entryY=0.5;entryDx=0;entryDy=0;shape=link;" edge="1" parent="1" source="-6w1Tqqme-HWN3l_G5Sm-172" target="ct3lFuq79epGu6hmztz1-4">
          <mxGeometry relative="1" as="geometry">
            <mxPoint x="620" y="-900" as="sourcePoint" />
            <mxPoint x="780" y="-900" as="targetPoint" />
          </mxGeometry>
        </mxCell>
        <mxCell id="ct3lFuq79epGu6hmztz1-7" value="Pagar" style="shape=rhombus;perimeter=rhombusPerimeter;whiteSpace=wrap;html=1;align=center;" vertex="1" parent="1">
          <mxGeometry x="500" y="-290" width="120" height="60" as="geometry" />
        </mxCell>
        <mxCell id="ct3lFuq79epGu6hmztz1-8" value="" style="endArrow=none;html=1;rounded=0;exitX=0.5;exitY=1;exitDx=0;exitDy=0;entryX=0.5;entryY=0;entryDx=0;entryDy=0;shape=link;" edge="1" parent="1" source="-6w1Tqqme-HWN3l_G5Sm-172" target="ct3lFuq79epGu6hmztz1-7">
          <mxGeometry relative="1" as="geometry">
            <mxPoint x="480" y="-260" as="sourcePoint" />
            <mxPoint x="640" y="-260" as="targetPoint" />
            <Array as="points">
              <mxPoint x="460" y="-460" />
              <mxPoint x="560" y="-460" />
            </Array>
          </mxGeometry>
        </mxCell>
        <mxCell id="ct3lFuq79epGu6hmztz1-9" value="" style="endArrow=classic;html=1;rounded=0;exitX=0.5;exitY=1;exitDx=0;exitDy=0;entryX=0.5;entryY=0;entryDx=0;entryDy=0;endFill=1;" edge="1" parent="1" source="ct3lFuq79epGu6hmztz1-7" target="-6w1Tqqme-HWN3l_G5Sm-390">
          <mxGeometry relative="1" as="geometry">
            <mxPoint x="480" y="-260" as="sourcePoint" />
            <mxPoint x="640" y="-260" as="targetPoint" />
          </mxGeometry>
        </mxCell>
        <mxCell id="ct3lFuq79epGu6hmztz1-11" value="Comisión" style="ellipse;whiteSpace=wrap;html=1;align=center;dashed=1;" vertex="1" parent="1">
          <mxGeometry x="400" y="-330.75" width="100" height="40" as="geometry" />
        </mxCell>
        <mxCell id="ct3lFuq79epGu6hmztz1-12" value="" style="endArrow=none;html=1;rounded=0;dashed=1;dashPattern=1 2;exitX=1;exitY=1;exitDx=0;exitDy=0;entryX=0;entryY=0.5;entryDx=0;entryDy=0;" edge="1" parent="1" source="ct3lFuq79epGu6hmztz1-11" target="ct3lFuq79epGu6hmztz1-7">
          <mxGeometry relative="1" as="geometry">
            <mxPoint x="570" y="-290" as="sourcePoint" />
            <mxPoint x="730" y="-290" as="targetPoint" />
          </mxGeometry>
        </mxCell>
        <mxCell id="ct3lFuq79epGu6hmztz1-13" value="" style="resizable=0;html=1;whiteSpace=wrap;align=right;verticalAlign=bottom;" connectable="0" vertex="1" parent="ct3lFuq79epGu6hmztz1-12">
          <mxGeometry x="1" relative="1" as="geometry" />
        </mxCell>
        <mxCell id="ct3lFuq79epGu6hmztz1-14" value="Vender" style="shape=rhombus;perimeter=rhombusPerimeter;whiteSpace=wrap;html=1;align=center;" vertex="1" parent="1">
          <mxGeometry x="610" y="-710" width="120" height="60" as="geometry" />
        </mxCell>
        <mxCell id="ct3lFuq79epGu6hmztz1-15" value="" style="endArrow=none;html=1;rounded=0;exitX=1;exitY=0.5;exitDx=0;exitDy=0;entryX=0;entryY=0.5;entryDx=0;entryDy=0;startArrow=none;startFill=0;shape=link;" edge="1" parent="1" source="-6w1Tqqme-HWN3l_G5Sm-172" target="ct3lFuq79epGu6hmztz1-14">
          <mxGeometry relative="1" as="geometry">
            <mxPoint x="530" y="-670" as="sourcePoint" />
            <mxPoint x="690" y="-670" as="targetPoint" />
          </mxGeometry>
        </mxCell>
        <mxCell id="ct3lFuq79epGu6hmztz1-16" value="" style="endArrow=none;html=1;rounded=0;entryX=0.5;entryY=1;entryDx=0;entryDy=0;exitX=0;exitY=0.25;exitDx=0;exitDy=0;edgeStyle=orthogonalEdgeStyle;startArrow=block;startFill=1;shape=link;" edge="1" parent="1" source="-6w1Tqqme-HWN3l_G5Sm-273" target="ct3lFuq79epGu6hmztz1-14">
          <mxGeometry relative="1" as="geometry">
            <mxPoint x="660" y="-600" as="sourcePoint" />
            <mxPoint x="690" y="-670" as="targetPoint" />
            <Array as="points">
              <mxPoint x="1620" y="-50" />
              <mxPoint x="1620" y="-80" />
              <mxPoint x="890" y="-80" />
              <mxPoint x="890" y="-240" />
              <mxPoint x="670" y="-240" />
              <mxPoint x="670" y="-642" />
            </Array>
          </mxGeometry>
        </mxCell>
        <mxCell id="oT9fkCrLm6WojQFZwirf-12" style="rounded=0;orthogonalLoop=1;jettySize=auto;html=1;entryX=0;entryY=0.5;entryDx=0;entryDy=0;endArrow=none;startFill=0;" edge="1" parent="1" source="hpBmHjgDCOJwJHqy9zQM-1" target="-6w1Tqqme-HWN3l_G5Sm-425">
          <mxGeometry relative="1" as="geometry" />
        </mxCell>
        <mxCell id="oT9fkCrLm6WojQFZwirf-13" style="rounded=0;orthogonalLoop=1;jettySize=auto;html=1;exitX=0.5;exitY=0;exitDx=0;exitDy=0;entryX=0.5;entryY=1;entryDx=0;entryDy=0;endArrow=none;startFill=0;" edge="1" parent="1" source="hpBmHjgDCOJwJHqy9zQM-1" target="-6w1Tqqme-HWN3l_G5Sm-452">
          <mxGeometry relative="1" as="geometry" />
        </mxCell>
        <mxCell id="oT9fkCrLm6WojQFZwirf-15" style="rounded=0;orthogonalLoop=1;jettySize=auto;html=1;exitX=1;exitY=0.25;exitDx=0;exitDy=0;entryX=0.5;entryY=1;entryDx=0;entryDy=0;endArrow=none;startFill=0;" edge="1" parent="1" source="hpBmHjgDCOJwJHqy9zQM-1" target="-6w1Tqqme-HWN3l_G5Sm-437">
          <mxGeometry relative="1" as="geometry" />
        </mxCell>
        <mxCell id="hpBmHjgDCOJwJHqy9zQM-1" value="Trabajador" style="whiteSpace=wrap;html=1;align=center;" vertex="1" parent="1">
          <mxGeometry x="1195" y="188.5" width="100" height="40" as="geometry" />
        </mxCell>
        <mxCell id="oT9fkCrLm6WojQFZwirf-3" value="Paquete" style="ellipse;whiteSpace=wrap;html=1;align=center;" vertex="1" parent="1">
          <mxGeometry x="670" y="181.75" width="100" height="40" as="geometry" />
        </mxCell>
        <mxCell id="oT9fkCrLm6WojQFZwirf-8" style="rounded=0;orthogonalLoop=1;jettySize=auto;html=1;exitX=0.75;exitY=1;exitDx=0;exitDy=0;endArrow=none;startFill=0;entryX=0.5;entryY=0;entryDx=0;entryDy=0;" edge="1" parent="1" source="-6w1Tqqme-HWN3l_G5Sm-340" target="oT9fkCrLm6WojQFZwirf-10">
          <mxGeometry relative="1" as="geometry">
            <mxPoint x="885" y="150" as="sourcePoint" />
            <mxPoint x="836.1230173589693" y="187.53571634318814" as="targetPoint" />
          </mxGeometry>
        </mxCell>
        <mxCell id="oT9fkCrLm6WojQFZwirf-10" value="Amenidad" style="ellipse;shape=doubleEllipse;margin=3;whiteSpace=wrap;html=1;align=center;" vertex="1" parent="1">
          <mxGeometry x="787" y="190" width="100" height="40" as="geometry" />
        </mxCell>
        <mxCell id="oT9fkCrLm6WojQFZwirf-14" style="rounded=0;orthogonalLoop=1;jettySize=auto;html=1;exitX=0.75;exitY=0;exitDx=0;exitDy=0;entryX=0;entryY=0.5;entryDx=0;entryDy=0;endArrow=none;startFill=0;" edge="1" parent="1" target="-6w1Tqqme-HWN3l_G5Sm-436">
          <mxGeometry relative="1" as="geometry">
            <mxPoint x="1274" y="188.5" as="sourcePoint" />
            <mxPoint x="1324" y="110" as="targetPoint" />
          </mxGeometry>
        </mxCell>
        <mxCell id="oT9fkCrLm6WojQFZwirf-19" value="" style="rounded=0;orthogonalLoop=1;jettySize=auto;html=1;shape=link;exitX=0;exitY=0.5;exitDx=0;exitDy=0;entryX=0.5;entryY=1;entryDx=0;entryDy=0;" edge="1" parent="1" source="oT9fkCrLm6WojQFZwirf-20" target="hpBmHjgDCOJwJHqy9zQM-1">
          <mxGeometry relative="1" as="geometry">
            <mxPoint x="1245" y="228.5" as="targetPoint" />
          </mxGeometry>
        </mxCell>
        <mxCell id="oT9fkCrLm6WojQFZwirf-21" style="rounded=0;orthogonalLoop=1;jettySize=auto;html=1;exitX=0.5;exitY=1;exitDx=0;exitDy=0;entryX=1;entryY=0.5;entryDx=0;entryDy=0;" edge="1" parent="1" source="oT9fkCrLm6WojQFZwirf-20" target="-6w1Tqqme-HWN3l_G5Sm-413">
          <mxGeometry relative="1" as="geometry">
            <mxPoint x="620" y="350" as="targetPoint" />
          </mxGeometry>
        </mxCell>
        <mxCell id="oT9fkCrLm6WojQFZwirf-20" value="d" style="triangle;whiteSpace=wrap;html=1;direction=south;" vertex="1" parent="1">
          <mxGeometry x="1205" y="318" width="80" height="60" as="geometry" />
        </mxCell>
        <mxCell id="GuFHKISCWo-LDFKZwZ8M-1" value="Agenda" style="shape=ext;margin=3;double=1;whiteSpace=wrap;html=1;align=center;" vertex="1" parent="1">
          <mxGeometry x="802" y="-69.25" width="100" height="40" as="geometry" />
        </mxCell>
        <mxCell id="GuFHKISCWo-LDFKZwZ8M-2" value="registrar" style="shape=rhombus;double=1;perimeter=rhombusPerimeter;whiteSpace=wrap;html=1;align=center;" vertex="1" parent="1">
          <mxGeometry x="1200" y="-30" width="120" height="60" as="geometry" />
        </mxCell>
        <mxCell id="GuFHKISCWo-LDFKZwZ8M-3" value="" style="endArrow=none;html=1;rounded=0;exitX=1;exitY=0.5;exitDx=0;exitDy=0;entryX=0;entryY=0.5;entryDx=0;entryDy=0;" edge="1" parent="1" source="GuFHKISCWo-LDFKZwZ8M-1" target="GuFHKISCWo-LDFKZwZ8M-2">
          <mxGeometry relative="1" as="geometry">
            <mxPoint x="910" as="sourcePoint" />
            <mxPoint x="1070" as="targetPoint" />
          </mxGeometry>
        </mxCell>
        <mxCell id="GuFHKISCWo-LDFKZwZ8M-4" value="" style="endArrow=none;html=1;rounded=0;exitX=1;exitY=0.5;exitDx=0;exitDy=0;entryX=0;entryY=0.75;entryDx=0;entryDy=0;" edge="1" parent="1" source="GuFHKISCWo-LDFKZwZ8M-2" target="-6w1Tqqme-HWN3l_G5Sm-273">
          <mxGeometry relative="1" as="geometry">
            <mxPoint x="1410" as="sourcePoint" />
            <mxPoint x="1570" as="targetPoint" />
          </mxGeometry>
        </mxCell>
        <mxCell id="GuFHKISCWo-LDFKZwZ8M-8" value="" style="endArrow=none;html=1;rounded=0;exitX=0.5;exitY=0;exitDx=0;exitDy=0;entryX=0.569;entryY=0.961;entryDx=0;entryDy=0;entryPerimeter=0;" edge="1" parent="1" source="GuFHKISCWo-LDFKZwZ8M-1">
          <mxGeometry relative="1" as="geometry">
            <mxPoint x="910" as="sourcePoint" />
            <mxPoint x="736.8999999999996" y="-161.55999999999995" as="targetPoint" />
          </mxGeometry>
        </mxCell>
        <mxCell id="GuFHKISCWo-LDFKZwZ8M-9" style="edgeStyle=orthogonalEdgeStyle;rounded=0;orthogonalLoop=1;jettySize=auto;html=1;exitX=0.5;exitY=1;exitDx=0;exitDy=0;entryX=0.5;entryY=0;entryDx=0;entryDy=0;" edge="1" parent="1" source="Il4dN9PcGxDLoYz_9VDb-1" target="-6w1Tqqme-HWN3l_G5Sm-273">
          <mxGeometry relative="1" as="geometry">
            <mxPoint x="1720" y="-130" as="targetPoint" />
          </mxGeometry>
        </mxCell>
        <mxCell id="GuFHKISCWo-LDFKZwZ8M-10" value="Reservar" style="shape=rhombus;perimeter=rhombusPerimeter;whiteSpace=wrap;html=1;align=center;" vertex="1" parent="1">
          <mxGeometry x="720" y="-1.5" width="120" height="60" as="geometry" />
        </mxCell>
        <mxCell id="GuFHKISCWo-LDFKZwZ8M-11" value="" style="endArrow=none;html=1;rounded=0;exitX=0.5;exitY=1;exitDx=0;exitDy=0;entryX=1;entryY=0;entryDx=0;entryDy=0;shape=link;" edge="1" parent="1" source="GuFHKISCWo-LDFKZwZ8M-1" target="GuFHKISCWo-LDFKZwZ8M-10">
          <mxGeometry relative="1" as="geometry">
            <mxPoint x="710" y="-40" as="sourcePoint" />
            <mxPoint x="870" y="-40" as="targetPoint" />
          </mxGeometry>
        </mxCell>
        <mxCell id="GuFHKISCWo-LDFKZwZ8M-12" value="" style="endArrow=none;html=1;rounded=0;entryX=0.5;entryY=0;entryDx=0;entryDy=0;exitX=0.5;exitY=1;exitDx=0;exitDy=0;shape=link;" edge="1" parent="1" source="GuFHKISCWo-LDFKZwZ8M-10" target="-6w1Tqqme-HWN3l_G5Sm-340">
          <mxGeometry relative="1" as="geometry">
            <mxPoint x="710" y="-40" as="sourcePoint" />
            <mxPoint x="870" y="-40" as="targetPoint" />
          </mxGeometry>
        </mxCell>
        <mxCell id="GuFHKISCWo-LDFKZwZ8M-14" value="Tener" style="shape=rhombus;perimeter=rhombusPerimeter;whiteSpace=wrap;html=1;align=center;" vertex="1" parent="1">
          <mxGeometry x="638" y="-129.25" width="120" height="60" as="geometry" />
        </mxCell>
        <mxCell id="AIRw4dvoLM_UzMA7wyED-2" value="" style="endArrow=classic;html=1;rounded=0;entryX=0;entryY=0.5;entryDx=0;entryDy=0;exitX=-0.022;exitY=0.493;exitDx=0;exitDy=0;exitPerimeter=0;shape=link;" edge="1" parent="1" source="AIRw4dvoLM_UzMA7wyED-3" target="GuFHKISCWo-LDFKZwZ8M-1">
          <mxGeometry width="50" height="50" relative="1" as="geometry">
            <mxPoint x="787.5148049279983" y="-36.82651475145917" as="sourcePoint" />
            <mxPoint x="740.5148049279983" y="-51.07651475145917" as="targetPoint" />
          </mxGeometry>
        </mxCell>
        <mxCell id="AIRw4dvoLM_UzMA7wyED-4" value="" style="endArrow=classic;html=1;rounded=0;entryX=0;entryY=0.5;entryDx=0;entryDy=0;exitX=1;exitY=1;exitDx=0;exitDy=0;shape=link;" edge="1" parent="1" source="GuFHKISCWo-LDFKZwZ8M-14" target="AIRw4dvoLM_UzMA7wyED-3">
          <mxGeometry width="50" height="50" relative="1" as="geometry">
            <mxPoint x="787.5148049279983" y="-36.82651475145917" as="sourcePoint" />
            <mxPoint x="802" y="-49" as="targetPoint" />
          </mxGeometry>
        </mxCell>
        <mxCell id="AIRw4dvoLM_UzMA7wyED-3" value="" style="triangle;whiteSpace=wrap;html=1;rotation=10;fillStyle=solid;fillColor=#000000;" vertex="1" parent="1">
          <mxGeometry x="791.7748049279983" y="-57.99651475145917" width="10.23" height="16.5" as="geometry" />
        </mxCell>
        <mxCell id="AIRw4dvoLM_UzMA7wyED-8" value="" style="endArrow=classic;html=1;rounded=0;entryX=1;entryY=0.5;entryDx=0;entryDy=0;exitX=0;exitY=1;exitDx=0;exitDy=0;shape=link;" edge="1" parent="1" source="GuFHKISCWo-LDFKZwZ8M-14" target="AIRw4dvoLM_UzMA7wyED-6">
          <mxGeometry width="50" height="50" relative="1" as="geometry">
            <mxPoint x="668" y="-84" as="sourcePoint" />
            <mxPoint x="613" y="-41" as="targetPoint" />
          </mxGeometry>
        </mxCell>
        <mxCell id="AIRw4dvoLM_UzMA7wyED-6" value="" style="triangle;whiteSpace=wrap;html=1;rotation=-210;fillStyle=solid;fillColor=#000000;" vertex="1" parent="1">
          <mxGeometry x="613.0048049279983" y="-55.74651475145917" width="10.23" height="16.5" as="geometry" />
        </mxCell>
        <mxCell id="AIRw4dvoLM_UzMA7wyED-10" value="" style="endArrow=none;html=1;rounded=0;exitX=1;exitY=0.5;exitDx=0;exitDy=0;shape=link;entryX=0;entryY=0.5;entryDx=0;entryDy=0;" edge="1" parent="1" source="ct3lFuq79epGu6hmztz1-4" target="AIRw4dvoLM_UzMA7wyED-9">
          <mxGeometry relative="1" as="geometry">
            <mxPoint x="990" y="-721" as="sourcePoint" />
            <mxPoint x="1830" y="-725" as="targetPoint" />
          </mxGeometry>
        </mxCell>
        <mxCell id="AIRw4dvoLM_UzMA7wyED-9" value="" style="triangle;whiteSpace=wrap;html=1;rotation=0;fillStyle=solid;fillColor=#000000;" vertex="1" parent="1">
          <mxGeometry x="1893.9997199403572" y="-733.2477904187784" width="10.23" height="16.5" as="geometry" />
        </mxCell>
        <mxCell id="tVumx_9Os7SfNA7vHTWG-1" value="&lt;span style=&quot;border-bottom: 1px dotted&quot;&gt;IdTicket&lt;/span&gt;" style="ellipse;whiteSpace=wrap;html=1;align=center;" vertex="1" parent="1">
          <mxGeometry x="413" y="-860" width="100" height="40" as="geometry" />
        </mxCell>
        <mxCell id="tVumx_9Os7SfNA7vHTWG-4" value="&lt;span style=&quot;border-bottom: 1px dotted&quot;&gt;Fecha Asistencia&lt;/span&gt;" style="ellipse;whiteSpace=wrap;html=1;align=center;" vertex="1" parent="1">
          <mxGeometry x="687" y="-200" width="100" height="40" as="geometry" />
        </mxCell>
        <mxCell id="tVumx_9Os7SfNA7vHTWG-5" value="&lt;span style=&quot;border-bottom: 1px dotted&quot;&gt;IdServicio&lt;/span&gt;" style="ellipse;whiteSpace=wrap;html=1;align=center;" vertex="1" parent="1">
          <mxGeometry x="1324" y="-604" width="100" height="40" as="geometry" />
        </mxCell>
        <mxCell id="tVumx_9Os7SfNA7vHTWG-6" value="&lt;span style=&quot;border-bottom: 1px dotted&quot;&gt;IdProducto&lt;/span&gt;" style="ellipse;whiteSpace=wrap;html=1;align=center;" vertex="1" parent="1">
          <mxGeometry x="1164" y="-437" width="100" height="40" as="geometry" />
        </mxCell>
        <mxCell id="tVumx_9Os7SfNA7vHTWG-7" value="" style="triangle;whiteSpace=wrap;html=1;rotation=0;fillStyle=solid;fillColor=#000000;" vertex="1" parent="1">
          <mxGeometry x="1658.8897199403573" y="-58.747790418778436" width="10.23" height="16.5" as="geometry" />
        </mxCell>
      </root>
    </mxGraphModel>
  </diagram>
  <diagram name="Copia de Page-1" id="m3m0CzzdFEr52c9Mib-s">
    <mxGraphModel grid="1" page="1" gridSize="10" guides="1" tooltips="1" connect="1" arrows="1" fold="1" pageScale="1" pageWidth="827" pageHeight="1169" math="0" shadow="0">
      <root>
        <mxCell id="Iwp3akC44AoRd3h4Wl3n-0" />
        <mxCell id="Iwp3akC44AoRd3h4Wl3n-1" parent="Iwp3akC44AoRd3h4Wl3n-0" />
        <mxCell id="Iwp3akC44AoRd3h4Wl3n-2" value="Cliente" style="whiteSpace=wrap;html=1;align=center;" vertex="1" parent="Iwp3akC44AoRd3h4Wl3n-1">
          <mxGeometry x="-240" y="-741.5" width="100" height="40" as="geometry" />
        </mxCell>
        <mxCell id="Iwp3akC44AoRd3h4Wl3n-3" value="Físico" style="whiteSpace=wrap;html=1;align=center;" vertex="1" parent="Iwp3akC44AoRd3h4Wl3n-1">
          <mxGeometry x="-360" y="-531.75" width="100" height="40" as="geometry" />
        </mxCell>
        <mxCell id="Iwp3akC44AoRd3h4Wl3n-4" value="Virtual" style="whiteSpace=wrap;html=1;align=center;" vertex="1" parent="Iwp3akC44AoRd3h4Wl3n-1">
          <mxGeometry x="-130" y="-531.75" width="100" height="40" as="geometry" />
        </mxCell>
        <mxCell id="Iwp3akC44AoRd3h4Wl3n-5" value="Nombre Completo" style="ellipse;whiteSpace=wrap;html=1;align=center;" vertex="1" parent="Iwp3akC44AoRd3h4Wl3n-1">
          <mxGeometry x="-410" y="-741.5" width="100" height="40" as="geometry" />
        </mxCell>
        <mxCell id="Iwp3akC44AoRd3h4Wl3n-6" value="Nombre" style="ellipse;whiteSpace=wrap;html=1;align=center;" vertex="1" parent="Iwp3akC44AoRd3h4Wl3n-1">
          <mxGeometry x="-600" y="-741.5" width="100" height="40" as="geometry" />
        </mxCell>
        <mxCell id="Iwp3akC44AoRd3h4Wl3n-7" value="Apellido Paterno" style="ellipse;whiteSpace=wrap;html=1;align=center;" vertex="1" parent="Iwp3akC44AoRd3h4Wl3n-1">
          <mxGeometry x="-600" y="-671.5" width="100" height="40" as="geometry" />
        </mxCell>
        <mxCell id="Iwp3akC44AoRd3h4Wl3n-8" value="Apellido Materno" style="ellipse;whiteSpace=wrap;html=1;align=center;" vertex="1" parent="Iwp3akC44AoRd3h4Wl3n-1">
          <mxGeometry x="-490" y="-621.5" width="100" height="40" as="geometry" />
        </mxCell>
        <mxCell id="Iwp3akC44AoRd3h4Wl3n-9" value="Domicilio de Entrega" style="ellipse;whiteSpace=wrap;html=1;align=center;" vertex="1" parent="Iwp3akC44AoRd3h4Wl3n-1">
          <mxGeometry x="-210" y="-441.75" width="100" height="40" as="geometry" />
        </mxCell>
        <mxCell id="Iwp3akC44AoRd3h4Wl3n-10" value="Calle" style="ellipse;whiteSpace=wrap;html=1;align=center;" vertex="1" parent="Iwp3akC44AoRd3h4Wl3n-1">
          <mxGeometry x="-330" y="-311.75" width="100" height="40" as="geometry" />
        </mxCell>
        <mxCell id="Iwp3akC44AoRd3h4Wl3n-11" value="Número Interior" style="ellipse;whiteSpace=wrap;html=1;align=center;" vertex="1" parent="Iwp3akC44AoRd3h4Wl3n-1">
          <mxGeometry x="-239" y="-247.75" width="100" height="40" as="geometry" />
        </mxCell>
        <mxCell id="Iwp3akC44AoRd3h4Wl3n-12" value="Número Exterior" style="ellipse;whiteSpace=wrap;html=1;align=center;" vertex="1" parent="Iwp3akC44AoRd3h4Wl3n-1">
          <mxGeometry x="-140" y="-211.75" width="100" height="40" as="geometry" />
        </mxCell>
        <mxCell id="Iwp3akC44AoRd3h4Wl3n-13" value="Colonia" style="ellipse;whiteSpace=wrap;html=1;align=center;" vertex="1" parent="Iwp3akC44AoRd3h4Wl3n-1">
          <mxGeometry x="-20" y="-207.75" width="100" height="40" as="geometry" />
        </mxCell>
        <mxCell id="Iwp3akC44AoRd3h4Wl3n-14" value="Estado" style="ellipse;whiteSpace=wrap;html=1;align=center;" vertex="1" parent="Iwp3akC44AoRd3h4Wl3n-1">
          <mxGeometry y="-287.75" width="100" height="40" as="geometry" />
        </mxCell>
        <mxCell id="Iwp3akC44AoRd3h4Wl3n-15" value="" style="endArrow=none;html=1;rounded=0;exitX=1;exitY=0.5;exitDx=0;exitDy=0;entryX=0;entryY=0.5;entryDx=0;entryDy=0;" edge="1" parent="Iwp3akC44AoRd3h4Wl3n-1" source="Iwp3akC44AoRd3h4Wl3n-6" target="Iwp3akC44AoRd3h4Wl3n-5">
          <mxGeometry relative="1" as="geometry">
            <mxPoint x="-200" y="-481.5" as="sourcePoint" />
            <mxPoint x="-40" y="-481.5" as="targetPoint" />
          </mxGeometry>
        </mxCell>
        <mxCell id="Iwp3akC44AoRd3h4Wl3n-16" value="" style="endArrow=none;html=1;rounded=0;exitX=1;exitY=0.5;exitDx=0;exitDy=0;entryX=0.5;entryY=1;entryDx=0;entryDy=0;" edge="1" parent="Iwp3akC44AoRd3h4Wl3n-1" source="Iwp3akC44AoRd3h4Wl3n-7" target="Iwp3akC44AoRd3h4Wl3n-5">
          <mxGeometry relative="1" as="geometry">
            <mxPoint x="-200" y="-481.5" as="sourcePoint" />
            <mxPoint x="-40" y="-481.5" as="targetPoint" />
          </mxGeometry>
        </mxCell>
        <mxCell id="Iwp3akC44AoRd3h4Wl3n-17" value="" style="endArrow=none;html=1;rounded=0;exitX=0.5;exitY=1;exitDx=0;exitDy=0;entryX=0.5;entryY=0;entryDx=0;entryDy=0;" edge="1" parent="Iwp3akC44AoRd3h4Wl3n-1" source="Iwp3akC44AoRd3h4Wl3n-5" target="Iwp3akC44AoRd3h4Wl3n-8">
          <mxGeometry relative="1" as="geometry">
            <mxPoint x="-200" y="-481.5" as="sourcePoint" />
            <mxPoint x="-40" y="-481.5" as="targetPoint" />
          </mxGeometry>
        </mxCell>
        <mxCell id="Iwp3akC44AoRd3h4Wl3n-18" value="" style="endArrow=none;html=1;rounded=0;exitX=0.5;exitY=0;exitDx=0;exitDy=0;entryX=0.5;entryY=1;entryDx=0;entryDy=0;" edge="1" parent="Iwp3akC44AoRd3h4Wl3n-1" source="Iwp3akC44AoRd3h4Wl3n-12" target="Iwp3akC44AoRd3h4Wl3n-9">
          <mxGeometry relative="1" as="geometry">
            <mxPoint x="-190" y="-291.75" as="sourcePoint" />
            <mxPoint x="-30" y="-291.75" as="targetPoint" />
          </mxGeometry>
        </mxCell>
        <mxCell id="Iwp3akC44AoRd3h4Wl3n-19" value="" style="endArrow=none;html=1;rounded=0;exitX=0.5;exitY=0;exitDx=0;exitDy=0;entryX=0.5;entryY=1;entryDx=0;entryDy=0;" edge="1" parent="Iwp3akC44AoRd3h4Wl3n-1" source="Iwp3akC44AoRd3h4Wl3n-10" target="Iwp3akC44AoRd3h4Wl3n-9">
          <mxGeometry relative="1" as="geometry">
            <mxPoint x="-190" y="-291.75" as="sourcePoint" />
            <mxPoint x="-30" y="-291.75" as="targetPoint" />
          </mxGeometry>
        </mxCell>
        <mxCell id="Iwp3akC44AoRd3h4Wl3n-20" value="" style="endArrow=none;html=1;rounded=0;exitX=0.5;exitY=0;exitDx=0;exitDy=0;entryX=0.5;entryY=1;entryDx=0;entryDy=0;" edge="1" parent="Iwp3akC44AoRd3h4Wl3n-1" source="Iwp3akC44AoRd3h4Wl3n-11" target="Iwp3akC44AoRd3h4Wl3n-9">
          <mxGeometry relative="1" as="geometry">
            <mxPoint x="-190" y="-291.75" as="sourcePoint" />
            <mxPoint x="-30" y="-291.75" as="targetPoint" />
          </mxGeometry>
        </mxCell>
        <mxCell id="Iwp3akC44AoRd3h4Wl3n-21" value="" style="endArrow=none;html=1;rounded=0;exitX=0.5;exitY=1;exitDx=0;exitDy=0;entryX=0.5;entryY=0;entryDx=0;entryDy=0;" edge="1" parent="Iwp3akC44AoRd3h4Wl3n-1" source="Iwp3akC44AoRd3h4Wl3n-9" target="Iwp3akC44AoRd3h4Wl3n-13">
          <mxGeometry relative="1" as="geometry">
            <mxPoint x="-190" y="-291.75" as="sourcePoint" />
            <mxPoint x="-30" y="-291.75" as="targetPoint" />
          </mxGeometry>
        </mxCell>
        <mxCell id="Iwp3akC44AoRd3h4Wl3n-22" value="" style="endArrow=none;html=1;rounded=0;exitX=0.5;exitY=1;exitDx=0;exitDy=0;entryX=0.5;entryY=0;entryDx=0;entryDy=0;" edge="1" parent="Iwp3akC44AoRd3h4Wl3n-1" source="Iwp3akC44AoRd3h4Wl3n-9" target="Iwp3akC44AoRd3h4Wl3n-14">
          <mxGeometry relative="1" as="geometry">
            <mxPoint x="-190" y="-291.75" as="sourcePoint" />
            <mxPoint x="-30" y="-291.75" as="targetPoint" />
          </mxGeometry>
        </mxCell>
        <mxCell id="Iwp3akC44AoRd3h4Wl3n-23" value="" style="endArrow=none;html=1;rounded=0;exitX=0.5;exitY=1;exitDx=0;exitDy=0;shape=link;" edge="1" parent="Iwp3akC44AoRd3h4Wl3n-1" source="Iwp3akC44AoRd3h4Wl3n-2" target="Iwp3akC44AoRd3h4Wl3n-25">
          <mxGeometry relative="1" as="geometry">
            <mxPoint x="-250" y="-611.5" as="sourcePoint" />
            <mxPoint x="-80" y="-631.5" as="targetPoint" />
          </mxGeometry>
        </mxCell>
        <mxCell id="Iwp3akC44AoRd3h4Wl3n-24" value="" style="endArrow=none;html=1;rounded=0;exitX=0.5;exitY=1;exitDx=0;exitDy=0;entryX=0.5;entryY=0;entryDx=0;entryDy=0;" edge="1" parent="Iwp3akC44AoRd3h4Wl3n-1" source="Iwp3akC44AoRd3h4Wl3n-4" target="Iwp3akC44AoRd3h4Wl3n-9">
          <mxGeometry relative="1" as="geometry">
            <mxPoint x="-190" y="-291.75" as="sourcePoint" />
            <mxPoint x="-30" y="-291.75" as="targetPoint" />
          </mxGeometry>
        </mxCell>
        <mxCell id="Iwp3akC44AoRd3h4Wl3n-25" value="O" style="triangle;whiteSpace=wrap;html=1;direction=south;" vertex="1" parent="Iwp3akC44AoRd3h4Wl3n-1">
          <mxGeometry x="-240" y="-641.75" width="80" height="60" as="geometry" />
        </mxCell>
        <mxCell id="Iwp3akC44AoRd3h4Wl3n-26" value="" style="endArrow=none;html=1;rounded=0;exitX=1;exitY=0.5;exitDx=0;exitDy=0;entryX=0;entryY=0.5;entryDx=0;entryDy=0;" edge="1" parent="Iwp3akC44AoRd3h4Wl3n-1" source="Iwp3akC44AoRd3h4Wl3n-5" target="Iwp3akC44AoRd3h4Wl3n-2">
          <mxGeometry relative="1" as="geometry">
            <mxPoint x="-400" y="-541.5" as="sourcePoint" />
            <mxPoint x="-240" y="-541.5" as="targetPoint" />
          </mxGeometry>
        </mxCell>
        <mxCell id="Iwp3akC44AoRd3h4Wl3n-27" value="" style="endArrow=none;html=1;rounded=0;exitX=0.5;exitY=0;exitDx=0;exitDy=0;entryX=1;entryY=0.5;entryDx=0;entryDy=0;" edge="1" parent="Iwp3akC44AoRd3h4Wl3n-1" source="Iwp3akC44AoRd3h4Wl3n-3" target="Iwp3akC44AoRd3h4Wl3n-25">
          <mxGeometry relative="1" as="geometry">
            <mxPoint x="-300" y="-391.75" as="sourcePoint" />
            <mxPoint x="-310" y="-581.75" as="targetPoint" />
          </mxGeometry>
        </mxCell>
        <mxCell id="Iwp3akC44AoRd3h4Wl3n-28" value="" style="endArrow=none;html=1;rounded=0;entryX=0.5;entryY=0;entryDx=0;entryDy=0;exitX=1;exitY=0.5;exitDx=0;exitDy=0;" edge="1" parent="Iwp3akC44AoRd3h4Wl3n-1" source="Iwp3akC44AoRd3h4Wl3n-25" target="Iwp3akC44AoRd3h4Wl3n-4">
          <mxGeometry relative="1" as="geometry">
            <mxPoint x="-10" y="-631.75" as="sourcePoint" />
            <mxPoint x="90" y="-581.75" as="targetPoint" />
          </mxGeometry>
        </mxCell>
        <mxCell id="Iwp3akC44AoRd3h4Wl3n-29" style="edgeStyle=orthogonalEdgeStyle;rounded=0;orthogonalLoop=1;jettySize=auto;html=1;exitX=0.5;exitY=1;exitDx=0;exitDy=0;" edge="1" parent="Iwp3akC44AoRd3h4Wl3n-1" source="Iwp3akC44AoRd3h4Wl3n-13" target="Iwp3akC44AoRd3h4Wl3n-13">
          <mxGeometry relative="1" as="geometry" />
        </mxCell>
        <mxCell id="Iwp3akC44AoRd3h4Wl3n-30" value="" style="endArrow=none;html=1;rounded=0;exitX=0.5;exitY=0;exitDx=0;exitDy=0;entryX=0.5;entryY=1;entryDx=0;entryDy=0;" edge="1" parent="Iwp3akC44AoRd3h4Wl3n-1" source="Iwp3akC44AoRd3h4Wl3n-35" target="Iwp3akC44AoRd3h4Wl3n-3">
          <mxGeometry relative="1" as="geometry">
            <mxPoint x="-360" y="-401.5" as="sourcePoint" />
            <mxPoint x="-350" y="-431.5" as="targetPoint" />
          </mxGeometry>
        </mxCell>
        <mxCell id="Iwp3akC44AoRd3h4Wl3n-31" value="Comprar" style="shape=rhombus;double=1;perimeter=rhombusPerimeter;whiteSpace=wrap;html=1;align=center;" vertex="1" parent="Iwp3akC44AoRd3h4Wl3n-1">
          <mxGeometry x="130" y="-750" width="120" height="60" as="geometry" />
        </mxCell>
        <mxCell id="Iwp3akC44AoRd3h4Wl3n-32" value="" style="endArrow=none;html=1;rounded=0;exitX=1;exitY=0.5;exitDx=0;exitDy=0;" edge="1" parent="Iwp3akC44AoRd3h4Wl3n-1" source="Iwp3akC44AoRd3h4Wl3n-2" target="Iwp3akC44AoRd3h4Wl3n-31">
          <mxGeometry relative="1" as="geometry">
            <mxPoint x="40" y="-600" as="sourcePoint" />
            <mxPoint x="200" y="-600" as="targetPoint" />
          </mxGeometry>
        </mxCell>
        <mxCell id="Iwp3akC44AoRd3h4Wl3n-33" value="&lt;u&gt;IdCliente&lt;/u&gt;" style="ellipse;whiteSpace=wrap;html=1;align=center;" vertex="1" parent="Iwp3akC44AoRd3h4Wl3n-1">
          <mxGeometry x="-550" y="-820" width="100" height="40" as="geometry" />
        </mxCell>
        <mxCell id="Iwp3akC44AoRd3h4Wl3n-34" value="" style="endArrow=none;html=1;rounded=0;exitX=1;exitY=0.5;exitDx=0;exitDy=0;entryX=0.431;entryY=-0.012;entryDx=0;entryDy=0;entryPerimeter=0;" edge="1" parent="Iwp3akC44AoRd3h4Wl3n-1" source="Iwp3akC44AoRd3h4Wl3n-33" target="Iwp3akC44AoRd3h4Wl3n-2">
          <mxGeometry relative="1" as="geometry">
            <mxPoint x="-380" y="-780" as="sourcePoint" />
            <mxPoint x="-290" y="-780" as="targetPoint" />
          </mxGeometry>
        </mxCell>
        <mxCell id="Iwp3akC44AoRd3h4Wl3n-35" value="Método Pago" style="ellipse;shape=doubleEllipse;whiteSpace=wrap;html=1;" vertex="1" parent="Iwp3akC44AoRd3h4Wl3n-1">
          <mxGeometry x="-420" y="-431.5" width="100" height="60" as="geometry" />
        </mxCell>
        <mxCell id="Iwp3akC44AoRd3h4Wl3n-36" value="Poseer" style="html=1;whiteSpace=wrap;aspect=fixed;shape=isoRectangle;" vertex="1" parent="Iwp3akC44AoRd3h4Wl3n-1">
          <mxGeometry x="20" y="-531.75" width="116.67" height="70" as="geometry" />
        </mxCell>
        <mxCell id="Iwp3akC44AoRd3h4Wl3n-37" value="Tarjeta" style="whiteSpace=wrap;html=1;align=center;" vertex="1" parent="Iwp3akC44AoRd3h4Wl3n-1">
          <mxGeometry x="38.329999999999984" y="-421.75" width="100" height="40" as="geometry" />
        </mxCell>
        <mxCell id="Iwp3akC44AoRd3h4Wl3n-38" value="&lt;u&gt;NúmeroTarjeta&lt;/u&gt;" style="ellipse;whiteSpace=wrap;html=1;align=center;" vertex="1" parent="Iwp3akC44AoRd3h4Wl3n-1">
          <mxGeometry x="-80" y="-421.75" width="100" height="40" as="geometry" />
        </mxCell>
        <mxCell id="Iwp3akC44AoRd3h4Wl3n-39" value="CVV" style="ellipse;whiteSpace=wrap;html=1;align=center;" vertex="1" parent="Iwp3akC44AoRd3h4Wl3n-1">
          <mxGeometry x="30" y="-340.25" width="100" height="40" as="geometry" />
        </mxCell>
        <mxCell id="Iwp3akC44AoRd3h4Wl3n-40" value="vencimiento" style="ellipse;whiteSpace=wrap;html=1;align=center;" vertex="1" parent="Iwp3akC44AoRd3h4Wl3n-1">
          <mxGeometry x="170" y="-421.75" width="100" height="40" as="geometry" />
        </mxCell>
        <mxCell id="Iwp3akC44AoRd3h4Wl3n-41" value="" style="endArrow=none;html=1;rounded=0;entryX=0;entryY=0.5;entryDx=0;entryDy=0;exitX=1;exitY=0.5;exitDx=0;exitDy=0;" edge="1" parent="Iwp3akC44AoRd3h4Wl3n-1" source="Iwp3akC44AoRd3h4Wl3n-37" target="Iwp3akC44AoRd3h4Wl3n-40">
          <mxGeometry width="50" height="50" relative="1" as="geometry">
            <mxPoint x="130" y="-395.25" as="sourcePoint" />
            <mxPoint x="180" y="-445.25" as="targetPoint" />
          </mxGeometry>
        </mxCell>
        <mxCell id="Iwp3akC44AoRd3h4Wl3n-42" value="" style="endArrow=none;html=1;rounded=0;" edge="1" parent="Iwp3akC44AoRd3h4Wl3n-1" source="Iwp3akC44AoRd3h4Wl3n-39">
          <mxGeometry width="50" height="50" relative="1" as="geometry">
            <mxPoint x="90" y="-370.25" as="sourcePoint" />
            <mxPoint x="80" y="-380.25" as="targetPoint" />
          </mxGeometry>
        </mxCell>
        <mxCell id="Iwp3akC44AoRd3h4Wl3n-43" value="" style="endArrow=none;html=1;rounded=0;exitX=1;exitY=0.5;exitDx=0;exitDy=0;entryX=0;entryY=0.5;entryDx=0;entryDy=0;" edge="1" parent="Iwp3akC44AoRd3h4Wl3n-1" source="Iwp3akC44AoRd3h4Wl3n-38" target="Iwp3akC44AoRd3h4Wl3n-37">
          <mxGeometry width="50" height="50" relative="1" as="geometry">
            <mxPoint x="90" y="-370.25" as="sourcePoint" />
            <mxPoint x="140" y="-420.25" as="targetPoint" />
          </mxGeometry>
        </mxCell>
        <mxCell id="Iwp3akC44AoRd3h4Wl3n-44" value="" style="endArrow=classic;html=1;rounded=0;entryX=1;entryY=0.5;entryDx=0;entryDy=0;exitX=-0.022;exitY=0.493;exitDx=0;exitDy=0;exitPerimeter=0;shape=link;" edge="1" parent="Iwp3akC44AoRd3h4Wl3n-1" source="Iwp3akC44AoRd3h4Wl3n-36" target="Iwp3akC44AoRd3h4Wl3n-45">
          <mxGeometry width="50" height="50" relative="1" as="geometry">
            <mxPoint x="17" y="-497.25" as="sourcePoint" />
            <mxPoint x="-30" y="-511.25" as="targetPoint" />
          </mxGeometry>
        </mxCell>
        <mxCell id="Iwp3akC44AoRd3h4Wl3n-45" value="" style="triangle;whiteSpace=wrap;html=1;rotation=-178;fillStyle=solid;fillColor=#000000;" vertex="1" parent="Iwp3akC44AoRd3h4Wl3n-1">
          <mxGeometry x="-30.230000000000004" y="-520" width="10.23" height="16.5" as="geometry" />
        </mxCell>
        <mxCell id="Iwp3akC44AoRd3h4Wl3n-46" value="" style="endArrow=none;html=1;rounded=0;entryX=0.495;entryY=0.993;entryDx=0;entryDy=0;entryPerimeter=0;exitX=0.403;exitY=0.004;exitDx=0;exitDy=0;exitPerimeter=0;shape=link;" edge="1" parent="Iwp3akC44AoRd3h4Wl3n-1" source="Iwp3akC44AoRd3h4Wl3n-37" target="Iwp3akC44AoRd3h4Wl3n-36">
          <mxGeometry width="50" height="50" relative="1" as="geometry">
            <mxPoint x="50" y="-450.25" as="sourcePoint" />
            <mxPoint x="100" y="-500.25" as="targetPoint" />
          </mxGeometry>
        </mxCell>
        <mxCell id="Iwp3akC44AoRd3h4Wl3n-47" value="Ticket" style="shape=ext;margin=3;double=1;whiteSpace=wrap;html=1;align=center;" vertex="1" parent="Iwp3akC44AoRd3h4Wl3n-1">
          <mxGeometry x="413" y="-740" width="100" height="40" as="geometry" />
        </mxCell>
        <mxCell id="Iwp3akC44AoRd3h4Wl3n-48" value="Comprar" style="shape=rhombus;double=1;perimeter=rhombusPerimeter;whiteSpace=wrap;html=1;align=center;" vertex="1" parent="Iwp3akC44AoRd3h4Wl3n-1">
          <mxGeometry x="130" y="-750" width="120" height="60" as="geometry" />
        </mxCell>
        <mxCell id="Iwp3akC44AoRd3h4Wl3n-49" value="" style="endArrow=none;html=1;rounded=0;exitX=1;exitY=0.5;exitDx=0;exitDy=0;entryX=0;entryY=0.5;entryDx=0;entryDy=0;shape=link;" edge="1" parent="Iwp3akC44AoRd3h4Wl3n-1" source="Iwp3akC44AoRd3h4Wl3n-48" target="Iwp3akC44AoRd3h4Wl3n-47">
          <mxGeometry relative="1" as="geometry">
            <mxPoint x="330" y="-610" as="sourcePoint" />
            <mxPoint x="490" y="-610" as="targetPoint" />
          </mxGeometry>
        </mxCell>
        <mxCell id="Iwp3akC44AoRd3h4Wl3n-50" style="rounded=0;orthogonalLoop=1;jettySize=auto;html=1;exitX=0.5;exitY=1;exitDx=0;exitDy=0;strokeWidth=1;endArrow=none;startFill=0;entryX=0.25;entryY=0;entryDx=0;entryDy=0;" edge="1" parent="Iwp3akC44AoRd3h4Wl3n-1" source="Iwp3akC44AoRd3h4Wl3n-52" target="Iwp3akC44AoRd3h4Wl3n-47">
          <mxGeometry relative="1" as="geometry">
            <mxPoint x="690" y="-749" as="sourcePoint" />
            <mxPoint x="890" y="-671.5" as="targetPoint" />
          </mxGeometry>
        </mxCell>
        <mxCell id="Iwp3akC44AoRd3h4Wl3n-51" style="rounded=0;orthogonalLoop=1;jettySize=auto;html=1;exitX=0.5;exitY=0;exitDx=0;exitDy=0;entryX=0.5;entryY=0;entryDx=0;entryDy=0;endArrow=none;startFill=0;strokeWidth=1;" edge="1" parent="Iwp3akC44AoRd3h4Wl3n-1" source="Iwp3akC44AoRd3h4Wl3n-47" target="Iwp3akC44AoRd3h4Wl3n-53">
          <mxGeometry relative="1" as="geometry">
            <mxPoint x="920" y="-237.5" as="targetPoint" />
          </mxGeometry>
        </mxCell>
        <mxCell id="Iwp3akC44AoRd3h4Wl3n-52" value="&lt;font&gt;PrecioTotal&lt;/font&gt;" style="ellipse;whiteSpace=wrap;html=1;strokeWidth=1;dashed=1;" vertex="1" parent="Iwp3akC44AoRd3h4Wl3n-1">
          <mxGeometry x="310" y="-820" width="80" height="32.5" as="geometry" />
        </mxCell>
        <mxCell id="Iwp3akC44AoRd3h4Wl3n-53" value="&lt;font&gt;&lt;u style=&quot;&quot;&gt;IdTicket&lt;/u&gt;&lt;/font&gt;" style="ellipse;whiteSpace=wrap;html=1;strokeWidth=1;" vertex="1" parent="Iwp3akC44AoRd3h4Wl3n-1">
          <mxGeometry x="410" y="-820" width="100" height="40" as="geometry" />
        </mxCell>
        <mxCell id="Iwp3akC44AoRd3h4Wl3n-54" value="Nombre" style="ellipse;whiteSpace=wrap;html=1;align=center;" vertex="1" parent="Iwp3akC44AoRd3h4Wl3n-1">
          <mxGeometry x="1154" y="-492.25" width="100" height="40" as="geometry" />
        </mxCell>
        <mxCell id="Iwp3akC44AoRd3h4Wl3n-55" value="Tipo" style="ellipse;whiteSpace=wrap;html=1;align=center;" vertex="1" parent="Iwp3akC44AoRd3h4Wl3n-1">
          <mxGeometry x="1094" y="-542.25" width="100" height="40" as="geometry" />
        </mxCell>
        <mxCell id="Iwp3akC44AoRd3h4Wl3n-56" value="Precio" style="ellipse;whiteSpace=wrap;html=1;align=center;" vertex="1" parent="Iwp3akC44AoRd3h4Wl3n-1">
          <mxGeometry x="904" y="-572.25" width="100" height="40" as="geometry" />
        </mxCell>
        <mxCell id="Iwp3akC44AoRd3h4Wl3n-57" value="Presentación" style="ellipse;whiteSpace=wrap;html=1;align=center;" vertex="1" parent="Iwp3akC44AoRd3h4Wl3n-1">
          <mxGeometry x="814" y="-512.25" width="100" height="40" as="geometry" />
        </mxCell>
        <mxCell id="Iwp3akC44AoRd3h4Wl3n-58" value="Descripción" style="ellipse;whiteSpace=wrap;html=1;align=center;" vertex="1" parent="Iwp3akC44AoRd3h4Wl3n-1">
          <mxGeometry x="1014" y="-612.25" width="100" height="40" as="geometry" />
        </mxCell>
        <mxCell id="Iwp3akC44AoRd3h4Wl3n-59" value="" style="endArrow=none;html=1;rounded=0;exitX=0;exitY=0.5;exitDx=0;exitDy=0;entryX=1;entryY=0.5;entryDx=0;entryDy=0;" edge="1" parent="Iwp3akC44AoRd3h4Wl3n-1" source="Iwp3akC44AoRd3h4Wl3n-54" target="Iwp3akC44AoRd3h4Wl3n-248">
          <mxGeometry relative="1" as="geometry">
            <mxPoint x="964" y="-402.25" as="sourcePoint" />
            <mxPoint x="1114" y="-442.2500000000002" as="targetPoint" />
          </mxGeometry>
        </mxCell>
        <mxCell id="Iwp3akC44AoRd3h4Wl3n-60" value="" style="endArrow=none;html=1;rounded=0;exitX=0.418;exitY=1.01;exitDx=0;exitDy=0;entryX=0.5;entryY=0;entryDx=0;entryDy=0;exitPerimeter=0;" edge="1" parent="Iwp3akC44AoRd3h4Wl3n-1" source="Iwp3akC44AoRd3h4Wl3n-55" target="Iwp3akC44AoRd3h4Wl3n-248">
          <mxGeometry relative="1" as="geometry">
            <mxPoint x="1104" y="-422.25" as="sourcePoint" />
            <mxPoint x="1064" y="-462.2500000000002" as="targetPoint" />
          </mxGeometry>
        </mxCell>
        <mxCell id="Iwp3akC44AoRd3h4Wl3n-61" value="" style="endArrow=none;html=1;rounded=0;exitX=0.5;exitY=1;exitDx=0;exitDy=0;entryX=0.5;entryY=0;entryDx=0;entryDy=0;" edge="1" parent="Iwp3akC44AoRd3h4Wl3n-1" source="Iwp3akC44AoRd3h4Wl3n-56" target="Iwp3akC44AoRd3h4Wl3n-248">
          <mxGeometry relative="1" as="geometry">
            <mxPoint x="1104" y="-422.25" as="sourcePoint" />
            <mxPoint x="1064" y="-462.2500000000002" as="targetPoint" />
          </mxGeometry>
        </mxCell>
        <mxCell id="Iwp3akC44AoRd3h4Wl3n-62" value="" style="endArrow=none;html=1;rounded=0;exitX=1;exitY=0.5;exitDx=0;exitDy=0;entryX=0.5;entryY=0;entryDx=0;entryDy=0;" edge="1" parent="Iwp3akC44AoRd3h4Wl3n-1" source="Iwp3akC44AoRd3h4Wl3n-57" target="Iwp3akC44AoRd3h4Wl3n-248">
          <mxGeometry relative="1" as="geometry">
            <mxPoint x="1104" y="-422.25" as="sourcePoint" />
            <mxPoint x="1064" y="-462.2500000000002" as="targetPoint" />
          </mxGeometry>
        </mxCell>
        <mxCell id="Iwp3akC44AoRd3h4Wl3n-63" value="" style="endArrow=none;html=1;rounded=0;exitX=0.5;exitY=1;exitDx=0;exitDy=0;entryX=0.5;entryY=0;entryDx=0;entryDy=0;" edge="1" parent="Iwp3akC44AoRd3h4Wl3n-1" source="Iwp3akC44AoRd3h4Wl3n-58" target="Iwp3akC44AoRd3h4Wl3n-248">
          <mxGeometry relative="1" as="geometry">
            <mxPoint x="1104" y="-422.25" as="sourcePoint" />
            <mxPoint x="1064" y="-462.2500000000002" as="targetPoint" />
          </mxGeometry>
        </mxCell>
        <mxCell id="Iwp3akC44AoRd3h4Wl3n-64" value="Nombre" style="ellipse;whiteSpace=wrap;html=1;align=center;" vertex="1" parent="Iwp3akC44AoRd3h4Wl3n-1">
          <mxGeometry x="1454" y="-580.75" width="100" height="40" as="geometry" />
        </mxCell>
        <mxCell id="Iwp3akC44AoRd3h4Wl3n-65" value="Tipo" style="ellipse;whiteSpace=wrap;html=1;align=center;" vertex="1" parent="Iwp3akC44AoRd3h4Wl3n-1">
          <mxGeometry x="1554" y="-545.75" width="100" height="40" as="geometry" />
        </mxCell>
        <mxCell id="Iwp3akC44AoRd3h4Wl3n-66" value="Precio" style="ellipse;whiteSpace=wrap;html=1;align=center;" vertex="1" parent="Iwp3akC44AoRd3h4Wl3n-1">
          <mxGeometry x="1498" y="-414.75" width="100" height="40" as="geometry" />
        </mxCell>
        <mxCell id="Iwp3akC44AoRd3h4Wl3n-67" value="Duración" style="ellipse;whiteSpace=wrap;html=1;align=center;" vertex="1" parent="Iwp3akC44AoRd3h4Wl3n-1">
          <mxGeometry x="1374" y="-414.75" width="100" height="40" as="geometry" />
        </mxCell>
        <mxCell id="Iwp3akC44AoRd3h4Wl3n-68" value="Descripción" style="ellipse;whiteSpace=wrap;html=1;align=center;" vertex="1" parent="Iwp3akC44AoRd3h4Wl3n-1">
          <mxGeometry x="1554" y="-494.75" width="100" height="40" as="geometry" />
        </mxCell>
        <mxCell id="Iwp3akC44AoRd3h4Wl3n-69" value="" style="endArrow=none;html=1;rounded=0;entryX=0.5;entryY=0;entryDx=0;entryDy=0;exitX=0.5;exitY=1;exitDx=0;exitDy=0;" edge="1" parent="Iwp3akC44AoRd3h4Wl3n-1" source="Iwp3akC44AoRd3h4Wl3n-64" target="Iwp3akC44AoRd3h4Wl3n-249">
          <mxGeometry relative="1" as="geometry">
            <mxPoint x="1218" y="-475.75" as="sourcePoint" />
            <mxPoint x="1448" y="-505.75" as="targetPoint" />
          </mxGeometry>
        </mxCell>
        <mxCell id="Iwp3akC44AoRd3h4Wl3n-70" value="" style="endArrow=none;html=1;rounded=0;entryX=1;entryY=0.5;entryDx=0;entryDy=0;exitX=0;exitY=0.5;exitDx=0;exitDy=0;" edge="1" parent="Iwp3akC44AoRd3h4Wl3n-1" source="Iwp3akC44AoRd3h4Wl3n-65" target="Iwp3akC44AoRd3h4Wl3n-249">
          <mxGeometry relative="1" as="geometry">
            <mxPoint x="1574" y="-514.75" as="sourcePoint" />
            <mxPoint x="1498" y="-485.75" as="targetPoint" />
          </mxGeometry>
        </mxCell>
        <mxCell id="Iwp3akC44AoRd3h4Wl3n-71" value="" style="endArrow=none;html=1;rounded=0;exitX=0.5;exitY=0;exitDx=0;exitDy=0;entryX=0.5;entryY=1;entryDx=0;entryDy=0;" edge="1" parent="Iwp3akC44AoRd3h4Wl3n-1" source="Iwp3akC44AoRd3h4Wl3n-67" target="Iwp3akC44AoRd3h4Wl3n-249">
          <mxGeometry relative="1" as="geometry">
            <mxPoint x="1218" y="-475.75" as="sourcePoint" />
            <mxPoint x="1438.6999999999998" y="-466.06999999999994" as="targetPoint" />
          </mxGeometry>
        </mxCell>
        <mxCell id="Iwp3akC44AoRd3h4Wl3n-72" value="" style="endArrow=none;html=1;rounded=0;exitX=0.5;exitY=0;exitDx=0;exitDy=0;entryX=0.5;entryY=1;entryDx=0;entryDy=0;" edge="1" parent="Iwp3akC44AoRd3h4Wl3n-1" source="Iwp3akC44AoRd3h4Wl3n-66" target="Iwp3akC44AoRd3h4Wl3n-249">
          <mxGeometry relative="1" as="geometry">
            <mxPoint x="1218" y="-475.75" as="sourcePoint" />
            <mxPoint x="1448" y="-465.75" as="targetPoint" />
          </mxGeometry>
        </mxCell>
        <mxCell id="Iwp3akC44AoRd3h4Wl3n-73" value="" style="endArrow=none;html=1;rounded=0;entryX=0;entryY=0.5;entryDx=0;entryDy=0;exitX=1;exitY=0.5;exitDx=0;exitDy=0;" edge="1" parent="Iwp3akC44AoRd3h4Wl3n-1" source="Iwp3akC44AoRd3h4Wl3n-249" target="Iwp3akC44AoRd3h4Wl3n-68">
          <mxGeometry relative="1" as="geometry">
            <mxPoint x="1498" y="-485.75" as="sourcePoint" />
            <mxPoint x="1378" y="-325.75" as="targetPoint" />
          </mxGeometry>
        </mxCell>
        <mxCell id="Iwp3akC44AoRd3h4Wl3n-74" value="Tener" style="shape=rhombus;perimeter=rhombusPerimeter;whiteSpace=wrap;html=1;align=center;" vertex="1" parent="Iwp3akC44AoRd3h4Wl3n-1">
          <mxGeometry x="1004" y="-330.75" width="120" height="60" as="geometry" />
        </mxCell>
        <mxCell id="Iwp3akC44AoRd3h4Wl3n-75" value="Stock" style="ellipse;whiteSpace=wrap;html=1;align=center;" vertex="1" parent="Iwp3akC44AoRd3h4Wl3n-1">
          <mxGeometry x="1164" y="-320.75" width="100" height="40" as="geometry" />
        </mxCell>
        <mxCell id="Iwp3akC44AoRd3h4Wl3n-76" value="" style="endArrow=none;html=1;rounded=0;exitX=1;exitY=0.5;exitDx=0;exitDy=0;entryX=0;entryY=0.5;entryDx=0;entryDy=0;" edge="1" parent="Iwp3akC44AoRd3h4Wl3n-1" target="Iwp3akC44AoRd3h4Wl3n-75">
          <mxGeometry relative="1" as="geometry">
            <mxPoint x="1123.9999999999995" y="-300.75" as="sourcePoint" />
            <mxPoint x="1954" y="78.25" as="targetPoint" />
          </mxGeometry>
        </mxCell>
        <mxCell id="Iwp3akC44AoRd3h4Wl3n-77" value="" style="endArrow=none;html=1;rounded=0;exitX=0.5;exitY=1;exitDx=0;exitDy=0;entryX=0.515;entryY=0.118;entryDx=0;entryDy=0;entryPerimeter=0;shape=link;" edge="1" parent="Iwp3akC44AoRd3h4Wl3n-1" source="Iwp3akC44AoRd3h4Wl3n-248" target="Iwp3akC44AoRd3h4Wl3n-74">
          <mxGeometry relative="1" as="geometry">
            <mxPoint x="1064" y="-422.2500000000002" as="sourcePoint" />
            <mxPoint x="1064" y="-330.75" as="targetPoint" />
          </mxGeometry>
        </mxCell>
        <mxCell id="Iwp3akC44AoRd3h4Wl3n-78" value="" style="endArrow=none;html=1;rounded=0;exitX=1;exitY=0.5;exitDx=0;exitDy=0;entryX=0;entryY=0.5;entryDx=0;entryDy=0;" edge="1" parent="Iwp3akC44AoRd3h4Wl3n-1" source="Iwp3akC44AoRd3h4Wl3n-248" target="Iwp3akC44AoRd3h4Wl3n-79">
          <mxGeometry relative="1" as="geometry">
            <mxPoint x="1114" y="-442.2500000000002" as="sourcePoint" />
            <mxPoint x="1154" y="-417.25" as="targetPoint" />
          </mxGeometry>
        </mxCell>
        <mxCell id="Iwp3akC44AoRd3h4Wl3n-79" value="Id Producto" style="ellipse;whiteSpace=wrap;html=1;align=center;fontStyle=4;" vertex="1" parent="Iwp3akC44AoRd3h4Wl3n-1">
          <mxGeometry x="1164" y="-437.25" width="100" height="40" as="geometry" />
        </mxCell>
        <mxCell id="Iwp3akC44AoRd3h4Wl3n-80" value="Tener" style="shape=rhombus;perimeter=rhombusPerimeter;whiteSpace=wrap;html=1;align=center;" vertex="1" parent="Iwp3akC44AoRd3h4Wl3n-1">
          <mxGeometry x="1304" y="-340.75" width="120" height="60" as="geometry" />
        </mxCell>
        <mxCell id="Iwp3akC44AoRd3h4Wl3n-81" value="" style="endArrow=none;html=1;rounded=0;exitX=0.5;exitY=0;exitDx=0;exitDy=0;entryX=0;entryY=0.5;entryDx=0;entryDy=0;shape=flexArrow;" edge="1" parent="Iwp3akC44AoRd3h4Wl3n-1" source="Iwp3akC44AoRd3h4Wl3n-80" target="Iwp3akC44AoRd3h4Wl3n-249">
          <mxGeometry relative="1" as="geometry">
            <mxPoint x="1334" y="-410.75" as="sourcePoint" />
            <mxPoint x="1398" y="-485.75" as="targetPoint" />
            <Array as="points">
              <mxPoint x="1364" y="-485.75" />
            </Array>
          </mxGeometry>
        </mxCell>
        <mxCell id="Iwp3akC44AoRd3h4Wl3n-82" value="" style="endArrow=none;html=1;rounded=0;entryX=0.5;entryY=0;entryDx=0;entryDy=0;exitX=0.5;exitY=1;exitDx=0;exitDy=0;" edge="1" parent="Iwp3akC44AoRd3h4Wl3n-1" source="Iwp3akC44AoRd3h4Wl3n-83" target="Iwp3akC44AoRd3h4Wl3n-249">
          <mxGeometry relative="1" as="geometry">
            <mxPoint x="1404" y="-540.75" as="sourcePoint" />
            <mxPoint x="1448" y="-505.75" as="targetPoint" />
          </mxGeometry>
        </mxCell>
        <mxCell id="Iwp3akC44AoRd3h4Wl3n-83" value="Id Servicio" style="ellipse;whiteSpace=wrap;html=1;align=center;fontStyle=4" vertex="1" parent="Iwp3akC44AoRd3h4Wl3n-1">
          <mxGeometry x="1334" y="-595.75" width="100" height="40" as="geometry" />
        </mxCell>
        <mxCell id="Iwp3akC44AoRd3h4Wl3n-84" value="Negocio" style="rounded=0;arcSize=10;whiteSpace=wrap;html=1;align=center;" vertex="1" parent="Iwp3akC44AoRd3h4Wl3n-1">
          <mxGeometry x="1670" y="-60.25" width="100" height="40" as="geometry" />
        </mxCell>
        <mxCell id="Iwp3akC44AoRd3h4Wl3n-85" value="Nombre" style="ellipse;whiteSpace=wrap;html=1;align=center;" vertex="1" parent="Iwp3akC44AoRd3h4Wl3n-1">
          <mxGeometry x="1880" y="-200" width="100" height="40" as="geometry" />
        </mxCell>
        <mxCell id="Iwp3akC44AoRd3h4Wl3n-86" value="Telefono" style="ellipse;shape=doubleEllipse;margin=3;whiteSpace=wrap;html=1;align=center;" vertex="1" parent="Iwp3akC44AoRd3h4Wl3n-1">
          <mxGeometry x="1860" y="-109.25" width="100" height="40" as="geometry" />
        </mxCell>
        <mxCell id="Iwp3akC44AoRd3h4Wl3n-87" value="Correo" style="ellipse;shape=doubleEllipse;margin=3;whiteSpace=wrap;html=1;align=center;" vertex="1" parent="Iwp3akC44AoRd3h4Wl3n-1">
          <mxGeometry x="1860" y="-39.25" width="100" height="40" as="geometry" />
        </mxCell>
        <mxCell id="Iwp3akC44AoRd3h4Wl3n-88" value="Red Social" style="ellipse;shape=doubleEllipse;margin=3;whiteSpace=wrap;html=1;align=center;" vertex="1" parent="Iwp3akC44AoRd3h4Wl3n-1">
          <mxGeometry x="1860" y="30.75" width="100" height="40" as="geometry" />
        </mxCell>
        <mxCell id="Iwp3akC44AoRd3h4Wl3n-89" value="Descripción" style="ellipse;whiteSpace=wrap;html=1;align=center;" vertex="1" parent="Iwp3akC44AoRd3h4Wl3n-1">
          <mxGeometry x="1610" y="51.75" width="100" height="40" as="geometry" />
        </mxCell>
        <mxCell id="Iwp3akC44AoRd3h4Wl3n-90" value="Rango Precio" style="ellipse;whiteSpace=wrap;html=1;align=center;" vertex="1" parent="Iwp3akC44AoRd3h4Wl3n-1">
          <mxGeometry x="1730" y="51.75" width="100" height="40" as="geometry" />
        </mxCell>
        <mxCell id="Iwp3akC44AoRd3h4Wl3n-91" value="" style="endArrow=none;html=1;rounded=0;exitX=1;exitY=0.5;exitDx=0;exitDy=0;entryX=0;entryY=0.5;entryDx=0;entryDy=0;" edge="1" parent="Iwp3akC44AoRd3h4Wl3n-1" source="Iwp3akC44AoRd3h4Wl3n-84" target="Iwp3akC44AoRd3h4Wl3n-86">
          <mxGeometry relative="1" as="geometry">
            <mxPoint x="1560" y="101.75" as="sourcePoint" />
            <mxPoint x="1720" y="101.75" as="targetPoint" />
          </mxGeometry>
        </mxCell>
        <mxCell id="Iwp3akC44AoRd3h4Wl3n-92" value="" style="endArrow=none;html=1;rounded=0;exitX=1;exitY=0.5;exitDx=0;exitDy=0;entryX=0;entryY=0.5;entryDx=0;entryDy=0;" edge="1" parent="Iwp3akC44AoRd3h4Wl3n-1" source="Iwp3akC44AoRd3h4Wl3n-84" target="Iwp3akC44AoRd3h4Wl3n-88">
          <mxGeometry relative="1" as="geometry">
            <mxPoint x="1570" y="141.75" as="sourcePoint" />
            <mxPoint x="1730" y="141.75" as="targetPoint" />
          </mxGeometry>
        </mxCell>
        <mxCell id="Iwp3akC44AoRd3h4Wl3n-93" value="" style="endArrow=none;html=1;rounded=0;exitX=0.5;exitY=0;exitDx=0;exitDy=0;entryX=0.5;entryY=1;entryDx=0;entryDy=0;" edge="1" parent="Iwp3akC44AoRd3h4Wl3n-1" source="Iwp3akC44AoRd3h4Wl3n-89" target="Iwp3akC44AoRd3h4Wl3n-84">
          <mxGeometry relative="1" as="geometry">
            <mxPoint x="1640" y="191.75" as="sourcePoint" />
            <mxPoint x="1800" y="191.75" as="targetPoint" />
          </mxGeometry>
        </mxCell>
        <mxCell id="Iwp3akC44AoRd3h4Wl3n-94" value="" style="endArrow=none;html=1;rounded=0;exitX=1;exitY=0.5;exitDx=0;exitDy=0;entryX=0;entryY=0.5;entryDx=0;entryDy=0;" edge="1" parent="Iwp3akC44AoRd3h4Wl3n-1" source="Iwp3akC44AoRd3h4Wl3n-84" target="Iwp3akC44AoRd3h4Wl3n-87">
          <mxGeometry relative="1" as="geometry">
            <mxPoint x="1980" y="121.75" as="sourcePoint" />
            <mxPoint x="1850" y="-29.25" as="targetPoint" />
          </mxGeometry>
        </mxCell>
        <mxCell id="Iwp3akC44AoRd3h4Wl3n-95" value="" style="endArrow=none;html=1;rounded=0;entryX=0.5;entryY=1;entryDx=0;entryDy=0;exitX=0.5;exitY=0;exitDx=0;exitDy=0;" edge="1" parent="Iwp3akC44AoRd3h4Wl3n-1" source="Iwp3akC44AoRd3h4Wl3n-90" target="Iwp3akC44AoRd3h4Wl3n-84">
          <mxGeometry relative="1" as="geometry">
            <mxPoint x="1670" y="61.75" as="sourcePoint" />
            <mxPoint x="1730" y="-8.25" as="targetPoint" />
          </mxGeometry>
        </mxCell>
        <mxCell id="Iwp3akC44AoRd3h4Wl3n-96" value="" style="endArrow=none;html=1;rounded=0;entryX=0.5;entryY=1;entryDx=0;entryDy=0;exitX=0.5;exitY=0;exitDx=0;exitDy=0;" edge="1" parent="Iwp3akC44AoRd3h4Wl3n-1" source="Iwp3akC44AoRd3h4Wl3n-98" target="Iwp3akC44AoRd3h4Wl3n-90">
          <mxGeometry relative="1" as="geometry">
            <mxPoint x="1520" y="141.75" as="sourcePoint" />
            <mxPoint x="1680" y="130.88" as="targetPoint" />
          </mxGeometry>
        </mxCell>
        <mxCell id="Iwp3akC44AoRd3h4Wl3n-97" value="" style="endArrow=none;html=1;rounded=0;entryX=0.5;entryY=1;entryDx=0;entryDy=0;exitX=0.5;exitY=0;exitDx=0;exitDy=0;" edge="1" parent="Iwp3akC44AoRd3h4Wl3n-1" source="Iwp3akC44AoRd3h4Wl3n-99" target="Iwp3akC44AoRd3h4Wl3n-90">
          <mxGeometry relative="1" as="geometry">
            <mxPoint x="1600" y="111.75" as="sourcePoint" />
            <mxPoint x="1760" y="111.75" as="targetPoint" />
          </mxGeometry>
        </mxCell>
        <mxCell id="Iwp3akC44AoRd3h4Wl3n-98" value="Precio Mínimo" style="ellipse;whiteSpace=wrap;html=1;align=center;" vertex="1" parent="Iwp3akC44AoRd3h4Wl3n-1">
          <mxGeometry x="1710" y="141.75" width="100" height="40" as="geometry" />
        </mxCell>
        <mxCell id="Iwp3akC44AoRd3h4Wl3n-99" value="Precio Máximo" style="ellipse;whiteSpace=wrap;html=1;align=center;" vertex="1" parent="Iwp3akC44AoRd3h4Wl3n-1">
          <mxGeometry x="1830" y="141.75" width="100" height="40" as="geometry" />
        </mxCell>
        <mxCell id="Iwp3akC44AoRd3h4Wl3n-100" value="" style="endArrow=none;html=1;rounded=0;exitX=0.5;exitY=1;exitDx=0;exitDy=0;entryX=0.5;entryY=0;entryDx=0;entryDy=0;" edge="1" parent="Iwp3akC44AoRd3h4Wl3n-1" source="Iwp3akC44AoRd3h4Wl3n-85" target="Iwp3akC44AoRd3h4Wl3n-84">
          <mxGeometry relative="1" as="geometry">
            <mxPoint x="1520" y="-48.25" as="sourcePoint" />
            <mxPoint x="1680" y="-48.25" as="targetPoint" />
          </mxGeometry>
        </mxCell>
        <mxCell id="Iwp3akC44AoRd3h4Wl3n-101" value="Id Negocio" style="ellipse;whiteSpace=wrap;html=1;align=center;fontStyle=4;" vertex="1" parent="Iwp3akC44AoRd3h4Wl3n-1">
          <mxGeometry x="1760" y="-200" width="100" height="40" as="geometry" />
        </mxCell>
        <mxCell id="Iwp3akC44AoRd3h4Wl3n-102" value="" style="endArrow=none;html=1;rounded=0;exitX=0.461;exitY=0.969;exitDx=0;exitDy=0;exitPerimeter=0;entryX=0.5;entryY=0;entryDx=0;entryDy=0;" edge="1" parent="Iwp3akC44AoRd3h4Wl3n-1" source="Iwp3akC44AoRd3h4Wl3n-101" target="Iwp3akC44AoRd3h4Wl3n-84">
          <mxGeometry relative="1" as="geometry">
            <mxPoint x="1520" y="-68.25" as="sourcePoint" />
            <mxPoint x="1680" y="-68.25" as="targetPoint" />
          </mxGeometry>
        </mxCell>
        <mxCell id="Iwp3akC44AoRd3h4Wl3n-103" value="" style="endArrow=none;html=1;rounded=0;entryX=0.5;entryY=1;entryDx=0;entryDy=0;exitX=0.5;exitY=0;exitDx=0;exitDy=0;fillColor=#dae8fc;strokeColor=#000000;strokeWidth=1;" edge="1" parent="Iwp3akC44AoRd3h4Wl3n-1" source="Iwp3akC44AoRd3h4Wl3n-84" target="Iwp3akC44AoRd3h4Wl3n-80">
          <mxGeometry width="50" height="50" relative="1" as="geometry">
            <mxPoint x="1170" y="-180" as="sourcePoint" />
            <mxPoint x="1220" y="-230" as="targetPoint" />
          </mxGeometry>
        </mxCell>
        <mxCell id="Iwp3akC44AoRd3h4Wl3n-104" style="rounded=0;orthogonalLoop=1;jettySize=auto;html=1;entryX=0.5;entryY=0;entryDx=0;entryDy=0;strokeWidth=1;endArrow=none;startFill=0;exitX=1;exitY=0.5;exitDx=0;exitDy=0;" edge="1" parent="Iwp3akC44AoRd3h4Wl3n-1" source="Iwp3akC44AoRd3h4Wl3n-105" target="Iwp3akC44AoRd3h4Wl3n-107">
          <mxGeometry relative="1" as="geometry">
            <mxPoint x="808.9099999999999" y="65.5" as="targetPoint" />
            <mxPoint x="719" y="-42" as="sourcePoint" />
          </mxGeometry>
        </mxCell>
        <mxCell id="Iwp3akC44AoRd3h4Wl3n-105" value="&lt;font&gt;d&lt;/font&gt;" style="triangle;whiteSpace=wrap;html=1;direction=south;strokeWidth=1;" vertex="1" parent="Iwp3akC44AoRd3h4Wl3n-1">
          <mxGeometry x="950" y="-431" width="34" height="27.5" as="geometry" />
        </mxCell>
        <mxCell id="Iwp3akC44AoRd3h4Wl3n-106" style="rounded=0;orthogonalLoop=1;jettySize=auto;html=1;exitX=0.5;exitY=1;exitDx=0;exitDy=0;entryX=0.5;entryY=0;entryDx=0;entryDy=0;strokeWidth=1;endArrow=none;startFill=0;" edge="1" parent="Iwp3akC44AoRd3h4Wl3n-1" source="Iwp3akC44AoRd3h4Wl3n-107" target="Iwp3akC44AoRd3h4Wl3n-110">
          <mxGeometry relative="1" as="geometry" />
        </mxCell>
        <mxCell id="Iwp3akC44AoRd3h4Wl3n-107" value="&lt;font&gt;Perecedero&lt;/font&gt;" style="rounded=0;whiteSpace=wrap;html=1;strokeWidth=1;" vertex="1" parent="Iwp3akC44AoRd3h4Wl3n-1">
          <mxGeometry x="909" y="-386.5" width="116" height="35" as="geometry" />
        </mxCell>
        <mxCell id="Iwp3akC44AoRd3h4Wl3n-108" style="rounded=0;orthogonalLoop=1;jettySize=auto;html=1;exitX=0.5;exitY=0;exitDx=0;exitDy=0;entryX=0.5;entryY=1;entryDx=0;entryDy=0;endArrow=none;startFill=0;strokeWidth=1;" edge="1" parent="Iwp3akC44AoRd3h4Wl3n-1" source="Iwp3akC44AoRd3h4Wl3n-109" target="Iwp3akC44AoRd3h4Wl3n-107">
          <mxGeometry relative="1" as="geometry" />
        </mxCell>
        <mxCell id="Iwp3akC44AoRd3h4Wl3n-109" value="&lt;font&gt;FechaPreparacion&lt;/font&gt;" style="ellipse;whiteSpace=wrap;html=1;strokeWidth=1;" vertex="1" parent="Iwp3akC44AoRd3h4Wl3n-1">
          <mxGeometry x="802" y="-320.75" width="124" height="35" as="geometry" />
        </mxCell>
        <mxCell id="Iwp3akC44AoRd3h4Wl3n-110" value="&lt;font&gt;FechaCaducidad&lt;/font&gt;" style="ellipse;whiteSpace=wrap;html=1;strokeWidth=1;" vertex="1" parent="Iwp3akC44AoRd3h4Wl3n-1">
          <mxGeometry x="730" y="-370" width="120" height="48.5" as="geometry" />
        </mxCell>
        <mxCell id="Iwp3akC44AoRd3h4Wl3n-111" value="" style="endArrow=none;html=1;rounded=0;entryX=0;entryY=0.25;entryDx=0;entryDy=0;exitX=0;exitY=0.5;exitDx=0;exitDy=0;" edge="1" parent="Iwp3akC44AoRd3h4Wl3n-1" source="Iwp3akC44AoRd3h4Wl3n-105" target="Iwp3akC44AoRd3h4Wl3n-248">
          <mxGeometry width="50" height="50" relative="1" as="geometry">
            <mxPoint x="1040" y="-180" as="sourcePoint" />
            <mxPoint x="1014" y="-442.2500000000002" as="targetPoint" />
          </mxGeometry>
        </mxCell>
        <mxCell id="Iwp3akC44AoRd3h4Wl3n-112" value="" style="endArrow=none;html=1;rounded=0;exitX=0.5;exitY=0;exitDx=0;exitDy=0;entryX=0.5;entryY=1;entryDx=0;entryDy=0;fillColor=#dae8fc;strokeColor=#000000;strokeWidth=1;" edge="1" parent="Iwp3akC44AoRd3h4Wl3n-1" source="Iwp3akC44AoRd3h4Wl3n-84" target="Iwp3akC44AoRd3h4Wl3n-74">
          <mxGeometry width="50" height="50" relative="1" as="geometry">
            <mxPoint x="1040" y="-250" as="sourcePoint" />
            <mxPoint x="1090" y="-300" as="targetPoint" />
          </mxGeometry>
        </mxCell>
        <mxCell id="Iwp3akC44AoRd3h4Wl3n-113" value="Precio" style="ellipse;whiteSpace=wrap;html=1;align=center;" vertex="1" parent="Iwp3akC44AoRd3h4Wl3n-1">
          <mxGeometry x="730" y="184.5" width="100" height="40" as="geometry" />
        </mxCell>
        <mxCell id="Iwp3akC44AoRd3h4Wl3n-114" value="" style="endArrow=none;html=1;rounded=0;entryX=0.5;entryY=1;entryDx=0;entryDy=0;exitX=0.5;exitY=0;exitDx=0;exitDy=0;" edge="1" parent="Iwp3akC44AoRd3h4Wl3n-1" source="Iwp3akC44AoRd3h4Wl3n-113" target="Iwp3akC44AoRd3h4Wl3n-115">
          <mxGeometry relative="1" as="geometry">
            <mxPoint x="500" y="234.5" as="sourcePoint" />
            <mxPoint x="660" y="234.5" as="targetPoint" />
          </mxGeometry>
        </mxCell>
        <mxCell id="Iwp3akC44AoRd3h4Wl3n-115" value="Estand" style="whiteSpace=wrap;html=1;align=center;" vertex="1" parent="Iwp3akC44AoRd3h4Wl3n-1">
          <mxGeometry x="730" y="104.5" width="100" height="40" as="geometry" />
        </mxCell>
        <mxCell id="Iwp3akC44AoRd3h4Wl3n-116" value="" style="endArrow=none;html=1;rounded=0;exitX=1;exitY=0.5;exitDx=0;exitDy=0;entryX=0.023;entryY=0.629;entryDx=0;entryDy=0;entryPerimeter=0;" edge="1" parent="Iwp3akC44AoRd3h4Wl3n-1" source="Iwp3akC44AoRd3h4Wl3n-115" target="Iwp3akC44AoRd3h4Wl3n-117">
          <mxGeometry relative="1" as="geometry">
            <mxPoint x="990" y="204.5" as="sourcePoint" />
            <mxPoint x="930" y="74.5" as="targetPoint" />
          </mxGeometry>
        </mxCell>
        <mxCell id="Iwp3akC44AoRd3h4Wl3n-117" value="Número" style="ellipse;whiteSpace=wrap;html=1;align=center;fontStyle=4;" vertex="1" parent="Iwp3akC44AoRd3h4Wl3n-1">
          <mxGeometry x="930" y="54.5" width="100" height="40" as="geometry" />
        </mxCell>
        <mxCell id="Iwp3akC44AoRd3h4Wl3n-118" value="" style="endArrow=none;html=1;rounded=0;exitX=0.5;exitY=1;exitDx=0;exitDy=0;entryX=0.5;entryY=0;entryDx=0;entryDy=0;" edge="1" parent="Iwp3akC44AoRd3h4Wl3n-1" source="Iwp3akC44AoRd3h4Wl3n-123" target="Iwp3akC44AoRd3h4Wl3n-115">
          <mxGeometry relative="1" as="geometry">
            <mxPoint x="570" y="113.5" as="sourcePoint" />
            <mxPoint x="730" y="113.5" as="targetPoint" />
          </mxGeometry>
        </mxCell>
        <mxCell id="Iwp3akC44AoRd3h4Wl3n-119" value="" style="endArrow=none;html=1;rounded=0;entryX=0.5;entryY=1;entryDx=0;entryDy=0;" edge="1" parent="Iwp3akC44AoRd3h4Wl3n-1" source="Iwp3akC44AoRd3h4Wl3n-123" target="Iwp3akC44AoRd3h4Wl3n-120">
          <mxGeometry relative="1" as="geometry">
            <mxPoint x="780" y="-26.5" as="sourcePoint" />
            <mxPoint x="760" y="-66.5" as="targetPoint" />
          </mxGeometry>
        </mxCell>
        <mxCell id="Iwp3akC44AoRd3h4Wl3n-120" value="Fecha Asistencia" style="ellipse;whiteSpace=wrap;html=1;align=center;" vertex="1" parent="Iwp3akC44AoRd3h4Wl3n-1">
          <mxGeometry x="720" y="-170" width="100" height="40" as="geometry" />
        </mxCell>
        <mxCell id="Iwp3akC44AoRd3h4Wl3n-121" value="" style="endArrow=none;html=1;rounded=0;entryX=0;entryY=0.5;entryDx=0;entryDy=0;exitX=1;exitY=0.5;exitDx=0;exitDy=0;" edge="1" parent="Iwp3akC44AoRd3h4Wl3n-1" source="Iwp3akC44AoRd3h4Wl3n-123" target="Iwp3akC44AoRd3h4Wl3n-84">
          <mxGeometry width="50" height="50" relative="1" as="geometry">
            <mxPoint x="1030" y="220" as="sourcePoint" />
            <mxPoint x="1080" y="170" as="targetPoint" />
          </mxGeometry>
        </mxCell>
        <mxCell id="Iwp3akC44AoRd3h4Wl3n-122" value="" style="endArrow=none;html=1;rounded=0;entryX=0.5;entryY=1;entryDx=0;entryDy=0;" edge="1" parent="Iwp3akC44AoRd3h4Wl3n-1" target="Iwp3akC44AoRd3h4Wl3n-123">
          <mxGeometry relative="1" as="geometry">
            <mxPoint x="780" y="-26.5" as="sourcePoint" />
            <mxPoint x="770" y="-130" as="targetPoint" />
          </mxGeometry>
        </mxCell>
        <mxCell id="Iwp3akC44AoRd3h4Wl3n-123" value="Agendar" style="shape=rhombus;perimeter=rhombusPerimeter;whiteSpace=wrap;html=1;align=center;fillColor=#f8cecc;strokeColor=#b85450;" vertex="1" parent="Iwp3akC44AoRd3h4Wl3n-1">
          <mxGeometry x="720" y="-81.5" width="120" height="60" as="geometry" />
        </mxCell>
        <mxCell id="Iwp3akC44AoRd3h4Wl3n-124" style="rounded=0;orthogonalLoop=1;jettySize=auto;html=1;exitX=0.75;exitY=1;exitDx=0;exitDy=0;entryX=0.5;entryY=0;entryDx=0;entryDy=0;endArrow=none;startFill=0;strokeWidth=1;fontSize=12;" edge="1" parent="Iwp3akC44AoRd3h4Wl3n-1" source="Iwp3akC44AoRd3h4Wl3n-125" target="Iwp3akC44AoRd3h4Wl3n-133">
          <mxGeometry relative="1" as="geometry" />
        </mxCell>
        <mxCell id="Iwp3akC44AoRd3h4Wl3n-125" value="&lt;font&gt;Paquete&lt;/font&gt;" style="rounded=0;whiteSpace=wrap;html=1;strokeWidth=1;fontSize=12;" vertex="1" parent="Iwp3akC44AoRd3h4Wl3n-1">
          <mxGeometry x="1100" y="210" width="70" height="30" as="geometry" />
        </mxCell>
        <mxCell id="Iwp3akC44AoRd3h4Wl3n-126" value="" style="edgeStyle=orthogonalEdgeStyle;rounded=0;orthogonalLoop=1;jettySize=auto;html=1;strokeWidth=1;endArrow=block;endFill=1;entryX=1;entryY=0.75;entryDx=0;entryDy=0;shape=link;" edge="1" parent="Iwp3akC44AoRd3h4Wl3n-1" source="Iwp3akC44AoRd3h4Wl3n-127" target="Iwp3akC44AoRd3h4Wl3n-115">
          <mxGeometry relative="1" as="geometry">
            <mxPoint x="940" y="249.5" as="targetPoint" />
          </mxGeometry>
        </mxCell>
        <mxCell id="Iwp3akC44AoRd3h4Wl3n-127" value="Escoger" style="rhombus;whiteSpace=wrap;html=1;strokeWidth=1;" vertex="1" parent="Iwp3akC44AoRd3h4Wl3n-1">
          <mxGeometry x="884" y="200" width="100" height="50" as="geometry" />
        </mxCell>
        <mxCell id="Iwp3akC44AoRd3h4Wl3n-128" value="&lt;font&gt;Precio&lt;/font&gt;" style="ellipse;whiteSpace=wrap;html=1;strokeWidth=1;fontSize=12;" vertex="1" parent="Iwp3akC44AoRd3h4Wl3n-1">
          <mxGeometry x="1050" y="285" width="90" height="20" as="geometry" />
        </mxCell>
        <mxCell id="Iwp3akC44AoRd3h4Wl3n-129" style="rounded=0;orthogonalLoop=1;jettySize=auto;html=1;exitX=0.5;exitY=0;exitDx=0;exitDy=0;entryX=0.25;entryY=1;entryDx=0;entryDy=0;endArrow=none;startFill=0;strokeWidth=1;fontSize=12;" edge="1" parent="Iwp3akC44AoRd3h4Wl3n-1" source="Iwp3akC44AoRd3h4Wl3n-130" target="Iwp3akC44AoRd3h4Wl3n-125">
          <mxGeometry relative="1" as="geometry" />
        </mxCell>
        <mxCell id="Iwp3akC44AoRd3h4Wl3n-130" value="&lt;font&gt;IdPaquete&lt;/font&gt;" style="ellipse;whiteSpace=wrap;html=1;strokeWidth=1;fontSize=12;fontStyle=4" vertex="1" parent="Iwp3akC44AoRd3h4Wl3n-1">
          <mxGeometry x="994" y="250" width="106" height="30" as="geometry" />
        </mxCell>
        <mxCell id="Iwp3akC44AoRd3h4Wl3n-131" style="rounded=0;orthogonalLoop=1;jettySize=auto;html=1;exitX=0.5;exitY=1;exitDx=0;exitDy=0;entryX=0.5;entryY=0;entryDx=0;entryDy=0;endArrow=none;startFill=0;strokeWidth=1;fontSize=12;" edge="1" parent="Iwp3akC44AoRd3h4Wl3n-1" source="Iwp3akC44AoRd3h4Wl3n-133" target="Iwp3akC44AoRd3h4Wl3n-134">
          <mxGeometry relative="1" as="geometry" />
        </mxCell>
        <mxCell id="Iwp3akC44AoRd3h4Wl3n-132" style="rounded=0;orthogonalLoop=1;jettySize=auto;html=1;exitX=0.568;exitY=0.093;exitDx=0;exitDy=0;entryX=0.5;entryY=1;entryDx=0;entryDy=0;endArrow=none;startFill=0;strokeWidth=1;exitPerimeter=0;fontSize=12;" edge="1" parent="Iwp3akC44AoRd3h4Wl3n-1" source="Iwp3akC44AoRd3h4Wl3n-133" target="Iwp3akC44AoRd3h4Wl3n-135">
          <mxGeometry relative="1" as="geometry" />
        </mxCell>
        <mxCell id="Iwp3akC44AoRd3h4Wl3n-133" value="&lt;font&gt;Amenidad&lt;/font&gt;" style="ellipse;whiteSpace=wrap;html=1;strokeWidth=1;fontSize=12;" vertex="1" parent="Iwp3akC44AoRd3h4Wl3n-1">
          <mxGeometry x="1124" y="257.5" width="86" height="22.5" as="geometry" />
        </mxCell>
        <mxCell id="Iwp3akC44AoRd3h4Wl3n-134" value="&lt;font&gt;Numero Mesas&lt;/font&gt;" style="ellipse;whiteSpace=wrap;html=1;strokeWidth=1;fontSize=12;" vertex="1" parent="Iwp3akC44AoRd3h4Wl3n-1">
          <mxGeometry x="1140" y="290" width="80" height="30" as="geometry" />
        </mxCell>
        <mxCell id="Iwp3akC44AoRd3h4Wl3n-135" value="&lt;font&gt;Numero Silla&lt;/font&gt;" style="ellipse;whiteSpace=wrap;html=1;strokeWidth=1;fontSize=12;" vertex="1" parent="Iwp3akC44AoRd3h4Wl3n-1">
          <mxGeometry x="1244" y="257.5" width="76" height="32.5" as="geometry" />
        </mxCell>
        <mxCell id="Iwp3akC44AoRd3h4Wl3n-136" value="" style="endArrow=none;html=1;rounded=0;entryX=0.345;entryY=0.961;entryDx=0;entryDy=0;entryPerimeter=0;exitX=0.5;exitY=0;exitDx=0;exitDy=0;" edge="1" parent="Iwp3akC44AoRd3h4Wl3n-1" source="Iwp3akC44AoRd3h4Wl3n-128" target="Iwp3akC44AoRd3h4Wl3n-125">
          <mxGeometry width="50" height="50" relative="1" as="geometry">
            <mxPoint x="1100" y="310" as="sourcePoint" />
            <mxPoint x="1150" y="260" as="targetPoint" />
          </mxGeometry>
        </mxCell>
        <mxCell id="Iwp3akC44AoRd3h4Wl3n-137" value="Nombre" style="ellipse;whiteSpace=wrap;html=1;strokeWidth=1;fontSize=12;" vertex="1" parent="Iwp3akC44AoRd3h4Wl3n-1">
          <mxGeometry x="1217" y="217.5" width="86" height="22.5" as="geometry" />
        </mxCell>
        <mxCell id="Iwp3akC44AoRd3h4Wl3n-138" value="" style="endArrow=none;html=1;rounded=0;exitX=1;exitY=0.5;exitDx=0;exitDy=0;" edge="1" parent="Iwp3akC44AoRd3h4Wl3n-1" source="Iwp3akC44AoRd3h4Wl3n-125">
          <mxGeometry width="50" height="50" relative="1" as="geometry">
            <mxPoint x="1400" y="290" as="sourcePoint" />
            <mxPoint x="1220" y="230" as="targetPoint" />
          </mxGeometry>
        </mxCell>
        <mxCell id="Iwp3akC44AoRd3h4Wl3n-139" value="Bazar" style="whiteSpace=wrap;html=1;align=center;" vertex="1" parent="Iwp3akC44AoRd3h4Wl3n-1">
          <mxGeometry x="513" y="-61.5" width="100" height="40" as="geometry" />
        </mxCell>
        <mxCell id="Iwp3akC44AoRd3h4Wl3n-140" value="Ubicación" style="ellipse;whiteSpace=wrap;html=1;align=center;" vertex="1" parent="Iwp3akC44AoRd3h4Wl3n-1">
          <mxGeometry x="280" y="-51.5" width="100" height="40" as="geometry" />
        </mxCell>
        <mxCell id="Iwp3akC44AoRd3h4Wl3n-141" value="Calle" style="ellipse;whiteSpace=wrap;html=1;align=center;" vertex="1" parent="Iwp3akC44AoRd3h4Wl3n-1">
          <mxGeometry x="102.90999999999998" y="-81.5" width="100" height="40" as="geometry" />
        </mxCell>
        <mxCell id="Iwp3akC44AoRd3h4Wl3n-142" value="Colonia" style="ellipse;whiteSpace=wrap;html=1;align=center;" vertex="1" parent="Iwp3akC44AoRd3h4Wl3n-1">
          <mxGeometry x="110" y="50" width="100" height="40" as="geometry" />
        </mxCell>
        <mxCell id="Iwp3akC44AoRd3h4Wl3n-143" value="Estado" style="ellipse;whiteSpace=wrap;html=1;align=center;" vertex="1" parent="Iwp3akC44AoRd3h4Wl3n-1">
          <mxGeometry x="110" y="98.5" width="100" height="40" as="geometry" />
        </mxCell>
        <mxCell id="Iwp3akC44AoRd3h4Wl3n-144" value="" style="endArrow=none;html=1;rounded=0;exitX=1;exitY=0.5;exitDx=0;exitDy=0;entryX=0;entryY=0.5;entryDx=0;entryDy=0;" edge="1" parent="Iwp3akC44AoRd3h4Wl3n-1" source="Iwp3akC44AoRd3h4Wl3n-205" target="Iwp3akC44AoRd3h4Wl3n-140">
          <mxGeometry relative="1" as="geometry">
            <mxPoint x="-20" y="98.5" as="sourcePoint" />
            <mxPoint x="140" y="98.5" as="targetPoint" />
          </mxGeometry>
        </mxCell>
        <mxCell id="Iwp3akC44AoRd3h4Wl3n-145" value="" style="endArrow=none;html=1;rounded=0;exitX=1;exitY=0.5;exitDx=0;exitDy=0;entryX=0;entryY=0.5;entryDx=0;entryDy=0;" edge="1" parent="Iwp3akC44AoRd3h4Wl3n-1" source="Iwp3akC44AoRd3h4Wl3n-146" target="Iwp3akC44AoRd3h4Wl3n-140">
          <mxGeometry relative="1" as="geometry">
            <mxPoint x="90" y="78.5" as="sourcePoint" />
            <mxPoint x="240" y="138.5" as="targetPoint" />
          </mxGeometry>
        </mxCell>
        <mxCell id="Iwp3akC44AoRd3h4Wl3n-146" value="Número Exterior" style="ellipse;whiteSpace=wrap;html=1;align=center;" vertex="1" parent="Iwp3akC44AoRd3h4Wl3n-1">
          <mxGeometry x="102.91" width="100" height="40" as="geometry" />
        </mxCell>
        <mxCell id="Iwp3akC44AoRd3h4Wl3n-147" value="" style="endArrow=none;html=1;rounded=0;exitX=1;exitY=0.5;exitDx=0;exitDy=0;entryX=0;entryY=0.5;entryDx=0;entryDy=0;" edge="1" parent="Iwp3akC44AoRd3h4Wl3n-1" source="Iwp3akC44AoRd3h4Wl3n-205" target="Iwp3akC44AoRd3h4Wl3n-140">
          <mxGeometry relative="1" as="geometry">
            <mxPoint x="90" y="148.5" as="sourcePoint" />
            <mxPoint x="250" y="148.5" as="targetPoint" />
          </mxGeometry>
        </mxCell>
        <mxCell id="Iwp3akC44AoRd3h4Wl3n-148" value="" style="endArrow=none;html=1;rounded=0;entryX=0;entryY=0.5;entryDx=0;entryDy=0;exitX=1;exitY=0.5;exitDx=0;exitDy=0;" edge="1" parent="Iwp3akC44AoRd3h4Wl3n-1" source="Iwp3akC44AoRd3h4Wl3n-142" target="Iwp3akC44AoRd3h4Wl3n-140">
          <mxGeometry relative="1" as="geometry">
            <mxPoint x="110" y="188.5" as="sourcePoint" />
            <mxPoint x="270" y="188.5" as="targetPoint" />
          </mxGeometry>
        </mxCell>
        <mxCell id="Iwp3akC44AoRd3h4Wl3n-149" value="" style="endArrow=none;html=1;rounded=0;exitX=1;exitY=0.5;exitDx=0;exitDy=0;entryX=0;entryY=0.5;entryDx=0;entryDy=0;" edge="1" parent="Iwp3akC44AoRd3h4Wl3n-1" source="Iwp3akC44AoRd3h4Wl3n-143" target="Iwp3akC44AoRd3h4Wl3n-140">
          <mxGeometry relative="1" as="geometry">
            <mxPoint x="30" y="138.5" as="sourcePoint" />
            <mxPoint x="120" y="78.5" as="targetPoint" />
          </mxGeometry>
        </mxCell>
        <mxCell id="Iwp3akC44AoRd3h4Wl3n-150" value="Amenidades" style="ellipse;shape=doubleEllipse;margin=3;whiteSpace=wrap;html=1;align=center;" vertex="1" parent="Iwp3akC44AoRd3h4Wl3n-1">
          <mxGeometry x="263.5" y="-0.5" width="100" height="40" as="geometry" />
        </mxCell>
        <mxCell id="Iwp3akC44AoRd3h4Wl3n-151" value="" style="endArrow=none;html=1;rounded=0;entryX=0;entryY=0.5;entryDx=0;entryDy=0;exitX=1;exitY=0.5;exitDx=0;exitDy=0;" edge="1" parent="Iwp3akC44AoRd3h4Wl3n-1" source="Iwp3akC44AoRd3h4Wl3n-150" target="Iwp3akC44AoRd3h4Wl3n-139">
          <mxGeometry relative="1" as="geometry">
            <mxPoint x="160" y="198.5" as="sourcePoint" />
            <mxPoint x="320" y="198.5" as="targetPoint" />
          </mxGeometry>
        </mxCell>
        <mxCell id="Iwp3akC44AoRd3h4Wl3n-152" value="" style="endArrow=none;html=1;rounded=0;exitX=1;exitY=0.5;exitDx=0;exitDy=0;entryX=0;entryY=0.5;entryDx=0;entryDy=0;" edge="1" parent="Iwp3akC44AoRd3h4Wl3n-1" source="Iwp3akC44AoRd3h4Wl3n-140" target="Iwp3akC44AoRd3h4Wl3n-139">
          <mxGeometry relative="1" as="geometry">
            <mxPoint x="330" y="158.5" as="sourcePoint" />
            <mxPoint x="490" y="158.5" as="targetPoint" />
          </mxGeometry>
        </mxCell>
        <mxCell id="Iwp3akC44AoRd3h4Wl3n-153" value="Fecha Inicio" style="ellipse;whiteSpace=wrap;html=1;align=center;" vertex="1" parent="Iwp3akC44AoRd3h4Wl3n-1">
          <mxGeometry x="370" y="-207.75" width="100" height="40" as="geometry" />
        </mxCell>
        <mxCell id="Iwp3akC44AoRd3h4Wl3n-154" value="Fecha Termino" style="ellipse;whiteSpace=wrap;html=1;align=center;" vertex="1" parent="Iwp3akC44AoRd3h4Wl3n-1">
          <mxGeometry x="270" y="-160" width="100" height="40" as="geometry" />
        </mxCell>
        <mxCell id="Iwp3akC44AoRd3h4Wl3n-155" value="" style="endArrow=none;html=1;rounded=0;exitX=0.5;exitY=1;exitDx=0;exitDy=0;entryX=0;entryY=0.5;entryDx=0;entryDy=0;" edge="1" parent="Iwp3akC44AoRd3h4Wl3n-1" source="Iwp3akC44AoRd3h4Wl3n-153" target="Iwp3akC44AoRd3h4Wl3n-139">
          <mxGeometry relative="1" as="geometry">
            <mxPoint x="280" y="148.5" as="sourcePoint" />
            <mxPoint x="440" y="148.5" as="targetPoint" />
          </mxGeometry>
        </mxCell>
        <mxCell id="Iwp3akC44AoRd3h4Wl3n-156" value="" style="endArrow=none;html=1;rounded=0;exitX=0;exitY=0.5;exitDx=0;exitDy=0;entryX=0.5;entryY=1;entryDx=0;entryDy=0;" edge="1" parent="Iwp3akC44AoRd3h4Wl3n-1" source="Iwp3akC44AoRd3h4Wl3n-139" target="Iwp3akC44AoRd3h4Wl3n-154">
          <mxGeometry relative="1" as="geometry">
            <mxPoint x="290" y="268.5" as="sourcePoint" />
            <mxPoint x="450" y="268.5" as="targetPoint" />
          </mxGeometry>
        </mxCell>
        <mxCell id="Iwp3akC44AoRd3h4Wl3n-157" value="Id Bazar" style="ellipse;whiteSpace=wrap;html=1;align=center;fontStyle=4;" vertex="1" parent="Iwp3akC44AoRd3h4Wl3n-1">
          <mxGeometry x="390" y="78.5" width="100" height="40" as="geometry" />
        </mxCell>
        <mxCell id="Iwp3akC44AoRd3h4Wl3n-158" value="" style="endArrow=none;html=1;rounded=0;exitX=0;exitY=0.5;exitDx=0;exitDy=0;" edge="1" parent="Iwp3akC44AoRd3h4Wl3n-1" source="Iwp3akC44AoRd3h4Wl3n-139" target="Iwp3akC44AoRd3h4Wl3n-157">
          <mxGeometry relative="1" as="geometry">
            <mxPoint x="220" y="188.5" as="sourcePoint" />
            <mxPoint x="380" y="188.5" as="targetPoint" />
          </mxGeometry>
        </mxCell>
        <mxCell id="Iwp3akC44AoRd3h4Wl3n-159" value="" style="endArrow=none;html=1;rounded=0;exitX=1;exitY=0.5;exitDx=0;exitDy=0;entryX=0;entryY=0.5;entryDx=0;entryDy=0;" edge="1" parent="Iwp3akC44AoRd3h4Wl3n-1" source="Iwp3akC44AoRd3h4Wl3n-160" target="Iwp3akC44AoRd3h4Wl3n-139">
          <mxGeometry relative="1" as="geometry">
            <mxPoint x="170" y="188.5" as="sourcePoint" />
            <mxPoint x="330" y="188.5" as="targetPoint" />
          </mxGeometry>
        </mxCell>
        <mxCell id="Iwp3akC44AoRd3h4Wl3n-160" value="Nombre" style="ellipse;whiteSpace=wrap;html=1;align=center;" vertex="1" parent="Iwp3akC44AoRd3h4Wl3n-1">
          <mxGeometry x="313" y="38.5" width="100" height="40" as="geometry" />
        </mxCell>
        <mxCell id="Iwp3akC44AoRd3h4Wl3n-161" value="Personal Organizador" style="whiteSpace=wrap;html=1;align=center;fillColor=#fff2cc;strokeColor=#d6b656;" vertex="1" parent="Iwp3akC44AoRd3h4Wl3n-1">
          <mxGeometry x="493.00000000000006" y="328" width="100" height="40" as="geometry" />
        </mxCell>
        <mxCell id="Iwp3akC44AoRd3h4Wl3n-162" value="Limpieza" style="whiteSpace=wrap;html=1;align=center;" vertex="1" parent="Iwp3akC44AoRd3h4Wl3n-1">
          <mxGeometry x="60.000000000000085" y="568" width="100" height="40" as="geometry" />
        </mxCell>
        <mxCell id="Iwp3akC44AoRd3h4Wl3n-163" value="Seguridad" style="whiteSpace=wrap;html=1;align=center;" vertex="1" parent="Iwp3akC44AoRd3h4Wl3n-1">
          <mxGeometry x="-71.66999999999994" y="568" width="100" height="40" as="geometry" />
        </mxCell>
        <mxCell id="Iwp3akC44AoRd3h4Wl3n-164" value="Médico" style="whiteSpace=wrap;html=1;align=center;" vertex="1" parent="Iwp3akC44AoRd3h4Wl3n-1">
          <mxGeometry x="211.4600000000001" y="568" width="100" height="40" as="geometry" />
        </mxCell>
        <mxCell id="Iwp3akC44AoRd3h4Wl3n-165" value="RFC" style="ellipse;whiteSpace=wrap;html=1;align=center;fontStyle=4;" vertex="1" parent="Iwp3akC44AoRd3h4Wl3n-1">
          <mxGeometry x="858" y="568" width="100" height="40" as="geometry" />
        </mxCell>
        <mxCell id="Iwp3akC44AoRd3h4Wl3n-166" value="" style="edgeStyle=orthogonalEdgeStyle;rounded=0;orthogonalLoop=1;jettySize=auto;html=1;endArrow=none;startFill=0;" edge="1" parent="Iwp3akC44AoRd3h4Wl3n-1" source="Iwp3akC44AoRd3h4Wl3n-167">
          <mxGeometry relative="1" as="geometry">
            <mxPoint x="971" y="658.5" as="targetPoint" />
          </mxGeometry>
        </mxCell>
        <mxCell id="Iwp3akC44AoRd3h4Wl3n-167" value="Nombre Completo" style="ellipse;whiteSpace=wrap;html=1;align=center;" vertex="1" parent="Iwp3akC44AoRd3h4Wl3n-1">
          <mxGeometry x="817" y="638.5" width="100" height="40" as="geometry" />
        </mxCell>
        <mxCell id="Iwp3akC44AoRd3h4Wl3n-168" value="Nombre" style="ellipse;whiteSpace=wrap;html=1;align=center;" vertex="1" parent="Iwp3akC44AoRd3h4Wl3n-1">
          <mxGeometry x="760" y="723.5" width="100" height="40" as="geometry" />
        </mxCell>
        <mxCell id="Iwp3akC44AoRd3h4Wl3n-169" style="rounded=0;orthogonalLoop=1;jettySize=auto;html=1;exitX=0.5;exitY=0;exitDx=0;exitDy=0;entryX=0.5;entryY=1;entryDx=0;entryDy=0;endArrow=none;startFill=0;" edge="1" parent="Iwp3akC44AoRd3h4Wl3n-1" source="Iwp3akC44AoRd3h4Wl3n-170" target="Iwp3akC44AoRd3h4Wl3n-167">
          <mxGeometry relative="1" as="geometry" />
        </mxCell>
        <mxCell id="Iwp3akC44AoRd3h4Wl3n-170" value="Apellido Paterno" style="ellipse;whiteSpace=wrap;html=1;align=center;" vertex="1" parent="Iwp3akC44AoRd3h4Wl3n-1">
          <mxGeometry x="817" y="783.5" width="100" height="40" as="geometry" />
        </mxCell>
        <mxCell id="Iwp3akC44AoRd3h4Wl3n-171" value="Apellido Materno" style="ellipse;whiteSpace=wrap;html=1;align=center;" vertex="1" parent="Iwp3akC44AoRd3h4Wl3n-1">
          <mxGeometry x="887" y="743.5" width="100" height="40" as="geometry" />
        </mxCell>
        <mxCell id="Iwp3akC44AoRd3h4Wl3n-172" value="" style="endArrow=none;html=1;rounded=0;exitX=0.5;exitY=0;exitDx=0;exitDy=0;entryX=0;entryY=1;entryDx=0;entryDy=0;" edge="1" parent="Iwp3akC44AoRd3h4Wl3n-1" source="Iwp3akC44AoRd3h4Wl3n-168" target="Iwp3akC44AoRd3h4Wl3n-167">
          <mxGeometry relative="1" as="geometry">
            <mxPoint x="1073.5499999999997" y="871" as="sourcePoint" />
            <mxPoint x="579.9053390593274" y="616.8578643762685" as="targetPoint" />
          </mxGeometry>
        </mxCell>
        <mxCell id="Iwp3akC44AoRd3h4Wl3n-173" value="" style="endArrow=none;html=1;rounded=0;entryX=0.5;entryY=0;entryDx=0;entryDy=0;exitX=1;exitY=1;exitDx=0;exitDy=0;" edge="1" parent="Iwp3akC44AoRd3h4Wl3n-1" source="Iwp3akC44AoRd3h4Wl3n-167" target="Iwp3akC44AoRd3h4Wl3n-171">
          <mxGeometry relative="1" as="geometry">
            <mxPoint x="887" y="683.5" as="sourcePoint" />
            <mxPoint x="1333.5499999999997" y="861" as="targetPoint" />
          </mxGeometry>
        </mxCell>
        <mxCell id="Iwp3akC44AoRd3h4Wl3n-174" value="Domicilio" style="ellipse;whiteSpace=wrap;html=1;align=center;" vertex="1" parent="Iwp3akC44AoRd3h4Wl3n-1">
          <mxGeometry x="430.00000000000017" y="528" width="100" height="40" as="geometry" />
        </mxCell>
        <mxCell id="Iwp3akC44AoRd3h4Wl3n-175" value="Calle" style="ellipse;whiteSpace=wrap;html=1;align=center;" vertex="1" parent="Iwp3akC44AoRd3h4Wl3n-1">
          <mxGeometry x="350.0000000000004" y="608" width="100" height="40" as="geometry" />
        </mxCell>
        <mxCell id="Iwp3akC44AoRd3h4Wl3n-176" value="Colonia" style="ellipse;whiteSpace=wrap;html=1;align=center;" vertex="1" parent="Iwp3akC44AoRd3h4Wl3n-1">
          <mxGeometry x="393.0000000000004" y="658" width="100" height="40" as="geometry" />
        </mxCell>
        <mxCell id="Iwp3akC44AoRd3h4Wl3n-177" value="Estado" style="ellipse;whiteSpace=wrap;html=1;align=center;" vertex="1" parent="Iwp3akC44AoRd3h4Wl3n-1">
          <mxGeometry x="483.0000000000004" y="708" width="100" height="40" as="geometry" />
        </mxCell>
        <mxCell id="Iwp3akC44AoRd3h4Wl3n-178" value="Número Interior" style="ellipse;whiteSpace=wrap;html=1;align=center;" vertex="1" parent="Iwp3akC44AoRd3h4Wl3n-1">
          <mxGeometry x="593.0000000000003" y="738" width="100" height="40" as="geometry" />
        </mxCell>
        <mxCell id="Iwp3akC44AoRd3h4Wl3n-179" value="" style="endArrow=none;html=1;rounded=0;exitX=0.5;exitY=0;exitDx=0;exitDy=0;entryX=0;entryY=1;entryDx=0;entryDy=0;" edge="1" parent="Iwp3akC44AoRd3h4Wl3n-1" source="Iwp3akC44AoRd3h4Wl3n-175" target="Iwp3akC44AoRd3h4Wl3n-174">
          <mxGeometry relative="1" as="geometry">
            <mxPoint x="892.9099999999999" y="715.5" as="sourcePoint" />
            <mxPoint x="352.91000000000014" y="745.5" as="targetPoint" />
          </mxGeometry>
        </mxCell>
        <mxCell id="Iwp3akC44AoRd3h4Wl3n-180" value="" style="endArrow=none;html=1;rounded=0;exitX=0.5;exitY=0;exitDx=0;exitDy=0;entryX=1;entryY=0.5;entryDx=0;entryDy=0;" edge="1" parent="Iwp3akC44AoRd3h4Wl3n-1" source="Iwp3akC44AoRd3h4Wl3n-181" target="Iwp3akC44AoRd3h4Wl3n-174">
          <mxGeometry relative="1" as="geometry">
            <mxPoint x="1002.9099999999999" y="695.5" as="sourcePoint" />
            <mxPoint x="1002.9099999999999" y="665.5" as="targetPoint" />
          </mxGeometry>
        </mxCell>
        <mxCell id="Iwp3akC44AoRd3h4Wl3n-181" value="Número Exterior" style="ellipse;whiteSpace=wrap;html=1;align=center;" vertex="1" parent="Iwp3akC44AoRd3h4Wl3n-1">
          <mxGeometry x="540.0000000000002" y="578" width="100" height="40" as="geometry" />
        </mxCell>
        <mxCell id="Iwp3akC44AoRd3h4Wl3n-182" value="" style="endArrow=none;html=1;rounded=0;exitX=0.415;exitY=0.025;exitDx=0;exitDy=0;entryX=0.645;entryY=1.01;entryDx=0;entryDy=0;entryPerimeter=0;exitPerimeter=0;" edge="1" parent="Iwp3akC44AoRd3h4Wl3n-1" source="Iwp3akC44AoRd3h4Wl3n-178" target="Iwp3akC44AoRd3h4Wl3n-174">
          <mxGeometry relative="1" as="geometry">
            <mxPoint x="1002.9099999999999" y="765.5" as="sourcePoint" />
            <mxPoint x="1012.9099999999999" y="635.5" as="targetPoint" />
          </mxGeometry>
        </mxCell>
        <mxCell id="Iwp3akC44AoRd3h4Wl3n-183" value="" style="endArrow=none;html=1;rounded=0;exitX=0.5;exitY=0;exitDx=0;exitDy=0;entryX=0.5;entryY=1;entryDx=0;entryDy=0;" edge="1" parent="Iwp3akC44AoRd3h4Wl3n-1" source="Iwp3akC44AoRd3h4Wl3n-177" target="Iwp3akC44AoRd3h4Wl3n-174">
          <mxGeometry relative="1" as="geometry">
            <mxPoint x="517.0899999999997" y="869.5000000000005" as="sourcePoint" />
            <mxPoint x="630.00000000001" y="578" as="targetPoint" />
          </mxGeometry>
        </mxCell>
        <mxCell id="Iwp3akC44AoRd3h4Wl3n-184" value="Teléfono" style="ellipse;shape=doubleEllipse;margin=3;whiteSpace=wrap;html=1;align=center;" vertex="1" parent="Iwp3akC44AoRd3h4Wl3n-1">
          <mxGeometry x="410.00000000000006" y="257.5" width="100" height="40" as="geometry" />
        </mxCell>
        <mxCell id="Iwp3akC44AoRd3h4Wl3n-185" value="Correo" style="ellipse;shape=doubleEllipse;margin=3;whiteSpace=wrap;html=1;align=center;" vertex="1" parent="Iwp3akC44AoRd3h4Wl3n-1">
          <mxGeometry x="520" y="433" width="100" height="40" as="geometry" />
        </mxCell>
        <mxCell id="Iwp3akC44AoRd3h4Wl3n-186" value="Salario" style="ellipse;whiteSpace=wrap;html=1;align=center;" vertex="1" parent="Iwp3akC44AoRd3h4Wl3n-1">
          <mxGeometry x="190.00000000000006" y="373" width="100" height="40" as="geometry" />
        </mxCell>
        <mxCell id="Iwp3akC44AoRd3h4Wl3n-187" value="" style="endArrow=none;html=1;rounded=0;exitX=0.426;exitY=1.069;exitDx=0;exitDy=0;entryX=0.5;entryY=0;entryDx=0;entryDy=0;exitPerimeter=0;" edge="1" parent="Iwp3akC44AoRd3h4Wl3n-1" source="Iwp3akC44AoRd3h4Wl3n-161" target="Iwp3akC44AoRd3h4Wl3n-174">
          <mxGeometry relative="1" as="geometry">
            <mxPoint x="72.91000000000007" y="675.5" as="sourcePoint" />
            <mxPoint x="232.91000000000008" y="675.5" as="targetPoint" />
          </mxGeometry>
        </mxCell>
        <mxCell id="Iwp3akC44AoRd3h4Wl3n-188" value="" style="endArrow=none;html=1;rounded=0;exitX=0.25;exitY=0;exitDx=0;exitDy=0;entryX=0.5;entryY=1;entryDx=0;entryDy=0;" edge="1" parent="Iwp3akC44AoRd3h4Wl3n-1" source="Iwp3akC44AoRd3h4Wl3n-262" target="Iwp3akC44AoRd3h4Wl3n-165">
          <mxGeometry relative="1" as="geometry">
            <mxPoint x="811" y="638.5" as="sourcePoint" />
            <mxPoint x="440.9100000000001" y="1056" as="targetPoint" />
          </mxGeometry>
        </mxCell>
        <mxCell id="Iwp3akC44AoRd3h4Wl3n-189" value="" style="endArrow=none;html=1;rounded=0;exitX=0.5;exitY=0;exitDx=0;exitDy=0;entryX=1;entryY=1;entryDx=0;entryDy=0;" edge="1" parent="Iwp3akC44AoRd3h4Wl3n-1" source="Iwp3akC44AoRd3h4Wl3n-161" target="Iwp3akC44AoRd3h4Wl3n-184">
          <mxGeometry relative="1" as="geometry">
            <mxPoint x="12.910000000000071" y="745.5" as="sourcePoint" />
            <mxPoint x="172.91000000000008" y="745.5" as="targetPoint" />
          </mxGeometry>
        </mxCell>
        <mxCell id="Iwp3akC44AoRd3h4Wl3n-190" value="" style="endArrow=none;html=1;rounded=0;entryX=0;entryY=0.25;entryDx=0;entryDy=0;" edge="1" parent="Iwp3akC44AoRd3h4Wl3n-1" target="Iwp3akC44AoRd3h4Wl3n-161">
          <mxGeometry relative="1" as="geometry">
            <mxPoint x="410.00000000000006" y="318" as="sourcePoint" />
            <mxPoint x="72.91000000000007" y="745.5" as="targetPoint" />
          </mxGeometry>
        </mxCell>
        <mxCell id="Iwp3akC44AoRd3h4Wl3n-191" value="" style="endArrow=none;html=1;rounded=0;exitX=1;exitY=0.5;exitDx=0;exitDy=0;entryX=0;entryY=0.5;entryDx=0;entryDy=0;" edge="1" parent="Iwp3akC44AoRd3h4Wl3n-1" source="Iwp3akC44AoRd3h4Wl3n-199" target="Iwp3akC44AoRd3h4Wl3n-161">
          <mxGeometry relative="1" as="geometry">
            <mxPoint x="-37.090000000000614" y="795.5000000000005" as="sourcePoint" />
            <mxPoint x="72.91000000000007" y="805.5" as="targetPoint" />
          </mxGeometry>
        </mxCell>
        <mxCell id="Iwp3akC44AoRd3h4Wl3n-192" value="" style="endArrow=none;html=1;rounded=0;exitX=1;exitY=0.5;exitDx=0;exitDy=0;entryX=0;entryY=0.75;entryDx=0;entryDy=0;" edge="1" parent="Iwp3akC44AoRd3h4Wl3n-1" source="Iwp3akC44AoRd3h4Wl3n-186" target="Iwp3akC44AoRd3h4Wl3n-161">
          <mxGeometry relative="1" as="geometry">
            <mxPoint x="-87.08999999999993" y="805.5" as="sourcePoint" />
            <mxPoint x="72.91000000000007" y="805.5" as="targetPoint" />
          </mxGeometry>
        </mxCell>
        <mxCell id="Iwp3akC44AoRd3h4Wl3n-193" value="d" style="triangle;whiteSpace=wrap;html=1;direction=south;" vertex="1" parent="Iwp3akC44AoRd3h4Wl3n-1">
          <mxGeometry x="131.4600000000001" y="468" width="80" height="60" as="geometry" />
        </mxCell>
        <mxCell id="Iwp3akC44AoRd3h4Wl3n-194" value="" style="endArrow=none;html=1;rounded=0;exitX=0;exitY=1;exitDx=0;exitDy=0;shape=link;entryX=0;entryY=0.5;entryDx=0;entryDy=0;" edge="1" parent="Iwp3akC44AoRd3h4Wl3n-1" source="Iwp3akC44AoRd3h4Wl3n-161" target="Iwp3akC44AoRd3h4Wl3n-193">
          <mxGeometry relative="1" as="geometry">
            <mxPoint x="-217.08999999999992" y="1065.5" as="sourcePoint" />
            <mxPoint x="-57.08999999999993" y="1065.5" as="targetPoint" />
          </mxGeometry>
        </mxCell>
        <mxCell id="Iwp3akC44AoRd3h4Wl3n-195" value="" style="endArrow=none;html=1;rounded=0;exitX=0.5;exitY=0;exitDx=0;exitDy=0;entryX=1;entryY=0.5;entryDx=0;entryDy=0;" edge="1" parent="Iwp3akC44AoRd3h4Wl3n-1" source="Iwp3akC44AoRd3h4Wl3n-162" target="Iwp3akC44AoRd3h4Wl3n-193">
          <mxGeometry relative="1" as="geometry">
            <mxPoint x="-27.08999999999993" y="965.5" as="sourcePoint" />
            <mxPoint x="132.91000000000008" y="965.5" as="targetPoint" />
          </mxGeometry>
        </mxCell>
        <mxCell id="Iwp3akC44AoRd3h4Wl3n-196" value="" style="endArrow=none;html=1;rounded=0;entryX=0.5;entryY=0;entryDx=0;entryDy=0;exitX=1;exitY=0.5;exitDx=0;exitDy=0;" edge="1" parent="Iwp3akC44AoRd3h4Wl3n-1" source="Iwp3akC44AoRd3h4Wl3n-193" target="Iwp3akC44AoRd3h4Wl3n-163">
          <mxGeometry relative="1" as="geometry">
            <mxPoint x="142.91000000000008" y="945.5" as="sourcePoint" />
            <mxPoint x="362.91000000000014" y="975.5" as="targetPoint" />
          </mxGeometry>
        </mxCell>
        <mxCell id="Iwp3akC44AoRd3h4Wl3n-197" value="" style="endArrow=none;html=1;rounded=0;entryX=0.5;entryY=0;entryDx=0;entryDy=0;exitX=1;exitY=0.5;exitDx=0;exitDy=0;" edge="1" parent="Iwp3akC44AoRd3h4Wl3n-1" source="Iwp3akC44AoRd3h4Wl3n-193" target="Iwp3akC44AoRd3h4Wl3n-164">
          <mxGeometry relative="1" as="geometry">
            <mxPoint x="250" y="648" as="sourcePoint" />
            <mxPoint x="382.91000000000014" y="965.5" as="targetPoint" />
          </mxGeometry>
        </mxCell>
        <mxCell id="Iwp3akC44AoRd3h4Wl3n-198" value="Horario" style="ellipse;shape=doubleEllipse;margin=3;whiteSpace=wrap;html=1;align=center;" vertex="1" parent="Iwp3akC44AoRd3h4Wl3n-1">
          <mxGeometry x="310.00000000000006" y="288" width="100" height="40" as="geometry" />
        </mxCell>
        <mxCell id="Iwp3akC44AoRd3h4Wl3n-199" value="Fecha de Asistencia" style="ellipse;shape=doubleEllipse;margin=3;whiteSpace=wrap;html=1;align=center;" vertex="1" parent="Iwp3akC44AoRd3h4Wl3n-1">
          <mxGeometry x="210" y="318" width="100" height="40" as="geometry" />
        </mxCell>
        <mxCell id="Iwp3akC44AoRd3h4Wl3n-200" value="" style="endArrow=block;html=1;rounded=0;entryX=0.5;entryY=1;entryDx=0;entryDy=0;exitX=0.5;exitY=0;exitDx=0;exitDy=0;fillColor=#dae8fc;strokeColor=#000000;endFill=1;" edge="1" parent="Iwp3akC44AoRd3h4Wl3n-1" source="Iwp3akC44AoRd3h4Wl3n-201" target="Iwp3akC44AoRd3h4Wl3n-139">
          <mxGeometry relative="1" as="geometry">
            <mxPoint x="-110" y="357.5" as="sourcePoint" />
            <mxPoint x="50" y="357.5" as="targetPoint" />
          </mxGeometry>
        </mxCell>
        <mxCell id="Iwp3akC44AoRd3h4Wl3n-201" value="Trabajar" style="shape=rhombus;perimeter=rhombusPerimeter;whiteSpace=wrap;html=1;align=center;" vertex="1" parent="Iwp3akC44AoRd3h4Wl3n-1">
          <mxGeometry x="503" y="78.5" width="120" height="60" as="geometry" />
        </mxCell>
        <mxCell id="Iwp3akC44AoRd3h4Wl3n-202" value="Modalidad" style="ellipse;whiteSpace=wrap;html=1;strokeWidth=1;gradientColor=default;fillColor=none;" vertex="1" parent="Iwp3akC44AoRd3h4Wl3n-1">
          <mxGeometry x="122.91" y="-140" width="117.09" height="42.5" as="geometry" />
        </mxCell>
        <mxCell id="Iwp3akC44AoRd3h4Wl3n-203" value="" style="endArrow=none;html=1;rounded=0;entryX=0;entryY=0.5;entryDx=0;entryDy=0;exitX=1;exitY=0.5;exitDx=0;exitDy=0;" edge="1" parent="Iwp3akC44AoRd3h4Wl3n-1" source="Iwp3akC44AoRd3h4Wl3n-139" target="Iwp3akC44AoRd3h4Wl3n-123">
          <mxGeometry width="50" height="50" relative="1" as="geometry">
            <mxPoint x="430" y="110" as="sourcePoint" />
            <mxPoint x="480" y="60" as="targetPoint" />
          </mxGeometry>
        </mxCell>
        <mxCell id="Iwp3akC44AoRd3h4Wl3n-204" value="" style="endArrow=none;html=1;rounded=0;exitX=1;exitY=0.5;exitDx=0;exitDy=0;entryX=0;entryY=0;entryDx=0;entryDy=0;" edge="1" parent="Iwp3akC44AoRd3h4Wl3n-1" source="Iwp3akC44AoRd3h4Wl3n-141" target="Iwp3akC44AoRd3h4Wl3n-140">
          <mxGeometry relative="1" as="geometry">
            <mxPoint x="-40" y="-31" as="sourcePoint" />
            <mxPoint x="280" y="-31" as="targetPoint" />
          </mxGeometry>
        </mxCell>
        <mxCell id="Iwp3akC44AoRd3h4Wl3n-205" value="Número Interior" style="ellipse;whiteSpace=wrap;html=1;align=center;" vertex="1" parent="Iwp3akC44AoRd3h4Wl3n-1">
          <mxGeometry x="102.91" y="-41.5" width="100" height="40" as="geometry" />
        </mxCell>
        <mxCell id="Iwp3akC44AoRd3h4Wl3n-206" value="" style="endArrow=none;html=1;rounded=0;entryX=1;entryY=0.5;entryDx=0;entryDy=0;exitX=0.368;exitY=0.033;exitDx=0;exitDy=0;exitPerimeter=0;" edge="1" parent="Iwp3akC44AoRd3h4Wl3n-1" source="Iwp3akC44AoRd3h4Wl3n-140" target="Iwp3akC44AoRd3h4Wl3n-202">
          <mxGeometry width="50" height="50" relative="1" as="geometry">
            <mxPoint x="170" y="110" as="sourcePoint" />
            <mxPoint x="220" y="60" as="targetPoint" />
          </mxGeometry>
        </mxCell>
        <mxCell id="Iwp3akC44AoRd3h4Wl3n-207" value="" style="endArrow=none;html=1;rounded=0;entryX=0.5;entryY=1;entryDx=0;entryDy=0;exitX=0.5;exitY=0;exitDx=0;exitDy=0;fillColor=#dae8fc;strokeColor=light-dark(#000000, #5c79a3);shape=link;" edge="1" parent="Iwp3akC44AoRd3h4Wl3n-1" source="Iwp3akC44AoRd3h4Wl3n-161" target="Iwp3akC44AoRd3h4Wl3n-201">
          <mxGeometry width="50" height="50" relative="1" as="geometry">
            <mxPoint x="370.00000000000006" y="338" as="sourcePoint" />
            <mxPoint x="543" y="266.5" as="targetPoint" />
          </mxGeometry>
        </mxCell>
        <mxCell id="Iwp3akC44AoRd3h4Wl3n-208" value="" style="endArrow=none;html=1;rounded=0;entryX=0.75;entryY=1;entryDx=0;entryDy=0;exitX=0.5;exitY=0;exitDx=0;exitDy=0;" edge="1" parent="Iwp3akC44AoRd3h4Wl3n-1" source="Iwp3akC44AoRd3h4Wl3n-185" target="Iwp3akC44AoRd3h4Wl3n-161">
          <mxGeometry width="50" height="50" relative="1" as="geometry">
            <mxPoint x="300.00000000000006" y="598" as="sourcePoint" />
            <mxPoint x="350.00000000000006" y="548" as="targetPoint" />
          </mxGeometry>
        </mxCell>
        <mxCell id="Iwp3akC44AoRd3h4Wl3n-209" value="" style="endArrow=none;html=1;rounded=0;entryX=0.327;entryY=1.099;entryDx=0;entryDy=0;entryPerimeter=0;exitX=0.756;exitY=0.172;exitDx=0;exitDy=0;exitPerimeter=0;" edge="1" parent="Iwp3akC44AoRd3h4Wl3n-1" source="Iwp3akC44AoRd3h4Wl3n-176" target="Iwp3akC44AoRd3h4Wl3n-174">
          <mxGeometry width="50" height="50" relative="1" as="geometry">
            <mxPoint x="300.00000000000006" y="598" as="sourcePoint" />
            <mxPoint x="350.00000000000006" y="548" as="targetPoint" />
          </mxGeometry>
        </mxCell>
        <mxCell id="Iwp3akC44AoRd3h4Wl3n-210" value="" style="rounded=0;orthogonalLoop=1;jettySize=auto;html=1;edgeStyle=orthogonalEdgeStyle;strokeWidth=1;fontSize=1;shape=link;entryX=0;entryY=0.5;entryDx=0;entryDy=0;" edge="1" parent="Iwp3akC44AoRd3h4Wl3n-1" source="Iwp3akC44AoRd3h4Wl3n-127" target="Iwp3akC44AoRd3h4Wl3n-211">
          <mxGeometry relative="1" as="geometry">
            <mxPoint x="984" y="225" as="sourcePoint" />
            <mxPoint x="1100" y="225" as="targetPoint" />
            <Array as="points" />
          </mxGeometry>
        </mxCell>
        <mxCell id="Iwp3akC44AoRd3h4Wl3n-211" value="" style="triangle;whiteSpace=wrap;html=1;rotation=0;fillStyle=solid;fillColor=#000000;" vertex="1" parent="Iwp3akC44AoRd3h4Wl3n-1">
          <mxGeometry x="1094" y="215" width="10" height="20" as="geometry" />
        </mxCell>
        <mxCell id="Iwp3akC44AoRd3h4Wl3n-212" value="Emprendedor" style="whiteSpace=wrap;html=1;align=center;fillColor=#fff2cc;strokeColor=#d6b656;" vertex="1" parent="Iwp3akC44AoRd3h4Wl3n-1">
          <mxGeometry x="1904" y="-1080" width="100" height="40" as="geometry" />
        </mxCell>
        <mxCell id="Iwp3akC44AoRd3h4Wl3n-213" value="Nombre Completo" style="ellipse;whiteSpace=wrap;html=1;align=center;" vertex="1" parent="Iwp3akC44AoRd3h4Wl3n-1">
          <mxGeometry x="1750" y="-1150" width="100" height="40" as="geometry" />
        </mxCell>
        <mxCell id="Iwp3akC44AoRd3h4Wl3n-214" value="RFC" style="ellipse;whiteSpace=wrap;html=1;align=center;fontStyle=4;" vertex="1" parent="Iwp3akC44AoRd3h4Wl3n-1">
          <mxGeometry x="1850" y="-1230" width="100" height="40" as="geometry" />
        </mxCell>
        <mxCell id="Iwp3akC44AoRd3h4Wl3n-215" value="Nombre" style="ellipse;whiteSpace=wrap;html=1;align=center;" vertex="1" parent="Iwp3akC44AoRd3h4Wl3n-1">
          <mxGeometry x="1610" y="-1250" width="100" height="40" as="geometry" />
        </mxCell>
        <mxCell id="Iwp3akC44AoRd3h4Wl3n-216" value="Apellido Materno" style="ellipse;whiteSpace=wrap;html=1;align=center;" vertex="1" parent="Iwp3akC44AoRd3h4Wl3n-1">
          <mxGeometry x="1498" y="-1130" width="100" height="40" as="geometry" />
        </mxCell>
        <mxCell id="Iwp3akC44AoRd3h4Wl3n-217" value="Apellido Paterno" style="ellipse;whiteSpace=wrap;html=1;align=center;" vertex="1" parent="Iwp3akC44AoRd3h4Wl3n-1">
          <mxGeometry x="1510" y="-1200" width="100" height="40" as="geometry" />
        </mxCell>
        <mxCell id="Iwp3akC44AoRd3h4Wl3n-218" value="Domicilio" style="ellipse;whiteSpace=wrap;html=1;align=center;" vertex="1" parent="Iwp3akC44AoRd3h4Wl3n-1">
          <mxGeometry x="1750" y="-950" width="100" height="40" as="geometry" />
        </mxCell>
        <mxCell id="Iwp3akC44AoRd3h4Wl3n-219" value="Número Interior" style="ellipse;whiteSpace=wrap;html=1;align=center;" vertex="1" parent="Iwp3akC44AoRd3h4Wl3n-1">
          <mxGeometry x="1580" y="-860" width="100" height="40" as="geometry" />
        </mxCell>
        <mxCell id="Iwp3akC44AoRd3h4Wl3n-220" value="Calle" style="ellipse;whiteSpace=wrap;html=1;align=center;" vertex="1" parent="Iwp3akC44AoRd3h4Wl3n-1">
          <mxGeometry x="1580" y="-930" width="100" height="40" as="geometry" />
        </mxCell>
        <mxCell id="Iwp3akC44AoRd3h4Wl3n-221" value="Fecha Nacimiento" style="ellipse;whiteSpace=wrap;html=1;align=center;" vertex="1" parent="Iwp3akC44AoRd3h4Wl3n-1">
          <mxGeometry x="2114" y="-1010" width="100" height="40" as="geometry" />
        </mxCell>
        <mxCell id="Iwp3akC44AoRd3h4Wl3n-222" value="Número Exterior" style="ellipse;whiteSpace=wrap;html=1;align=center;" vertex="1" parent="Iwp3akC44AoRd3h4Wl3n-1">
          <mxGeometry x="1690" y="-830" width="100" height="40" as="geometry" />
        </mxCell>
        <mxCell id="Iwp3akC44AoRd3h4Wl3n-223" value="Colonia" style="ellipse;whiteSpace=wrap;html=1;align=center;" vertex="1" parent="Iwp3akC44AoRd3h4Wl3n-1">
          <mxGeometry x="1810" y="-830" width="100" height="40" as="geometry" />
        </mxCell>
        <mxCell id="Iwp3akC44AoRd3h4Wl3n-224" value="Estado" style="ellipse;whiteSpace=wrap;html=1;align=center;" vertex="1" parent="Iwp3akC44AoRd3h4Wl3n-1">
          <mxGeometry x="1870" y="-900" width="100" height="40" as="geometry" />
        </mxCell>
        <mxCell id="Iwp3akC44AoRd3h4Wl3n-225" value="Telefono" style="ellipse;shape=doubleEllipse;margin=3;whiteSpace=wrap;html=1;align=center;" vertex="1" parent="Iwp3akC44AoRd3h4Wl3n-1">
          <mxGeometry x="2114" y="-1120" width="100" height="40" as="geometry" />
        </mxCell>
        <mxCell id="Iwp3akC44AoRd3h4Wl3n-226" value="Correo" style="ellipse;shape=doubleEllipse;margin=3;whiteSpace=wrap;html=1;align=center;" vertex="1" parent="Iwp3akC44AoRd3h4Wl3n-1">
          <mxGeometry x="2114" y="-1065" width="100" height="40" as="geometry" />
        </mxCell>
        <mxCell id="Iwp3akC44AoRd3h4Wl3n-227" value="Genero" style="ellipse;whiteSpace=wrap;html=1;align=center;" vertex="1" parent="Iwp3akC44AoRd3h4Wl3n-1">
          <mxGeometry x="2104" y="-950" width="100" height="40" as="geometry" />
        </mxCell>
        <mxCell id="Iwp3akC44AoRd3h4Wl3n-228" value="" style="endArrow=none;html=1;rounded=0;exitX=0.5;exitY=1;exitDx=0;exitDy=0;entryX=0;entryY=0.5;entryDx=0;entryDy=0;" edge="1" parent="Iwp3akC44AoRd3h4Wl3n-1" source="Iwp3akC44AoRd3h4Wl3n-214" target="Iwp3akC44AoRd3h4Wl3n-212">
          <mxGeometry relative="1" as="geometry">
            <mxPoint x="1384" y="-1120" as="sourcePoint" />
            <mxPoint x="1544" y="-1120" as="targetPoint" />
          </mxGeometry>
        </mxCell>
        <mxCell id="Iwp3akC44AoRd3h4Wl3n-229" value="" style="endArrow=none;html=1;rounded=0;entryX=1;entryY=0.5;entryDx=0;entryDy=0;exitX=0;exitY=0.5;exitDx=0;exitDy=0;" edge="1" parent="Iwp3akC44AoRd3h4Wl3n-1" source="Iwp3akC44AoRd3h4Wl3n-213" target="Iwp3akC44AoRd3h4Wl3n-215">
          <mxGeometry relative="1" as="geometry">
            <mxPoint x="1314" y="-1070" as="sourcePoint" />
            <mxPoint x="1474" y="-1070" as="targetPoint" />
          </mxGeometry>
        </mxCell>
        <mxCell id="Iwp3akC44AoRd3h4Wl3n-230" value="" style="endArrow=none;html=1;rounded=0;exitX=1;exitY=0.5;exitDx=0;exitDy=0;entryX=0;entryY=0.5;entryDx=0;entryDy=0;" edge="1" parent="Iwp3akC44AoRd3h4Wl3n-1" source="Iwp3akC44AoRd3h4Wl3n-217" target="Iwp3akC44AoRd3h4Wl3n-213">
          <mxGeometry relative="1" as="geometry">
            <mxPoint x="1324" y="-1000" as="sourcePoint" />
            <mxPoint x="1484" y="-1000" as="targetPoint" />
          </mxGeometry>
        </mxCell>
        <mxCell id="Iwp3akC44AoRd3h4Wl3n-231" value="" style="endArrow=none;html=1;rounded=0;exitX=1;exitY=0.5;exitDx=0;exitDy=0;entryX=0;entryY=0.5;entryDx=0;entryDy=0;" edge="1" parent="Iwp3akC44AoRd3h4Wl3n-1" source="Iwp3akC44AoRd3h4Wl3n-216" target="Iwp3akC44AoRd3h4Wl3n-213">
          <mxGeometry relative="1" as="geometry">
            <mxPoint x="1674" y="-980" as="sourcePoint" />
            <mxPoint x="1834" y="-980" as="targetPoint" />
          </mxGeometry>
        </mxCell>
        <mxCell id="Iwp3akC44AoRd3h4Wl3n-232" value="" style="endArrow=none;html=1;rounded=0;exitX=1;exitY=0.5;exitDx=0;exitDy=0;entryX=0;entryY=0.5;entryDx=0;entryDy=0;" edge="1" parent="Iwp3akC44AoRd3h4Wl3n-1" source="Iwp3akC44AoRd3h4Wl3n-213" target="Iwp3akC44AoRd3h4Wl3n-212">
          <mxGeometry relative="1" as="geometry">
            <mxPoint x="1344" y="-1150" as="sourcePoint" />
            <mxPoint x="1504" y="-1150" as="targetPoint" />
          </mxGeometry>
        </mxCell>
        <mxCell id="Iwp3akC44AoRd3h4Wl3n-233" value="" style="endArrow=none;html=1;rounded=0;exitX=1;exitY=0.5;exitDx=0;exitDy=0;entryX=0.5;entryY=1;entryDx=0;entryDy=0;" edge="1" parent="Iwp3akC44AoRd3h4Wl3n-1" source="Iwp3akC44AoRd3h4Wl3n-220" target="Iwp3akC44AoRd3h4Wl3n-218">
          <mxGeometry relative="1" as="geometry">
            <mxPoint x="1500" y="-740" as="sourcePoint" />
            <mxPoint x="1660" y="-740" as="targetPoint" />
          </mxGeometry>
        </mxCell>
        <mxCell id="Iwp3akC44AoRd3h4Wl3n-234" value="" style="endArrow=none;html=1;rounded=0;exitX=1;exitY=0.5;exitDx=0;exitDy=0;entryX=0.5;entryY=1;entryDx=0;entryDy=0;" edge="1" parent="Iwp3akC44AoRd3h4Wl3n-1" source="Iwp3akC44AoRd3h4Wl3n-219" target="Iwp3akC44AoRd3h4Wl3n-218">
          <mxGeometry relative="1" as="geometry">
            <mxPoint x="1730" y="-730" as="sourcePoint" />
            <mxPoint x="1890" y="-730" as="targetPoint" />
          </mxGeometry>
        </mxCell>
        <mxCell id="Iwp3akC44AoRd3h4Wl3n-235" value="" style="endArrow=none;html=1;rounded=0;exitX=0.5;exitY=0;exitDx=0;exitDy=0;entryX=0.5;entryY=1;entryDx=0;entryDy=0;" edge="1" parent="Iwp3akC44AoRd3h4Wl3n-1" source="Iwp3akC44AoRd3h4Wl3n-222" target="Iwp3akC44AoRd3h4Wl3n-218">
          <mxGeometry relative="1" as="geometry">
            <mxPoint x="1540" y="-690" as="sourcePoint" />
            <mxPoint x="1700" y="-690" as="targetPoint" />
          </mxGeometry>
        </mxCell>
        <mxCell id="Iwp3akC44AoRd3h4Wl3n-236" value="" style="endArrow=none;html=1;rounded=0;exitX=0.5;exitY=1;exitDx=0;exitDy=0;entryX=0.5;entryY=0;entryDx=0;entryDy=0;" edge="1" parent="Iwp3akC44AoRd3h4Wl3n-1" source="Iwp3akC44AoRd3h4Wl3n-218" target="Iwp3akC44AoRd3h4Wl3n-223">
          <mxGeometry relative="1" as="geometry">
            <mxPoint x="1750" y="-690" as="sourcePoint" />
            <mxPoint x="1910" y="-690" as="targetPoint" />
          </mxGeometry>
        </mxCell>
        <mxCell id="Iwp3akC44AoRd3h4Wl3n-237" value="" style="endArrow=none;html=1;rounded=0;exitX=0.5;exitY=0;exitDx=0;exitDy=0;entryX=0.5;entryY=1;entryDx=0;entryDy=0;" edge="1" parent="Iwp3akC44AoRd3h4Wl3n-1" source="Iwp3akC44AoRd3h4Wl3n-218" target="Iwp3akC44AoRd3h4Wl3n-212">
          <mxGeometry relative="1" as="geometry">
            <mxPoint x="1714" y="-660" as="sourcePoint" />
            <mxPoint x="1874" y="-660" as="targetPoint" />
          </mxGeometry>
        </mxCell>
        <mxCell id="Iwp3akC44AoRd3h4Wl3n-238" value="" style="endArrow=none;html=1;rounded=0;exitX=0.5;exitY=1;exitDx=0;exitDy=0;entryX=0;entryY=0.5;entryDx=0;entryDy=0;" edge="1" parent="Iwp3akC44AoRd3h4Wl3n-1" source="Iwp3akC44AoRd3h4Wl3n-218" target="Iwp3akC44AoRd3h4Wl3n-224">
          <mxGeometry relative="1" as="geometry">
            <mxPoint x="1860" y="-660" as="sourcePoint" />
            <mxPoint x="1950" y="-870" as="targetPoint" />
          </mxGeometry>
        </mxCell>
        <mxCell id="Iwp3akC44AoRd3h4Wl3n-239" value="" style="endArrow=none;html=1;rounded=0;exitX=1;exitY=0.5;exitDx=0;exitDy=0;entryX=0;entryY=0.5;entryDx=0;entryDy=0;" edge="1" parent="Iwp3akC44AoRd3h4Wl3n-1" source="Iwp3akC44AoRd3h4Wl3n-212" target="Iwp3akC44AoRd3h4Wl3n-226">
          <mxGeometry relative="1" as="geometry">
            <mxPoint x="1924" y="-1170" as="sourcePoint" />
            <mxPoint x="2084" y="-1170" as="targetPoint" />
          </mxGeometry>
        </mxCell>
        <mxCell id="Iwp3akC44AoRd3h4Wl3n-240" value="" style="endArrow=none;html=1;rounded=0;exitX=1;exitY=0.5;exitDx=0;exitDy=0;entryX=0;entryY=0.5;entryDx=0;entryDy=0;" edge="1" parent="Iwp3akC44AoRd3h4Wl3n-1" source="Iwp3akC44AoRd3h4Wl3n-212" target="Iwp3akC44AoRd3h4Wl3n-225">
          <mxGeometry relative="1" as="geometry">
            <mxPoint x="1744" y="-1210" as="sourcePoint" />
            <mxPoint x="1904" y="-1210" as="targetPoint" />
          </mxGeometry>
        </mxCell>
        <mxCell id="Iwp3akC44AoRd3h4Wl3n-241" value="" style="endArrow=none;html=1;rounded=0;exitX=1;exitY=0.5;exitDx=0;exitDy=0;entryX=0;entryY=0.5;entryDx=0;entryDy=0;" edge="1" parent="Iwp3akC44AoRd3h4Wl3n-1" source="Iwp3akC44AoRd3h4Wl3n-212" target="Iwp3akC44AoRd3h4Wl3n-221">
          <mxGeometry relative="1" as="geometry">
            <mxPoint x="2014" y="-1200" as="sourcePoint" />
            <mxPoint x="2174" y="-1200" as="targetPoint" />
          </mxGeometry>
        </mxCell>
        <mxCell id="Iwp3akC44AoRd3h4Wl3n-242" value="" style="endArrow=none;html=1;rounded=0;exitX=0.5;exitY=1;exitDx=0;exitDy=0;entryX=0;entryY=0.5;entryDx=0;entryDy=0;" edge="1" parent="Iwp3akC44AoRd3h4Wl3n-1" source="Iwp3akC44AoRd3h4Wl3n-212" target="Iwp3akC44AoRd3h4Wl3n-227">
          <mxGeometry relative="1" as="geometry">
            <mxPoint x="1964" y="-980" as="sourcePoint" />
            <mxPoint x="2124" y="-980" as="targetPoint" />
          </mxGeometry>
        </mxCell>
        <mxCell id="Iwp3akC44AoRd3h4Wl3n-243" value="Tener" style="shape=rhombus;perimeter=rhombusPerimeter;whiteSpace=wrap;html=1;align=center;" vertex="1" parent="Iwp3akC44AoRd3h4Wl3n-1">
          <mxGeometry x="2010" y="-424.75" width="120" height="60" as="geometry" />
        </mxCell>
        <mxCell id="Iwp3akC44AoRd3h4Wl3n-244" value="" style="endArrow=none;html=1;rounded=0;exitX=0.5;exitY=0;exitDx=0;exitDy=0;entryX=0.5;entryY=1;entryDx=0;entryDy=0;shape=link;" edge="1" parent="Iwp3akC44AoRd3h4Wl3n-1" source="Iwp3akC44AoRd3h4Wl3n-243" target="Iwp3akC44AoRd3h4Wl3n-212">
          <mxGeometry width="50" height="50" relative="1" as="geometry">
            <mxPoint x="1180" y="-450" as="sourcePoint" />
            <mxPoint x="1230" y="-500" as="targetPoint" />
          </mxGeometry>
        </mxCell>
        <mxCell id="Iwp3akC44AoRd3h4Wl3n-245" value="&lt;br&gt;&lt;div&gt;num&amp;nbsp; emprendedores&lt;/div&gt;" style="ellipse;whiteSpace=wrap;html=1;strokeWidth=2;dashed=1;" vertex="1" parent="Iwp3akC44AoRd3h4Wl3n-1">
          <mxGeometry x="2180" y="-441.75" width="190" height="35" as="geometry" />
        </mxCell>
        <mxCell id="Iwp3akC44AoRd3h4Wl3n-246" value="" style="endArrow=none;html=1;rounded=0;entryX=0.5;entryY=1;entryDx=0;entryDy=0;exitX=1;exitY=0.5;exitDx=0;exitDy=0;" edge="1" parent="Iwp3akC44AoRd3h4Wl3n-1" source="Iwp3akC44AoRd3h4Wl3n-243" target="Iwp3akC44AoRd3h4Wl3n-245">
          <mxGeometry width="50" height="50" relative="1" as="geometry">
            <mxPoint x="1830" y="-460" as="sourcePoint" />
            <mxPoint x="1880" y="-510" as="targetPoint" />
          </mxGeometry>
        </mxCell>
        <mxCell id="Iwp3akC44AoRd3h4Wl3n-247" value="" style="endArrow=none;html=1;rounded=0;entryX=0.5;entryY=1;entryDx=0;entryDy=0;exitX=0.5;exitY=0;exitDx=0;exitDy=0;edgeStyle=orthogonalEdgeStyle;" edge="1" parent="Iwp3akC44AoRd3h4Wl3n-1" source="Iwp3akC44AoRd3h4Wl3n-84" target="Iwp3akC44AoRd3h4Wl3n-243">
          <mxGeometry width="50" height="50" relative="1" as="geometry">
            <mxPoint x="1674" y="80" as="sourcePoint" />
            <mxPoint x="2080" y="-350" as="targetPoint" />
          </mxGeometry>
        </mxCell>
        <mxCell id="Iwp3akC44AoRd3h4Wl3n-248" value="Producto" style="shape=ext;margin=3;double=1;whiteSpace=wrap;html=1;align=center;" vertex="1" parent="Iwp3akC44AoRd3h4Wl3n-1">
          <mxGeometry x="1014" y="-461.75" width="100" height="40" as="geometry" />
        </mxCell>
        <mxCell id="Iwp3akC44AoRd3h4Wl3n-249" value="Servicio" style="shape=ext;margin=3;double=1;whiteSpace=wrap;html=1;align=center;" vertex="1" parent="Iwp3akC44AoRd3h4Wl3n-1">
          <mxGeometry x="1398" y="-505.75" width="100" height="40" as="geometry" />
        </mxCell>
        <mxCell id="Iwp3akC44AoRd3h4Wl3n-250" value="Cobrar" style="shape=rhombus;perimeter=rhombusPerimeter;whiteSpace=wrap;html=1;align=center;" vertex="1" parent="Iwp3akC44AoRd3h4Wl3n-1">
          <mxGeometry x="640" y="-930" width="120" height="60" as="geometry" />
        </mxCell>
        <mxCell id="Iwp3akC44AoRd3h4Wl3n-251" value="" style="endArrow=none;html=1;rounded=0;exitX=1;exitY=0.5;exitDx=0;exitDy=0;entryX=0;entryY=0.5;entryDx=0;entryDy=0;" edge="1" parent="Iwp3akC44AoRd3h4Wl3n-1" source="Iwp3akC44AoRd3h4Wl3n-47" target="Iwp3akC44AoRd3h4Wl3n-250">
          <mxGeometry relative="1" as="geometry">
            <mxPoint x="620" y="-900" as="sourcePoint" />
            <mxPoint x="780" y="-900" as="targetPoint" />
          </mxGeometry>
        </mxCell>
        <mxCell id="Iwp3akC44AoRd3h4Wl3n-252" value="" style="endArrow=none;html=1;rounded=0;exitX=1;exitY=0.5;exitDx=0;exitDy=0;entryX=0;entryY=0.75;entryDx=0;entryDy=0;" edge="1" parent="Iwp3akC44AoRd3h4Wl3n-1" source="Iwp3akC44AoRd3h4Wl3n-250" target="Iwp3akC44AoRd3h4Wl3n-212">
          <mxGeometry relative="1" as="geometry">
            <mxPoint x="1080" y="-900" as="sourcePoint" />
            <mxPoint x="1240" y="-900" as="targetPoint" />
          </mxGeometry>
        </mxCell>
        <mxCell id="Iwp3akC44AoRd3h4Wl3n-253" value="Pagar" style="shape=rhombus;perimeter=rhombusPerimeter;whiteSpace=wrap;html=1;align=center;" vertex="1" parent="Iwp3akC44AoRd3h4Wl3n-1">
          <mxGeometry x="500" y="-290" width="120" height="60" as="geometry" />
        </mxCell>
        <mxCell id="Iwp3akC44AoRd3h4Wl3n-254" value="" style="endArrow=none;html=1;rounded=0;exitX=0.5;exitY=1;exitDx=0;exitDy=0;entryX=0.5;entryY=0;entryDx=0;entryDy=0;" edge="1" parent="Iwp3akC44AoRd3h4Wl3n-1" source="Iwp3akC44AoRd3h4Wl3n-47" target="Iwp3akC44AoRd3h4Wl3n-253">
          <mxGeometry relative="1" as="geometry">
            <mxPoint x="480" y="-260" as="sourcePoint" />
            <mxPoint x="640" y="-260" as="targetPoint" />
          </mxGeometry>
        </mxCell>
        <mxCell id="Iwp3akC44AoRd3h4Wl3n-255" value="" style="endArrow=none;html=1;rounded=0;exitX=0.5;exitY=1;exitDx=0;exitDy=0;entryX=0.5;entryY=0;entryDx=0;entryDy=0;" edge="1" parent="Iwp3akC44AoRd3h4Wl3n-1" source="Iwp3akC44AoRd3h4Wl3n-253" target="Iwp3akC44AoRd3h4Wl3n-139">
          <mxGeometry relative="1" as="geometry">
            <mxPoint x="480" y="-260" as="sourcePoint" />
            <mxPoint x="640" y="-260" as="targetPoint" />
          </mxGeometry>
        </mxCell>
        <mxCell id="Iwp3akC44AoRd3h4Wl3n-256" value="Comisión" style="ellipse;whiteSpace=wrap;html=1;align=center;dashed=1;" vertex="1" parent="Iwp3akC44AoRd3h4Wl3n-1">
          <mxGeometry x="400" y="-330.75" width="100" height="40" as="geometry" />
        </mxCell>
        <mxCell id="Iwp3akC44AoRd3h4Wl3n-257" value="" style="endArrow=none;html=1;rounded=0;dashed=1;dashPattern=1 2;exitX=1;exitY=1;exitDx=0;exitDy=0;entryX=0;entryY=0.5;entryDx=0;entryDy=0;" edge="1" parent="Iwp3akC44AoRd3h4Wl3n-1" source="Iwp3akC44AoRd3h4Wl3n-256" target="Iwp3akC44AoRd3h4Wl3n-253">
          <mxGeometry relative="1" as="geometry">
            <mxPoint x="570" y="-290" as="sourcePoint" />
            <mxPoint x="730" y="-290" as="targetPoint" />
          </mxGeometry>
        </mxCell>
        <mxCell id="Iwp3akC44AoRd3h4Wl3n-258" value="" style="resizable=0;html=1;whiteSpace=wrap;align=right;verticalAlign=bottom;" connectable="0" vertex="1" parent="Iwp3akC44AoRd3h4Wl3n-257">
          <mxGeometry x="1" relative="1" as="geometry" />
        </mxCell>
        <mxCell id="Iwp3akC44AoRd3h4Wl3n-259" value="Vender" style="shape=rhombus;perimeter=rhombusPerimeter;whiteSpace=wrap;html=1;align=center;" vertex="1" parent="Iwp3akC44AoRd3h4Wl3n-1">
          <mxGeometry x="550" y="-700" width="120" height="60" as="geometry" />
        </mxCell>
        <mxCell id="Iwp3akC44AoRd3h4Wl3n-260" value="" style="endArrow=none;html=1;rounded=0;exitX=1;exitY=0.5;exitDx=0;exitDy=0;entryX=0;entryY=0.5;entryDx=0;entryDy=0;startArrow=none;startFill=0;" edge="1" parent="Iwp3akC44AoRd3h4Wl3n-1" source="Iwp3akC44AoRd3h4Wl3n-47" target="Iwp3akC44AoRd3h4Wl3n-259">
          <mxGeometry relative="1" as="geometry">
            <mxPoint x="530" y="-670" as="sourcePoint" />
            <mxPoint x="690" y="-670" as="targetPoint" />
          </mxGeometry>
        </mxCell>
        <mxCell id="Iwp3akC44AoRd3h4Wl3n-261" value="" style="endArrow=none;html=1;rounded=0;entryX=1;entryY=0.5;entryDx=0;entryDy=0;exitX=0;exitY=0.25;exitDx=0;exitDy=0;edgeStyle=orthogonalEdgeStyle;startArrow=block;startFill=1;" edge="1" parent="Iwp3akC44AoRd3h4Wl3n-1" source="Iwp3akC44AoRd3h4Wl3n-84" target="Iwp3akC44AoRd3h4Wl3n-259">
          <mxGeometry relative="1" as="geometry">
            <mxPoint x="660" y="-600" as="sourcePoint" />
            <mxPoint x="690" y="-670" as="targetPoint" />
            <Array as="points">
              <mxPoint x="1620" y="-50" />
              <mxPoint x="1620" y="-80" />
              <mxPoint x="890" y="-80" />
              <mxPoint x="890" y="-240" />
              <mxPoint x="670" y="-240" />
            </Array>
          </mxGeometry>
        </mxCell>
        <mxCell id="Iwp3akC44AoRd3h4Wl3n-262" value="Trabajador" style="whiteSpace=wrap;html=1;align=center;" vertex="1" parent="Iwp3akC44AoRd3h4Wl3n-1">
          <mxGeometry x="965.0000000000001" y="638.5" width="100" height="40" as="geometry" />
        </mxCell>
      </root>
    </mxGraphModel>
  </diagram>
</mxfile>
